{
.appVersion = "919";
classes = (
{
automatic = 1;
code = "A Aacute Abreve Acircumflex Adieresis Agrave Amacron Aogonek Aring Atilde AE AEacute B C Cacute Ccaron Ccedilla Ccircumflex Cdotaccent D Eth Dcaron Dcroat E Eacute Ebreve Ecaron Ecircumflex Edieresis Edotaccent Egrave Emacron Eogonek F G Gbreve Gcircumflex Gcommaaccent Gdotaccent H Hbar Hcircumflex I Iacute Ibreve Icircumflex Idieresis Idotaccent Igrave Iogonek Itilde J Jcircumflex K Kcommaaccent L Lacute Lcaron Lcommaaccent Ldot Lslash M N Nacute Ncaron Ncommaaccent Eng Ntilde O Oacute Obreve Ocircumflex Odieresis Ograve Ohungarumlaut Omacron Oslash Oslashacute Otilde OE P Thorn Q R Racute Rcaron Rcommaaccent S Sacute Scaron Scedilla Scircumflex Scommaaccent T Tbar Tcaron Tcommaaccent U Uacute Ubreve Ucircumflex Udieresis Ugrave Uhungarumlaut Umacron Uogonek Uring Utilde V W Wacute Wcircumflex Wdieresis Wgrave X Y Yacute Ycircumflex Ydieresis Ygrave Z Zacute Zcaron Zdotaccent A-cy Be-cy Ve-cy Ge-cy Gje-cy Gheupturn-cy De-cy Ie-cy Iegrave-cy Io-cy Zhe-cy Ze-cy Ii-cy Iishort-cy Iigrave-cy Ka-cy Kje-cy El-cy Em-cy En-cy O-cy Pe-cy Er-cy Es-cy Te-cy U-cy Ushort-cy Ef-cy Ha-cy Che-cy Tse-cy Sha-cy Shcha-cy Dzhe-cy Softsign-cy Hardsign-cy Yeru-cy Lje-cy Nje-cy Dze-cy E-cy Ereversed-cy I-cy Yi-cy Je-cy Tshe-cy Iu-cy Ia-cy Dje-cy Yat-cy Yusbig-cy Fita-cy Izhitsa-cy Ghestroke-cy Ghemiddlehook-cy Zhedescender-cy Zedescender-cy Kadescender-cy Kaverticalstroke-cy Kabashkir-cy Endescender-cy Pedescender-cy Esdescender-cy Ustrait-cy Ustraitstroke-cy Chedescender-cy Cheverticalstroke-cy Shha-cy Palochka-cy Zhebreve-cy Chekhakassian-cy Abreve-cy Adieresis-cy Iebreve-cy Schwa-cy Zhedieresis-cy Zedieresis-cy Imacron-cy Idieresis-cy Odieresis-cy Obarred-cy Umacron-cy Udieresis-cy Uhungarumlaut-cy Chedieresis-cy Gedescender-cy Yerudieresis-cy Qa-cy We-cy";
name = Uppercase;
}
);

glyphs = (
{
color = 4;
glyphname = A;
lastChange = "2016-09-08 17:15:01 +0000";
layers = (
{
background = {
paths = (
{
closed = 1;
nodes = (
"262 0 LINE SMOOTH",
"288 0 OFFCURVE",
"297 14 OFFCURVE",
"301 25 CURVE SMOOTH",
"325 91 LINE",
"540 91 LINE",
"564 25 LINE SMOOTH",
"568 14 OFFCURVE",
"577 0 OFFCURVE",
"603 0 CURVE SMOOTH",
"788 0 LINE SMOOTH",
"800 0 OFFCURVE",
"810 10 OFFCURVE",
"810 22 CURVE SMOOTH",
"810 24 OFFCURVE",
"810 26 OFFCURVE",
"809 29 CURVE SMOOTH",
"586 667 LINE",
"582 682 OFFCURVE",
"568 700 OFFCURVE",
"541 700 CURVE SMOOTH",
"324 700 LINE SMOOTH",
"297 700 OFFCURVE",
"283 682 OFFCURVE",
"279 667 CURVE",
"56 29 LINE SMOOTH",
"55 26 OFFCURVE",
"55 24 OFFCURVE",
"55 22 CURVE SMOOTH",
"55 10 OFFCURVE",
"65 0 OFFCURVE",
"77 0 CURVE SMOOTH"
);
},
{
closed = 1;
nodes = (
"432 472 LINE",
"489 286 LINE",
"376 286 LINE"
);
}
);
};
layerId = UUID0;
paths = (
{
closed = 1;
nodes = (
"550 104 LINE",
"575 34 LINE SMOOTH",
"581 18 OFFCURVE",
"593 0 OFFCURVE",
"620 0 CURVE SMOOTH",
"809 0 LINE SMOOTH",
"821 0 OFFCURVE",
"831 10 OFFCURVE",
"831 22 CURVE SMOOTH",
"831 23 OFFCURVE",
"831 25 OFFCURVE",
"830 28 CURVE SMOOTH",
"612 667 LINE",
"608 682 OFFCURVE",
"594 700 OFFCURVE",
"567 700 CURVE SMOOTH",
"289 700 LINE SMOOTH",
"262 700 OFFCURVE",
"248 682 OFFCURVE",
"244 667 CURVE",
"26 28 LINE SMOOTH",
"25 25 OFFCURVE",
"25 23 OFFCURVE",
"25 22 CURVE SMOOTH",
"25 10 OFFCURVE",
"35 0 OFFCURVE",
"47 0 CURVE SMOOTH",
"236 0 LINE SMOOTH",
"263 0 OFFCURVE",
"275 18 OFFCURVE",
"281 34 CURVE SMOOTH",
"306 104 LINE"
);
},
{
closed = 1;
nodes = (
"499 299 LINE",
"357 299 LINE",
"428 507 LINE"
);
}
);
width = 850;
}
);
unicode = 0041;
},
{
color = 4;
glyphname = Aacute;
lastChange = "2016-09-08 17:15:01 +0000";
layers = (
{
layerId = UUID0;
paths = (
{
closed = 1;
nodes = (
"306 104 LINE",
"281 34 LINE SMOOTH",
"275 18 OFFCURVE",
"263 0 OFFCURVE",
"236 0 CURVE SMOOTH",
"47 0 LINE SMOOTH",
"35 0 OFFCURVE",
"25 10 OFFCURVE",
"25 22 CURVE SMOOTH",
"25 23 OFFCURVE",
"25 25 OFFCURVE",
"26 28 CURVE SMOOTH",
"244 667 LINE",
"248 682 OFFCURVE",
"262 700 OFFCURVE",
"289 700 CURVE SMOOTH",
"567 700 LINE SMOOTH",
"594 700 OFFCURVE",
"608 682 OFFCURVE",
"612 667 CURVE",
"830 28 LINE SMOOTH",
"831 25 OFFCURVE",
"831 23 OFFCURVE",
"831 22 CURVE SMOOTH",
"831 10 OFFCURVE",
"821 0 OFFCURVE",
"809 0 CURVE SMOOTH",
"620 0 LINE SMOOTH",
"593 0 OFFCURVE",
"581 18 OFFCURVE",
"575 34 CURVE SMOOTH",
"550 104 LINE"
);
},
{
closed = 1;
nodes = (
"428 507 LINE",
"357 299 LINE",
"499 299 LINE"
);
},
{
closed = 1;
nodes = (
"349 760 LINE SMOOTH",
"346 757 OFFCURVE",
"344 752 OFFCURVE",
"344 747 CURVE SMOOTH",
"344 737 OFFCURVE",
"350 731 OFFCURVE",
"360 731 CURVE SMOOTH",
"481 731 LINE SMOOTH",
"485 731 OFFCURVE",
"489 731 OFFCURVE",
"493 731 CURVE SMOOTH",
"503 731 OFFCURVE",
"513 732 OFFCURVE",
"521 738 CURVE SMOOTH",
"616 818 LINE SMOOTH",
"619 821 OFFCURVE",
"621 825 OFFCURVE",
"621 830 CURVE SMOOTH",
"621 842 OFFCURVE",
"614 850 OFFCURVE",
"602 850 CURVE SMOOTH",
"444 850 LINE",
"429 849 OFFCURVE",
"421 848 OFFCURVE",
"407 831 CURVE SMOOTH"
);
}
);
width = 850;
}
);
unicode = 00C1;
},
{
color = 4;
glyphname = Abreve;
lastChange = "2016-09-08 17:15:01 +0000";
layers = (
{
layerId = UUID0;
paths = (
{
closed = 1;
nodes = (
"550 104 LINE",
"575 34 LINE SMOOTH",
"581 18 OFFCURVE",
"593 0 OFFCURVE",
"620 0 CURVE SMOOTH",
"809 0 LINE SMOOTH",
"821 0 OFFCURVE",
"831 10 OFFCURVE",
"831 22 CURVE SMOOTH",
"831 23 OFFCURVE",
"831 25 OFFCURVE",
"830 28 CURVE SMOOTH",
"612 667 LINE",
"608 682 OFFCURVE",
"594 700 OFFCURVE",
"567 700 CURVE SMOOTH",
"289 700 LINE SMOOTH",
"262 700 OFFCURVE",
"248 682 OFFCURVE",
"244 667 CURVE",
"26 28 LINE SMOOTH",
"25 25 OFFCURVE",
"25 23 OFFCURVE",
"25 22 CURVE SMOOTH",
"25 10 OFFCURVE",
"35 0 OFFCURVE",
"47 0 CURVE SMOOTH",
"236 0 LINE SMOOTH",
"263 0 OFFCURVE",
"275 18 OFFCURVE",
"281 34 CURVE SMOOTH",
"306 104 LINE"
);
},
{
closed = 1;
nodes = (
"499 299 LINE",
"357 299 LINE",
"428 507 LINE"
);
},
{
closed = 1;
nodes = (
"465 833 OFFCURVE",
"458 817 OFFCURVE",
"428 817 CURVE SMOOTH",
"398 817 OFFCURVE",
"390 834 OFFCURVE",
"388 842 CURVE SMOOTH",
"386 849 OFFCURVE",
"381 855 OFFCURVE",
"369 855 CURVE SMOOTH",
"270 855 LINE SMOOTH",
"258 855 OFFCURVE",
"251 849 OFFCURVE",
"251 842 CURVE SMOOTH",
"251 784 OFFCURVE",
"308 730 OFFCURVE",
"428 730 CURVE SMOOTH",
"549 730 OFFCURVE",
"606 784 OFFCURVE",
"606 842 CURVE SMOOTH",
"606 849 OFFCURVE",
"599 855 OFFCURVE",
"587 855 CURVE SMOOTH",
"488 855 LINE SMOOTH",
"476 855 OFFCURVE",
"472 848 OFFCURVE",
"469 842 CURVE SMOOTH"
);
}
);
width = 850;
}
);
unicode = 0102;
},
{
color = 4;
glyphname = Acircumflex;
lastChange = "2016-09-08 17:15:01 +0000";
layers = (
{
layerId = UUID0;
paths = (
{
closed = 1;
nodes = (
"306 104 LINE",
"281 34 LINE SMOOTH",
"275 18 OFFCURVE",
"263 0 OFFCURVE",
"236 0 CURVE SMOOTH",
"47 0 LINE SMOOTH",
"35 0 OFFCURVE",
"25 10 OFFCURVE",
"25 22 CURVE SMOOTH",
"25 23 OFFCURVE",
"25 25 OFFCURVE",
"26 28 CURVE SMOOTH",
"244 667 LINE",
"248 682 OFFCURVE",
"262 700 OFFCURVE",
"289 700 CURVE SMOOTH",
"567 700 LINE SMOOTH",
"594 700 OFFCURVE",
"608 682 OFFCURVE",
"612 667 CURVE",
"830 28 LINE SMOOTH",
"831 25 OFFCURVE",
"831 23 OFFCURVE",
"831 22 CURVE SMOOTH",
"831 10 OFFCURVE",
"821 0 OFFCURVE",
"809 0 CURVE SMOOTH",
"620 0 LINE SMOOTH",
"593 0 OFFCURVE",
"581 18 OFFCURVE",
"575 34 CURVE SMOOTH",
"550 104 LINE"
);
},
{
closed = 1;
nodes = (
"428 507 LINE",
"357 299 LINE",
"499 299 LINE"
);
},
{
closed = 1;
nodes = (
"427 760 LINE",
"484 738 LINE",
"500 733 OFFCURVE",
"511 731 OFFCURVE",
"524 731 CURVE SMOOTH",
"605 731 LINE SMOOTH",
"614 731 OFFCURVE",
"621 738 OFFCURVE",
"621 747 CURVE SMOOTH",
"621 755 OFFCURVE",
"616 759 OFFCURVE",
"613 761 CURVE SMOOTH",
"530 831 LINE",
"509 846 OFFCURVE",
"498 850 OFFCURVE",
"483 850 CURVE SMOOTH",
"371 850 LINE SMOOTH",
"356 850 OFFCURVE",
"345 846 OFFCURVE",
"324 831 CURVE",
"241 761 LINE SMOOTH",
"238 759 OFFCURVE",
"233 755 OFFCURVE",
"233 747 CURVE SMOOTH",
"233 738 OFFCURVE",
"240 731 OFFCURVE",
"249 731 CURVE SMOOTH",
"330 731 LINE SMOOTH",
"343 731 OFFCURVE",
"354 733 OFFCURVE",
"370 738 CURVE"
);
}
);
width = 850;
}
);
unicode = 00C2;
},
{
color = 4;
glyphname = Adieresis;
lastChange = "2016-09-08 17:15:01 +0000";
layers = (
{
layerId = UUID0;
paths = (
{
closed = 1;
nodes = (
"550 104 LINE",
"575 34 LINE SMOOTH",
"581 18 OFFCURVE",
"593 0 OFFCURVE",
"620 0 CURVE SMOOTH",
"809 0 LINE SMOOTH",
"821 0 OFFCURVE",
"831 10 OFFCURVE",
"831 22 CURVE SMOOTH",
"831 23 OFFCURVE",
"831 25 OFFCURVE",
"830 28 CURVE SMOOTH",
"612 667 LINE",
"608 682 OFFCURVE",
"594 700 OFFCURVE",
"567 700 CURVE SMOOTH",
"289 700 LINE SMOOTH",
"262 700 OFFCURVE",
"248 682 OFFCURVE",
"244 667 CURVE",
"26 28 LINE SMOOTH",
"25 25 OFFCURVE",
"25 23 OFFCURVE",
"25 22 CURVE SMOOTH",
"25 10 OFFCURVE",
"35 0 OFFCURVE",
"47 0 CURVE SMOOTH",
"236 0 LINE SMOOTH",
"263 0 OFFCURVE",
"275 18 OFFCURVE",
"281 34 CURVE SMOOTH",
"306 104 LINE"
);
},
{
closed = 1;
nodes = (
"499 299 LINE",
"357 299 LINE",
"428 507 LINE"
);
},
{
closed = 1;
nodes = (
"445 831 LINE SMOOTH",
"431 848 OFFCURVE",
"423 849 OFFCURVE",
"408 850 CURVE",
"250 850 LINE SMOOTH",
"238 850 OFFCURVE",
"231 842 OFFCURVE",
"231 830 CURVE SMOOTH",
"231 825 OFFCURVE",
"233 821 OFFCURVE",
"236 818 CURVE SMOOTH",
"331 738 LINE SMOOTH",
"339 732 OFFCURVE",
"349 731 OFFCURVE",
"359 731 CURVE SMOOTH",
"363 731 OFFCURVE",
"367 731 OFFCURVE",
"371 731 CURVE SMOOTH",
"492 731 LINE SMOOTH",
"502 731 OFFCURVE",
"508 737 OFFCURVE",
"508 747 CURVE SMOOTH",
"508 752 OFFCURVE",
"506 757 OFFCURVE",
"503 760 CURVE SMOOTH"
);
}
);
width = 850;
}
);
unicode = 00C4;
},
{
color = 4;
glyphname = Agrave;
lastChange = "2016-09-08 17:15:01 +0000";
layers = (
{
layerId = UUID0;
paths = (
{
closed = 1;
nodes = (
"306 104 LINE",
"281 34 LINE SMOOTH",
"275 18 OFFCURVE",
"263 0 OFFCURVE",
"236 0 CURVE SMOOTH",
"47 0 LINE SMOOTH",
"35 0 OFFCURVE",
"25 10 OFFCURVE",
"25 22 CURVE SMOOTH",
"25 23 OFFCURVE",
"25 25 OFFCURVE",
"26 28 CURVE SMOOTH",
"244 667 LINE",
"248 682 OFFCURVE",
"262 700 OFFCURVE",
"289 700 CURVE SMOOTH",
"567 700 LINE SMOOTH",
"594 700 OFFCURVE",
"608 682 OFFCURVE",
"612 667 CURVE",
"830 28 LINE SMOOTH",
"831 25 OFFCURVE",
"831 23 OFFCURVE",
"831 22 CURVE SMOOTH",
"831 10 OFFCURVE",
"821 0 OFFCURVE",
"809 0 CURVE SMOOTH",
"620 0 LINE SMOOTH",
"593 0 OFFCURVE",
"581 18 OFFCURVE",
"575 34 CURVE SMOOTH",
"550 104 LINE"
);
},
{
closed = 1;
nodes = (
"428 507 LINE",
"357 299 LINE",
"499 299 LINE"
);
},
{
closed = 1;
nodes = (
"496 850 LINE SMOOTH",
"483 850 OFFCURVE",
"473 840 OFFCURVE",
"473 827 CURVE SMOOTH",
"473 754 LINE SMOOTH",
"473 741 OFFCURVE",
"483 731 OFFCURVE",
"496 731 CURVE SMOOTH",
"612 731 LINE SMOOTH",
"625 731 OFFCURVE",
"635 741 OFFCURVE",
"635 754 CURVE SMOOTH",
"635 827 LINE SMOOTH",
"635 840 OFFCURVE",
"625 850 OFFCURVE",
"612 850 CURVE SMOOTH"
);
},
{
closed = 1;
nodes = (
"245 850 LINE SMOOTH",
"232 850 OFFCURVE",
"222 840 OFFCURVE",
"222 827 CURVE SMOOTH",
"222 754 LINE SMOOTH",
"222 741 OFFCURVE",
"232 731 OFFCURVE",
"245 731 CURVE SMOOTH",
"361 731 LINE SMOOTH",
"374 731 OFFCURVE",
"384 741 OFFCURVE",
"384 754 CURVE SMOOTH",
"384 827 LINE SMOOTH",
"384 840 OFFCURVE",
"374 850 OFFCURVE",
"361 850 CURVE SMOOTH"
);
}
);
width = 850;
}
);
unicode = 00C0;
},
{
color = 4;
glyphname = Amacron;
lastChange = "2016-09-08 17:15:01 +0000";
layers = (
{
layerId = UUID0;
paths = (
{
closed = 1;
nodes = (
"306 104 LINE",
"281 34 LINE SMOOTH",
"275 18 OFFCURVE",
"263 0 OFFCURVE",
"236 0 CURVE SMOOTH",
"47 0 LINE SMOOTH",
"35 0 OFFCURVE",
"25 10 OFFCURVE",
"25 22 CURVE SMOOTH",
"25 23 OFFCURVE",
"25 25 OFFCURVE",
"26 28 CURVE SMOOTH",
"244 667 LINE",
"248 682 OFFCURVE",
"262 700 OFFCURVE",
"289 700 CURVE SMOOTH",
"567 700 LINE SMOOTH",
"594 700 OFFCURVE",
"608 682 OFFCURVE",
"612 667 CURVE",
"830 28 LINE SMOOTH",
"831 25 OFFCURVE",
"831 23 OFFCURVE",
"831 22 CURVE SMOOTH",
"831 10 OFFCURVE",
"821 0 OFFCURVE",
"809 0 CURVE SMOOTH",
"620 0 LINE SMOOTH",
"593 0 OFFCURVE",
"581 18 OFFCURVE",
"575 34 CURVE SMOOTH",
"550 104 LINE"
);
},
{
closed = 1;
nodes = (
"428 507 LINE",
"357 299 LINE",
"499 299 LINE"
);
},
{
closed = 1;
nodes = (
"242 850 LINE SMOOTH",
"229 850 OFFCURVE",
"219 840 OFFCURVE",
"219 827 CURVE SMOOTH",
"219 754 LINE SMOOTH",
"219 741 OFFCURVE",
"229 731 OFFCURVE",
"242 731 CURVE SMOOTH",
"609 731 LINE SMOOTH",
"622 731 OFFCURVE",
"632 741 OFFCURVE",
"632 754 CURVE SMOOTH",
"632 827 LINE SMOOTH",
"632 840 OFFCURVE",
"622 850 OFFCURVE",
"609 850 CURVE SMOOTH"
);
}
);
width = 850;
}
);
unicode = 0100;
},
{
color = 4;
glyphname = Aogonek;
lastChange = "2016-09-08 17:15:01 +0000";
layers = (
{
layerId = UUID0;
paths = (
{
closed = 1;
nodes = (
"550 104 LINE",
"575 34 LINE SMOOTH",
"581 18 OFFCURVE",
"593 0 OFFCURVE",
"620 0 CURVE SMOOTH",
"645 0 LINE",
"643 -8 OFFCURVE",
"643 -17 OFFCURVE",
"643 -26 CURVE SMOOTH",
"643 -98 OFFCURVE",
"684 -142 OFFCURVE",
"795 -142 CURVE SMOOTH",
"809 -142 LINE SMOOTH",
"824 -142 OFFCURVE",
"836 -133 OFFCURVE",
"836 -118 CURVE SMOOTH",
"836 -77 LINE SMOOTH",
"836 -61 OFFCURVE",
"824 -52 OFFCURVE",
"809 -52 CURVE SMOOTH",
"802 -52 LINE SMOOTH",
"768 -52 OFFCURVE",
"759 -41 OFFCURVE",
"759 -26 CURVE SMOOTH",
"759 -12 OFFCURVE",
"767 -1 OFFCURVE",
"795 0 CURVE SMOOTH",
"809 0 LINE SMOOTH",
"821 0 OFFCURVE",
"831 10 OFFCURVE",
"831 22 CURVE SMOOTH",
"831 23 OFFCURVE",
"831 25 OFFCURVE",
"830 28 CURVE SMOOTH",
"612 667 LINE",
"608 682 OFFCURVE",
"594 700 OFFCURVE",
"567 700 CURVE SMOOTH",
"289 700 LINE SMOOTH",
"262 700 OFFCURVE",
"248 682 OFFCURVE",
"244 667 CURVE",
"26 28 LINE SMOOTH",
"25 25 OFFCURVE",
"25 23 OFFCURVE",
"25 22 CURVE SMOOTH",
"25 10 OFFCURVE",
"35 0 OFFCURVE",
"47 0 CURVE SMOOTH",
"236 0 LINE SMOOTH",
"263 0 OFFCURVE",
"275 18 OFFCURVE",
"281 34 CURVE SMOOTH",
"306 104 LINE"
);
},
{
closed = 1;
nodes = (
"499 299 LINE",
"357 299 LINE",
"428 507 LINE"
);
}
);
width = 850;
}
);
unicode = 0104;
},
{
color = 4;
glyphname = Aring;
lastChange = "2016-09-08 17:15:01 +0000";
layers = (
{
layerId = UUID0;
paths = (
{
closed = 1;
nodes = (
"306 104 LINE",
"281 34 LINE SMOOTH",
"275 18 OFFCURVE",
"263 0 OFFCURVE",
"236 0 CURVE SMOOTH",
"47 0 LINE SMOOTH",
"35 0 OFFCURVE",
"25 10 OFFCURVE",
"25 22 CURVE SMOOTH",
"25 23 OFFCURVE",
"25 25 OFFCURVE",
"26 28 CURVE SMOOTH",
"244 667 LINE",
"248 682 OFFCURVE",
"262 700 OFFCURVE",
"289 700 CURVE SMOOTH",
"567 700 LINE SMOOTH",
"594 700 OFFCURVE",
"608 682 OFFCURVE",
"612 667 CURVE",
"830 28 LINE SMOOTH",
"831 25 OFFCURVE",
"831 23 OFFCURVE",
"831 22 CURVE SMOOTH",
"831 10 OFFCURVE",
"821 0 OFFCURVE",
"809 0 CURVE SMOOTH",
"620 0 LINE SMOOTH",
"593 0 OFFCURVE",
"581 18 OFFCURVE",
"575 34 CURVE SMOOTH",
"550 104 LINE"
);
},
{
closed = 1;
nodes = (
"428 507 LINE",
"357 299 LINE",
"499 299 LINE"
);
},
{
closed = 1;
nodes = (
"393 800 OFFCURVE",
"407 807 OFFCURVE",
"424 807 CURVE SMOOTH",
"441 807 OFFCURVE",
"454 800 OFFCURVE",
"454 787 CURVE SMOOTH",
"454 774 OFFCURVE",
"441 767 OFFCURVE",
"424 767 CURVE SMOOTH",
"407 767 OFFCURVE",
"393 774 OFFCURVE",
"393 787 CURVE SMOOTH"
);
},
{
closed = 1;
nodes = (
"323 744 OFFCURVE",
"368 719 OFFCURVE",
"424 719 CURVE SMOOTH",
"480 719 OFFCURVE",
"525 744 OFFCURVE",
"525 787 CURVE SMOOTH",
"525 830 OFFCURVE",
"480 855 OFFCURVE",
"424 855 CURVE SMOOTH",
"368 855 OFFCURVE",
"323 830 OFFCURVE",
"323 787 CURVE SMOOTH"
);
}
);
width = 850;
}
);
unicode = 00C5;
},
{
color = 4;
glyphname = Atilde;
lastChange = "2016-09-08 17:15:01 +0000";
layers = (
{
layerId = UUID0;
paths = (
{
closed = 1;
nodes = (
"306 104 LINE",
"281 34 LINE SMOOTH",
"275 18 OFFCURVE",
"263 0 OFFCURVE",
"236 0 CURVE SMOOTH",
"47 0 LINE SMOOTH",
"35 0 OFFCURVE",
"25 10 OFFCURVE",
"25 22 CURVE SMOOTH",
"25 23 OFFCURVE",
"25 25 OFFCURVE",
"26 28 CURVE SMOOTH",
"244 667 LINE",
"248 682 OFFCURVE",
"262 700 OFFCURVE",
"289 700 CURVE SMOOTH",
"567 700 LINE SMOOTH",
"594 700 OFFCURVE",
"608 682 OFFCURVE",
"612 667 CURVE",
"830 28 LINE SMOOTH",
"831 25 OFFCURVE",
"831 23 OFFCURVE",
"831 22 CURVE SMOOTH",
"831 10 OFFCURVE",
"821 0 OFFCURVE",
"809 0 CURVE SMOOTH",
"620 0 LINE SMOOTH",
"593 0 OFFCURVE",
"581 18 OFFCURVE",
"575 34 CURVE SMOOTH",
"550 104 LINE"
);
},
{
closed = 1;
nodes = (
"428 507 LINE",
"357 299 LINE",
"499 299 LINE"
);
},
{
closed = 1;
nodes = (
"596 730 OFFCURVE",
"623 806 OFFCURVE",
"623 831 CURVE SMOOTH",
"623 841 OFFCURVE",
"616 850 OFFCURVE",
"604 850 CURVE SMOOTH",
"520 850 LINE SMOOTH",
"497 850 OFFCURVE",
"499 831 OFFCURVE",
"470 831 CURVE SMOOTH",
"437 831 OFFCURVE",
"414 855 OFFCURVE",
"362 855 CURVE SMOOTH",
"252 855 OFFCURVE",
"226 778 OFFCURVE",
"226 753 CURVE SMOOTH",
"226 743 OFFCURVE",
"235 735 OFFCURVE",
"245 735 CURVE SMOOTH",
"329 735 LINE SMOOTH",
"352 735 OFFCURVE",
"349 754 OFFCURVE",
"379 754 CURVE SMOOTH",
"412 754 OFFCURVE",
"435 730 OFFCURVE",
"487 730 CURVE SMOOTH"
);
}
);
width = 850;
}
);
unicode = 00C3;
},
{
color = 4;
glyphname = AE;
lastChange = "2016-09-08 17:15:01 +0000";
layers = (
{
layerId = UUID0;
paths = (
{
closed = 1;
nodes = (
"280 104 LINE",
"422 104 LINE",
"422 27 LINE SMOOTH",
"422 12 OFFCURVE",
"434 0 OFFCURVE",
"449 0 CURVE SMOOTH",
"814 0 LINE SMOOTH",
"829 0 OFFCURVE",
"841 12 OFFCURVE",
"841 27 CURVE SMOOTH",
"841 168 LINE SMOOTH",
"841 183 OFFCURVE",
"829 195 OFFCURVE",
"814 195 CURVE SMOOTH",
"672 195 LINE",
"672 258 LINE",
"780 258 LINE SMOOTH",
"795 258 OFFCURVE",
"807 270 OFFCURVE",
"807 285 CURVE SMOOTH",
"807 415 LINE SMOOTH",
"807 430 OFFCURVE",
"795 442 OFFCURVE",
"780 442 CURVE SMOOTH",
"672 442 LINE",
"672 505 LINE",
"804 505 LINE SMOOTH",
"819 505 OFFCURVE",
"831 517 OFFCURVE",
"831 532 CURVE SMOOTH",
"831 673 LINE SMOOTH",
"831 688 OFFCURVE",
"819 700 OFFCURVE",
"804 700 CURVE SMOOTH",
"283 700 LINE SMOOTH",
"256 700 OFFCURVE",
"243 682 OFFCURVE",
"238 667 CURVE SMOOTH",
"10 28 LINE SMOOTH",
"9 25 OFFCURVE",
"9 23 OFFCURVE",
"9 22 CURVE SMOOTH",
"9 10 OFFCURVE",
"19 0 OFFCURVE",
"31 0 CURVE SMOOTH",
"210 0 LINE SMOOTH",
"237 0 OFFCURVE",
"249 18 OFFCURVE",
"255 34 CURVE SMOOTH"
);
},
{
closed = 1;
nodes = (
"422 299 LINE",
"331 299 LINE",
"402 507 LINE",
"422 507 LINE"
);
}
);
width = 850;
}
);
unicode = 00C6;
},
{
color = 4;
glyphname = AEacute;
lastChange = "2016-09-08 17:15:01 +0000";
layers = (
{
layerId = UUID0;
paths = (
{
closed = 1;
nodes = (
"280 104 LINE",
"422 104 LINE",
"422 27 LINE SMOOTH",
"422 12 OFFCURVE",
"434 0 OFFCURVE",
"449 0 CURVE SMOOTH",
"814 0 LINE SMOOTH",
"829 0 OFFCURVE",
"841 12 OFFCURVE",
"841 27 CURVE SMOOTH",
"841 168 LINE SMOOTH",
"841 183 OFFCURVE",
"829 195 OFFCURVE",
"814 195 CURVE SMOOTH",
"672 195 LINE",
"672 258 LINE",
"780 258 LINE SMOOTH",
"795 258 OFFCURVE",
"807 270 OFFCURVE",
"807 285 CURVE SMOOTH",
"807 415 LINE SMOOTH",
"807 430 OFFCURVE",
"795 442 OFFCURVE",
"780 442 CURVE SMOOTH",
"672 442 LINE",
"672 505 LINE",
"804 505 LINE SMOOTH",
"819 505 OFFCURVE",
"831 517 OFFCURVE",
"831 532 CURVE SMOOTH",
"831 673 LINE SMOOTH",
"831 688 OFFCURVE",
"819 700 OFFCURVE",
"804 700 CURVE SMOOTH",
"283 700 LINE SMOOTH",
"256 700 OFFCURVE",
"243 682 OFFCURVE",
"238 667 CURVE SMOOTH",
"10 28 LINE SMOOTH",
"9 25 OFFCURVE",
"9 23 OFFCURVE",
"9 22 CURVE SMOOTH",
"9 10 OFFCURVE",
"19 0 OFFCURVE",
"31 0 CURVE SMOOTH",
"210 0 LINE SMOOTH",
"237 0 OFFCURVE",
"249 18 OFFCURVE",
"255 34 CURVE SMOOTH"
);
},
{
closed = 1;
nodes = (
"422 299 LINE",
"331 299 LINE",
"402 507 LINE",
"422 507 LINE"
);
},
{
closed = 1;
nodes = (
"401 760 LINE SMOOTH",
"398 757 OFFCURVE",
"396 752 OFFCURVE",
"396 747 CURVE SMOOTH",
"396 737 OFFCURVE",
"402 731 OFFCURVE",
"412 731 CURVE SMOOTH",
"533 731 LINE SMOOTH",
"537 731 OFFCURVE",
"541 731 OFFCURVE",
"545 731 CURVE SMOOTH",
"555 731 OFFCURVE",
"565 732 OFFCURVE",
"573 738 CURVE SMOOTH",
"668 818 LINE SMOOTH",
"671 821 OFFCURVE",
"673 825 OFFCURVE",
"673 830 CURVE SMOOTH",
"673 842 OFFCURVE",
"666 850 OFFCURVE",
"654 850 CURVE SMOOTH",
"496 850 LINE",
"481 849 OFFCURVE",
"473 848 OFFCURVE",
"459 831 CURVE SMOOTH"
);
}
);
width = 850;
}
);
unicode = 01FC;
},
{
color = 4;
glyphname = B;
lastChange = "2016-09-08 17:15:01 +0000";
layers = (
{
layerId = UUID0;
paths = (
{
closed = 1;
nodes = (
"740 375 OFFCURVE",
"791 419 OFFCURVE",
"791 490 CURVE SMOOTH",
"791 493 LINE SMOOTH",
"791 630 OFFCURVE",
"705 700 OFFCURVE",
"514 700 CURVE SMOOTH",
"112 700 LINE SMOOTH",
"97 700 OFFCURVE",
"85 688 OFFCURVE",
"85 673 CURVE SMOOTH",
"85 27 LINE SMOOTH",
"85 12 OFFCURVE",
"97 0 OFFCURVE",
"112 0 CURVE SMOOTH",
"524 0 LINE SMOOTH",
"705 0 OFFCURVE",
"806 70 OFFCURVE",
"806 220 CURVE",
"806 220 LINE",
"806 291 OFFCURVE",
"762 350 OFFCURVE",
"711 365 CURVE"
);
},
{
closed = 1;
nodes = (
"345 270 LINE",
"490 270 LINE SMOOTH",
"520 270 OFFCURVE",
"536 247 OFFCURVE",
"536 223 CURVE",
"536 222 LINE",
"536 201 OFFCURVE",
"523 172 OFFCURVE",
"490 172 CURVE SMOOTH",
"345 172 LINE"
);
},
{
closed = 1;
nodes = (
"520 463 OFFCURVE",
"508 437 OFFCURVE",
"479 437 CURVE SMOOTH",
"345 437 LINE",
"345 528 LINE",
"479 528 LINE SMOOTH",
"508 528 OFFCURVE",
"520 505 OFFCURVE",
"520 484 CURVE SMOOTH"
);
}
);
width = 850;
}
);
unicode = 0042;
},
{
color = 4;
glyphname = C;
lastChange = "2016-09-08 17:15:01 +0000";
layers = (
{
layerId = UUID0;
paths = (
{
closed = 1;
nodes = (
"333 430 LINE SMOOTH",
"333 485 OFFCURVE",
"374 515 OFFCURVE",
"435 515 CURVE SMOOTH",
"496 515 OFFCURVE",
"515 490 OFFCURVE",
"531 459 CURVE SMOOTH",
"539 443 OFFCURVE",
"549 433 OFFCURVE",
"566 433 CURVE SMOOTH",
"782 433 LINE SMOOTH",
"794 433 OFFCURVE",
"804 443 OFFCURVE",
"804 455 CURVE SMOOTH",
"804 569 OFFCURVE",
"689 710 OFFCURVE",
"435 710 CURVE SMOOTH",
"229 710 OFFCURVE",
"63 619 OFFCURVE",
"63 409 CURVE SMOOTH",
"63 291 LINE SMOOTH",
"63 81 OFFCURVE",
"229 -10 OFFCURVE",
"435 -10 CURVE SMOOTH",
"689 -10 OFFCURVE",
"804 131 OFFCURVE",
"804 245 CURVE SMOOTH",
"804 257 OFFCURVE",
"794 267 OFFCURVE",
"782 267 CURVE SMOOTH",
"566 267 LINE SMOOTH",
"549 267 OFFCURVE",
"539 257 OFFCURVE",
"531 241 CURVE SMOOTH",
"515 210 OFFCURVE",
"496 185 OFFCURVE",
"435 185 CURVE SMOOTH",
"374 185 OFFCURVE",
"333 215 OFFCURVE",
"333 270 CURVE SMOOTH"
);
}
);
width = 850;
}
);
unicode = 0043;
},
{
color = 4;
glyphname = Cacute;
lastChange = "2016-09-08 17:15:01 +0000";
layers = (
{
layerId = UUID0;
paths = (
{
closed = 1;
nodes = (
"333 430 LINE SMOOTH",
"333 485 OFFCURVE",
"374 515 OFFCURVE",
"435 515 CURVE SMOOTH",
"496 515 OFFCURVE",
"515 490 OFFCURVE",
"531 459 CURVE SMOOTH",
"539 443 OFFCURVE",
"549 433 OFFCURVE",
"566 433 CURVE SMOOTH",
"782 433 LINE SMOOTH",
"794 433 OFFCURVE",
"804 443 OFFCURVE",
"804 455 CURVE SMOOTH",
"804 569 OFFCURVE",
"689 710 OFFCURVE",
"435 710 CURVE SMOOTH",
"229 710 OFFCURVE",
"63 619 OFFCURVE",
"63 409 CURVE SMOOTH",
"63 291 LINE SMOOTH",
"63 81 OFFCURVE",
"229 -10 OFFCURVE",
"435 -10 CURVE SMOOTH",
"689 -10 OFFCURVE",
"804 131 OFFCURVE",
"804 245 CURVE SMOOTH",
"804 257 OFFCURVE",
"794 267 OFFCURVE",
"782 267 CURVE SMOOTH",
"566 267 LINE SMOOTH",
"549 267 OFFCURVE",
"539 257 OFFCURVE",
"531 241 CURVE SMOOTH",
"515 210 OFFCURVE",
"496 185 OFFCURVE",
"435 185 CURVE SMOOTH",
"374 185 OFFCURVE",
"333 215 OFFCURVE",
"333 270 CURVE SMOOTH"
);
},
{
closed = 1;
nodes = (
"339 760 LINE SMOOTH",
"336 757 OFFCURVE",
"334 752 OFFCURVE",
"334 747 CURVE SMOOTH",
"334 737 OFFCURVE",
"340 731 OFFCURVE",
"350 731 CURVE SMOOTH",
"471 731 LINE SMOOTH",
"475 731 OFFCURVE",
"479 731 OFFCURVE",
"483 731 CURVE SMOOTH",
"493 731 OFFCURVE",
"503 732 OFFCURVE",
"511 738 CURVE SMOOTH",
"606 818 LINE SMOOTH",
"609 821 OFFCURVE",
"611 825 OFFCURVE",
"611 830 CURVE SMOOTH",
"611 842 OFFCURVE",
"604 850 OFFCURVE",
"592 850 CURVE SMOOTH",
"434 850 LINE",
"419 849 OFFCURVE",
"411 848 OFFCURVE",
"397 831 CURVE SMOOTH"
);
}
);
width = 850;
}
);
unicode = 0106;
},
{
color = 4;
glyphname = Ccaron;
lastChange = "2016-09-08 17:15:01 +0000";
layers = (
{
layerId = UUID0;
paths = (
{
closed = 1;
nodes = (
"333 430 LINE SMOOTH",
"333 485 OFFCURVE",
"374 515 OFFCURVE",
"435 515 CURVE SMOOTH",
"496 515 OFFCURVE",
"515 490 OFFCURVE",
"531 459 CURVE SMOOTH",
"539 443 OFFCURVE",
"549 433 OFFCURVE",
"566 433 CURVE SMOOTH",
"782 433 LINE SMOOTH",
"794 433 OFFCURVE",
"804 443 OFFCURVE",
"804 455 CURVE SMOOTH",
"804 569 OFFCURVE",
"689 710 OFFCURVE",
"435 710 CURVE SMOOTH",
"229 710 OFFCURVE",
"63 619 OFFCURVE",
"63 409 CURVE SMOOTH",
"63 291 LINE SMOOTH",
"63 81 OFFCURVE",
"229 -10 OFFCURVE",
"435 -10 CURVE SMOOTH",
"689 -10 OFFCURVE",
"804 131 OFFCURVE",
"804 245 CURVE SMOOTH",
"804 257 OFFCURVE",
"794 267 OFFCURVE",
"782 267 CURVE SMOOTH",
"566 267 LINE SMOOTH",
"549 267 OFFCURVE",
"539 257 OFFCURVE",
"531 241 CURVE SMOOTH",
"515 210 OFFCURVE",
"496 185 OFFCURVE",
"435 185 CURVE SMOOTH",
"374 185 OFFCURVE",
"333 215 OFFCURVE",
"333 270 CURVE SMOOTH"
);
},
{
closed = 1;
nodes = (
"429 821 LINE",
"372 843 LINE",
"356 848 OFFCURVE",
"345 850 OFFCURVE",
"332 850 CURVE SMOOTH",
"251 850 LINE SMOOTH",
"242 850 OFFCURVE",
"235 843 OFFCURVE",
"235 834 CURVE SMOOTH",
"235 826 OFFCURVE",
"240 822 OFFCURVE",
"243 820 CURVE SMOOTH",
"326 750 LINE",
"347 735 OFFCURVE",
"358 731 OFFCURVE",
"373 731 CURVE SMOOTH",
"485 731 LINE SMOOTH",
"500 731 OFFCURVE",
"511 735 OFFCURVE",
"532 750 CURVE",
"615 820 LINE SMOOTH",
"618 822 OFFCURVE",
"623 826 OFFCURVE",
"623 834 CURVE SMOOTH",
"623 843 OFFCURVE",
"616 850 OFFCURVE",
"607 850 CURVE SMOOTH",
"526 850 LINE SMOOTH",
"513 850 OFFCURVE",
"502 848 OFFCURVE",
"486 843 CURVE"
);
}
);
width = 850;
}
);
unicode = 010C;
},
{
color = 4;
glyphname = Ccedilla;
lastChange = "2016-09-08 17:15:01 +0000";
layers = (
{
layerId = UUID0;
paths = (
{
closed = 1;
nodes = (
"333 430 LINE SMOOTH",
"333 485 OFFCURVE",
"374 515 OFFCURVE",
"435 515 CURVE SMOOTH",
"496 515 OFFCURVE",
"515 490 OFFCURVE",
"531 459 CURVE SMOOTH",
"539 443 OFFCURVE",
"549 433 OFFCURVE",
"566 433 CURVE SMOOTH",
"782 433 LINE SMOOTH",
"794 433 OFFCURVE",
"804 443 OFFCURVE",
"804 455 CURVE SMOOTH",
"804 569 OFFCURVE",
"689 710 OFFCURVE",
"435 710 CURVE SMOOTH",
"229 710 OFFCURVE",
"63 619 OFFCURVE",
"63 409 CURVE SMOOTH",
"63 291 LINE SMOOTH",
"63 101 OFFCURVE",
"199 8 OFFCURVE",
"378 -7 CURVE",
"363 -53 LINE SMOOTH",
"362 -56 OFFCURVE",
"361 -59 OFFCURVE",
"361 -62 CURVE SMOOTH",
"361 -70 OFFCURVE",
"366 -75 OFFCURVE",
"376 -75 CURVE SMOOTH",
"420 -75 LINE SMOOTH",
"439 -75 OFFCURVE",
"441 -66 OFFCURVE",
"468 -66 CURVE SMOOTH",
"488 -66 OFFCURVE",
"496 -73 OFFCURVE",
"496 -83 CURVE SMOOTH",
"496 -93 OFFCURVE",
"488 -102 OFFCURVE",
"467 -102 CURVE SMOOTH",
"432 -102 OFFCURVE",
"440 -89 OFFCURVE",
"415 -89 CURVE SMOOTH",
"354 -89 LINE SMOOTH",
"347 -89 OFFCURVE",
"341 -92 OFFCURVE",
"341 -100 CURVE SMOOTH",
"341 -134 OFFCURVE",
"407 -150 OFFCURVE",
"467 -150 CURVE SMOOTH",
"518 -150 OFFCURVE",
"583 -133 OFFCURVE",
"583 -83 CURVE SMOOTH",
"583 -43 OFFCURVE",
"543 -22 OFFCURVE",
"492 -22 CURVE SMOOTH",
"485 -22 OFFCURVE",
"464 -22 OFFCURVE",
"455 -26 CURVE",
"461 -9 LINE",
"697 0 OFFCURVE",
"804 135 OFFCURVE",
"804 245 CURVE SMOOTH",
"804 257 OFFCURVE",
"794 267 OFFCURVE",
"782 267 CURVE SMOOTH",
"566 267 LINE SMOOTH",
"549 267 OFFCURVE",
"539 257 OFFCURVE",
"531 241 CURVE SMOOTH",
"515 210 OFFCURVE",
"496 185 OFFCURVE",
"435 185 CURVE SMOOTH",
"374 185 OFFCURVE",
"333 215 OFFCURVE",
"333 270 CURVE SMOOTH"
);
}
);
width = 850;
}
);
unicode = 00C7;
},
{
color = 4;
glyphname = Ccircumflex;
lastChange = "2016-09-08 17:15:01 +0000";
layers = (
{
layerId = UUID0;
paths = (
{
closed = 1;
nodes = (
"333 430 LINE SMOOTH",
"333 485 OFFCURVE",
"374 515 OFFCURVE",
"435 515 CURVE SMOOTH",
"496 515 OFFCURVE",
"515 490 OFFCURVE",
"531 459 CURVE SMOOTH",
"539 443 OFFCURVE",
"549 433 OFFCURVE",
"566 433 CURVE SMOOTH",
"782 433 LINE SMOOTH",
"794 433 OFFCURVE",
"804 443 OFFCURVE",
"804 455 CURVE SMOOTH",
"804 569 OFFCURVE",
"689 710 OFFCURVE",
"435 710 CURVE SMOOTH",
"229 710 OFFCURVE",
"63 619 OFFCURVE",
"63 409 CURVE SMOOTH",
"63 291 LINE SMOOTH",
"63 81 OFFCURVE",
"229 -10 OFFCURVE",
"435 -10 CURVE SMOOTH",
"689 -10 OFFCURVE",
"804 131 OFFCURVE",
"804 245 CURVE SMOOTH",
"804 257 OFFCURVE",
"794 267 OFFCURVE",
"782 267 CURVE SMOOTH",
"566 267 LINE SMOOTH",
"549 267 OFFCURVE",
"539 257 OFFCURVE",
"531 241 CURVE SMOOTH",
"515 210 OFFCURVE",
"496 185 OFFCURVE",
"435 185 CURVE SMOOTH",
"374 185 OFFCURVE",
"333 215 OFFCURVE",
"333 270 CURVE SMOOTH"
);
},
{
closed = 1;
nodes = (
"432 760 LINE",
"489 738 LINE",
"505 733 OFFCURVE",
"516 731 OFFCURVE",
"529 731 CURVE SMOOTH",
"610 731 LINE SMOOTH",
"619 731 OFFCURVE",
"626 738 OFFCURVE",
"626 747 CURVE SMOOTH",
"626 755 OFFCURVE",
"621 759 OFFCURVE",
"618 761 CURVE SMOOTH",
"535 831 LINE",
"514 846 OFFCURVE",
"503 850 OFFCURVE",
"488 850 CURVE SMOOTH",
"376 850 LINE SMOOTH",
"361 850 OFFCURVE",
"350 846 OFFCURVE",
"329 831 CURVE",
"246 761 LINE SMOOTH",
"243 759 OFFCURVE",
"238 755 OFFCURVE",
"238 747 CURVE SMOOTH",
"238 738 OFFCURVE",
"245 731 OFFCURVE",
"254 731 CURVE SMOOTH",
"335 731 LINE SMOOTH",
"348 731 OFFCURVE",
"359 733 OFFCURVE",
"375 738 CURVE"
);
}
);
width = 850;
}
);
unicode = 0108;
},
{
color = 4;
glyphname = Cdotaccent;
lastChange = "2016-09-08 17:15:01 +0000";
layers = (
{
layerId = UUID0;
paths = (
{
closed = 1;
nodes = (
"333 430 LINE SMOOTH",
"333 485 OFFCURVE",
"374 515 OFFCURVE",
"435 515 CURVE SMOOTH",
"496 515 OFFCURVE",
"515 490 OFFCURVE",
"531 459 CURVE SMOOTH",
"539 443 OFFCURVE",
"549 433 OFFCURVE",
"566 433 CURVE SMOOTH",
"782 433 LINE SMOOTH",
"794 433 OFFCURVE",
"804 443 OFFCURVE",
"804 455 CURVE SMOOTH",
"804 569 OFFCURVE",
"689 710 OFFCURVE",
"435 710 CURVE SMOOTH",
"229 710 OFFCURVE",
"63 619 OFFCURVE",
"63 409 CURVE SMOOTH",
"63 291 LINE SMOOTH",
"63 81 OFFCURVE",
"229 -10 OFFCURVE",
"435 -10 CURVE SMOOTH",
"689 -10 OFFCURVE",
"804 131 OFFCURVE",
"804 245 CURVE SMOOTH",
"804 257 OFFCURVE",
"794 267 OFFCURVE",
"782 267 CURVE SMOOTH",
"566 267 LINE SMOOTH",
"549 267 OFFCURVE",
"539 257 OFFCURVE",
"531 241 CURVE SMOOTH",
"515 210 OFFCURVE",
"496 185 OFFCURVE",
"435 185 CURVE SMOOTH",
"374 185 OFFCURVE",
"333 215 OFFCURVE",
"333 270 CURVE SMOOTH"
);
},
{
closed = 1;
nodes = (
"359 850 LINE SMOOTH",
"346 850 OFFCURVE",
"336 840 OFFCURVE",
"336 827 CURVE SMOOTH",
"336 754 LINE SMOOTH",
"336 741 OFFCURVE",
"346 731 OFFCURVE",
"359 731 CURVE SMOOTH",
"495 731 LINE SMOOTH",
"508 731 OFFCURVE",
"518 741 OFFCURVE",
"518 754 CURVE SMOOTH",
"518 827 LINE SMOOTH",
"518 840 OFFCURVE",
"508 850 OFFCURVE",
"495 850 CURVE SMOOTH"
);
}
);
width = 850;
}
);
unicode = 010A;
},
{
color = 4;
glyphname = D;
lastChange = "2016-09-08 17:15:01 +0000";
layers = (
{
layerId = UUID0;
paths = (
{
closed = 1;
nodes = (
"103 700 LINE SMOOTH",
"88 700 OFFCURVE",
"76 688 OFFCURVE",
"76 673 CURVE SMOOTH",
"76 27 LINE SMOOTH",
"76 12 OFFCURVE",
"88 0 OFFCURVE",
"103 0 CURVE SMOOTH",
"422 0 LINE SMOOTH",
"633 0 OFFCURVE",
"794 79 OFFCURVE",
"794 299 CURVE SMOOTH",
"794 401 LINE SMOOTH",
"794 615 OFFCURVE",
"633 700 OFFCURVE",
"422 700 CURVE SMOOTH"
);
},
{
closed = 1;
nodes = (
"336 505 LINE",
"427 505 LINE SMOOTH",
"488 505 OFFCURVE",
"529 475 OFFCURVE",
"529 419 CURVE SMOOTH",
"529 281 LINE SMOOTH",
"529 225 OFFCURVE",
"488 195 OFFCURVE",
"427 195 CURVE SMOOTH",
"336 195 LINE"
);
}
);
width = 850;
}
);
unicode = 0044;
},
{
color = 4;
glyphname = Eth;
lastChange = "2016-09-08 17:15:01 +0000";
layers = (
{
layerId = UUID0;
paths = (
{
closed = 1;
nodes = (
"103 700 LINE SMOOTH",
"88 700 OFFCURVE",
"76 688 OFFCURVE",
"76 673 CURVE SMOOTH",
"76 429 LINE",
"27 429 LINE SMOOTH",
"12 429 OFFCURVE",
"0 417 OFFCURVE",
"0 402 CURVE SMOOTH",
"0 301 LINE SMOOTH",
"0 286 OFFCURVE",
"12 274 OFFCURVE",
"27 274 CURVE SMOOTH",
"76 274 LINE",
"76 27 LINE SMOOTH",
"76 12 OFFCURVE",
"88 0 OFFCURVE",
"103 0 CURVE SMOOTH",
"422 0 LINE SMOOTH",
"633 0 OFFCURVE",
"794 79 OFFCURVE",
"794 299 CURVE SMOOTH",
"794 401 LINE SMOOTH",
"794 615 OFFCURVE",
"633 700 OFFCURVE",
"422 700 CURVE SMOOTH"
);
},
{
closed = 1;
nodes = (
"336 505 LINE",
"427 505 LINE SMOOTH",
"488 505 OFFCURVE",
"529 475 OFFCURVE",
"529 419 CURVE SMOOTH",
"529 281 LINE SMOOTH",
"529 225 OFFCURVE",
"488 195 OFFCURVE",
"427 195 CURVE SMOOTH",
"336 195 LINE",
"336 274 LINE",
"421 274 LINE SMOOTH",
"436 274 OFFCURVE",
"448 286 OFFCURVE",
"448 301 CURVE SMOOTH",
"448 402 LINE SMOOTH",
"448 417 OFFCURVE",
"436 429 OFFCURVE",
"421 429 CURVE SMOOTH",
"336 429 LINE"
);
}
);
width = 850;
}
);
unicode = 00D0;
},
{
color = 4;
glyphname = Dcaron;
lastChange = "2016-09-08 17:15:01 +0000";
layers = (
{
layerId = UUID0;
paths = (
{
closed = 1;
nodes = (
"103 700 LINE SMOOTH",
"88 700 OFFCURVE",
"76 688 OFFCURVE",
"76 673 CURVE SMOOTH",
"76 27 LINE SMOOTH",
"76 12 OFFCURVE",
"88 0 OFFCURVE",
"103 0 CURVE SMOOTH",
"422 0 LINE SMOOTH",
"633 0 OFFCURVE",
"794 79 OFFCURVE",
"794 299 CURVE SMOOTH",
"794 401 LINE SMOOTH",
"794 615 OFFCURVE",
"633 700 OFFCURVE",
"422 700 CURVE SMOOTH"
);
},
{
closed = 1;
nodes = (
"336 505 LINE",
"427 505 LINE SMOOTH",
"488 505 OFFCURVE",
"529 475 OFFCURVE",
"529 419 CURVE SMOOTH",
"529 281 LINE SMOOTH",
"529 225 OFFCURVE",
"488 195 OFFCURVE",
"427 195 CURVE SMOOTH",
"336 195 LINE"
);
},
{
closed = 1;
nodes = (
"385 821 LINE",
"328 843 LINE",
"312 848 OFFCURVE",
"301 850 OFFCURVE",
"288 850 CURVE SMOOTH",
"207 850 LINE SMOOTH",
"198 850 OFFCURVE",
"191 843 OFFCURVE",
"191 834 CURVE SMOOTH",
"191 826 OFFCURVE",
"196 822 OFFCURVE",
"199 820 CURVE SMOOTH",
"282 750 LINE",
"303 735 OFFCURVE",
"314 731 OFFCURVE",
"329 731 CURVE SMOOTH",
"441 731 LINE SMOOTH",
"456 731 OFFCURVE",
"467 735 OFFCURVE",
"488 750 CURVE",
"571 820 LINE SMOOTH",
"574 822 OFFCURVE",
"579 826 OFFCURVE",
"579 834 CURVE SMOOTH",
"579 843 OFFCURVE",
"572 850 OFFCURVE",
"563 850 CURVE SMOOTH",
"482 850 LINE SMOOTH",
"469 850 OFFCURVE",
"458 848 OFFCURVE",
"442 843 CURVE"
);
}
);
width = 850;
}
);
unicode = 010E;
},
{
color = 4;
glyphname = Dcroat;
lastChange = "2016-09-08 17:15:01 +0000";
layers = (
{
layerId = UUID0;
paths = (
{
closed = 1;
nodes = (
"103 700 LINE SMOOTH",
"88 700 OFFCURVE",
"76 688 OFFCURVE",
"76 673 CURVE SMOOTH",
"76 429 LINE",
"27 429 LINE SMOOTH",
"12 429 OFFCURVE",
"0 417 OFFCURVE",
"0 402 CURVE SMOOTH",
"0 301 LINE SMOOTH",
"0 286 OFFCURVE",
"12 274 OFFCURVE",
"27 274 CURVE SMOOTH",
"76 274 LINE",
"76 27 LINE SMOOTH",
"76 12 OFFCURVE",
"88 0 OFFCURVE",
"103 0 CURVE SMOOTH",
"422 0 LINE SMOOTH",
"633 0 OFFCURVE",
"794 79 OFFCURVE",
"794 299 CURVE SMOOTH",
"794 401 LINE SMOOTH",
"794 615 OFFCURVE",
"633 700 OFFCURVE",
"422 700 CURVE SMOOTH"
);
},
{
closed = 1;
nodes = (
"336 505 LINE",
"427 505 LINE SMOOTH",
"488 505 OFFCURVE",
"529 475 OFFCURVE",
"529 419 CURVE SMOOTH",
"529 281 LINE SMOOTH",
"529 225 OFFCURVE",
"488 195 OFFCURVE",
"427 195 CURVE SMOOTH",
"336 195 LINE",
"336 274 LINE",
"371 274 LINE SMOOTH",
"386 274 OFFCURVE",
"398 286 OFFCURVE",
"398 301 CURVE SMOOTH",
"398 402 LINE SMOOTH",
"398 417 OFFCURVE",
"386 429 OFFCURVE",
"371 429 CURVE SMOOTH",
"336 429 LINE"
);
}
);
width = 850;
}
);
unicode = 0110;
},
{
color = 4;
glyphname = E;
lastChange = "2016-09-08 17:15:01 +0000";
layers = (
{
layerId = UUID0;
paths = (
{
closed = 1;
nodes = (
"350 195 LINE",
"350 258 LINE",
"684 258 LINE SMOOTH",
"699 258 OFFCURVE",
"711 270 OFFCURVE",
"711 285 CURVE SMOOTH",
"711 415 LINE SMOOTH",
"711 430 OFFCURVE",
"699 442 OFFCURVE",
"684 442 CURVE SMOOTH",
"350 442 LINE",
"350 505 LINE",
"739 505 LINE SMOOTH",
"754 505 OFFCURVE",
"766 517 OFFCURVE",
"766 532 CURVE SMOOTH",
"766 673 LINE SMOOTH",
"766 688 OFFCURVE",
"754 700 OFFCURVE",
"739 700 CURVE SMOOTH",
"117 700 LINE SMOOTH",
"102 700 OFFCURVE",
"90 688 OFFCURVE",
"90 673 CURVE SMOOTH",
"90 27 LINE SMOOTH",
"90 12 OFFCURVE",
"102 0 OFFCURVE",
"117 0 CURVE SMOOTH",
"749 0 LINE SMOOTH",
"764 0 OFFCURVE",
"776 12 OFFCURVE",
"776 27 CURVE SMOOTH",
"776 168 LINE SMOOTH",
"776 183 OFFCURVE",
"764 195 OFFCURVE",
"749 195 CURVE SMOOTH"
);
}
);
width = 850;
}
);
unicode = 0045;
},
{
color = 4;
glyphname = Eacute;
lastChange = "2016-09-08 17:15:01 +0000";
layers = (
{
layerId = UUID0;
paths = (
{
closed = 1;
nodes = (
"348 764 LINE SMOOTH",
"345 761 OFFCURVE",
"343 756 OFFCURVE",
"343 751 CURVE SMOOTH",
"343 741 OFFCURVE",
"349 735 OFFCURVE",
"359 735 CURVE SMOOTH",
"480 735 LINE SMOOTH",
"484 735 OFFCURVE",
"488 735 OFFCURVE",
"492 735 CURVE SMOOTH",
"502 735 OFFCURVE",
"512 736 OFFCURVE",
"520 742 CURVE SMOOTH",
"615 822 LINE SMOOTH",
"618 825 OFFCURVE",
"620 829 OFFCURVE",
"620 834 CURVE SMOOTH",
"620 846 OFFCURVE",
"613 854 OFFCURVE",
"601 854 CURVE SMOOTH",
"443 854 LINE",
"428 853 OFFCURVE",
"420 852 OFFCURVE",
"406 835 CURVE SMOOTH"
);
},
{
closed = 1;
nodes = (
"360 195 LINE",
"360 258 LINE",
"694 258 LINE SMOOTH",
"709 258 OFFCURVE",
"721 270 OFFCURVE",
"721 285 CURVE SMOOTH",
"721 415 LINE SMOOTH",
"721 430 OFFCURVE",
"709 442 OFFCURVE",
"694 442 CURVE SMOOTH",
"360 442 LINE",
"360 505 LINE",
"749 505 LINE SMOOTH",
"764 505 OFFCURVE",
"776 517 OFFCURVE",
"776 532 CURVE SMOOTH",
"776 673 LINE SMOOTH",
"776 688 OFFCURVE",
"764 700 OFFCURVE",
"749 700 CURVE SMOOTH",
"127 700 LINE SMOOTH",
"112 700 OFFCURVE",
"100 688 OFFCURVE",
"100 673 CURVE SMOOTH",
"100 27 LINE SMOOTH",
"100 12 OFFCURVE",
"112 0 OFFCURVE",
"127 0 CURVE SMOOTH",
"759 0 LINE SMOOTH",
"774 0 OFFCURVE",
"786 12 OFFCURVE",
"786 27 CURVE SMOOTH",
"786 168 LINE SMOOTH",
"786 183 OFFCURVE",
"774 195 OFFCURVE",
"759 195 CURVE SMOOTH"
);
}
);
width = 850;
}
);
unicode = 00C9;
},
{
color = 4;
glyphname = Ebreve;
lastChange = "2016-09-08 17:15:01 +0000";
layers = (
{
layerId = UUID0;
paths = (
{
closed = 1;
nodes = (
"350 195 LINE",
"350 258 LINE",
"684 258 LINE SMOOTH",
"699 258 OFFCURVE",
"711 270 OFFCURVE",
"711 285 CURVE SMOOTH",
"711 415 LINE SMOOTH",
"711 430 OFFCURVE",
"699 442 OFFCURVE",
"684 442 CURVE SMOOTH",
"350 442 LINE",
"350 505 LINE",
"739 505 LINE SMOOTH",
"754 505 OFFCURVE",
"766 517 OFFCURVE",
"766 532 CURVE SMOOTH",
"766 673 LINE SMOOTH",
"766 688 OFFCURVE",
"754 700 OFFCURVE",
"739 700 CURVE SMOOTH",
"117 700 LINE SMOOTH",
"102 700 OFFCURVE",
"90 688 OFFCURVE",
"90 673 CURVE SMOOTH",
"90 27 LINE SMOOTH",
"90 12 OFFCURVE",
"102 0 OFFCURVE",
"117 0 CURVE SMOOTH",
"749 0 LINE SMOOTH",
"764 0 OFFCURVE",
"776 12 OFFCURVE",
"776 27 CURVE SMOOTH",
"776 168 LINE SMOOTH",
"776 183 OFFCURVE",
"764 195 OFFCURVE",
"749 195 CURVE SMOOTH"
);
},
{
closed = 1;
nodes = (
"471 833 OFFCURVE",
"464 817 OFFCURVE",
"434 817 CURVE SMOOTH",
"404 817 OFFCURVE",
"396 834 OFFCURVE",
"394 842 CURVE SMOOTH",
"392 849 OFFCURVE",
"387 855 OFFCURVE",
"375 855 CURVE SMOOTH",
"276 855 LINE SMOOTH",
"264 855 OFFCURVE",
"257 849 OFFCURVE",
"257 842 CURVE SMOOTH",
"257 784 OFFCURVE",
"314 730 OFFCURVE",
"434 730 CURVE SMOOTH",
"555 730 OFFCURVE",
"612 784 OFFCURVE",
"612 842 CURVE SMOOTH",
"612 849 OFFCURVE",
"605 855 OFFCURVE",
"593 855 CURVE SMOOTH",
"494 855 LINE SMOOTH",
"482 855 OFFCURVE",
"478 848 OFFCURVE",
"475 842 CURVE SMOOTH"
);
}
);
width = 850;
}
);
unicode = 0114;
},
{
color = 4;
glyphname = Ecaron;
lastChange = "2016-09-08 17:15:01 +0000";
layers = (
{
layerId = UUID0;
paths = (
{
closed = 1;
nodes = (
"350 195 LINE",
"350 258 LINE",
"684 258 LINE SMOOTH",
"699 258 OFFCURVE",
"711 270 OFFCURVE",
"711 285 CURVE SMOOTH",
"711 415 LINE SMOOTH",
"711 430 OFFCURVE",
"699 442 OFFCURVE",
"684 442 CURVE SMOOTH",
"350 442 LINE",
"350 505 LINE",
"739 505 LINE SMOOTH",
"754 505 OFFCURVE",
"766 517 OFFCURVE",
"766 532 CURVE SMOOTH",
"766 673 LINE SMOOTH",
"766 688 OFFCURVE",
"754 700 OFFCURVE",
"739 700 CURVE SMOOTH",
"117 700 LINE SMOOTH",
"102 700 OFFCURVE",
"90 688 OFFCURVE",
"90 673 CURVE SMOOTH",
"90 27 LINE SMOOTH",
"90 12 OFFCURVE",
"102 0 OFFCURVE",
"117 0 CURVE SMOOTH",
"749 0 LINE SMOOTH",
"764 0 OFFCURVE",
"776 12 OFFCURVE",
"776 27 CURVE SMOOTH",
"776 168 LINE SMOOTH",
"776 183 OFFCURVE",
"764 195 OFFCURVE",
"749 195 CURVE SMOOTH"
);
},
{
closed = 1;
nodes = (
"425 821 LINE",
"368 843 LINE",
"352 848 OFFCURVE",
"341 850 OFFCURVE",
"328 850 CURVE SMOOTH",
"247 850 LINE SMOOTH",
"238 850 OFFCURVE",
"231 843 OFFCURVE",
"231 834 CURVE SMOOTH",
"231 826 OFFCURVE",
"236 822 OFFCURVE",
"239 820 CURVE SMOOTH",
"322 750 LINE",
"343 735 OFFCURVE",
"354 731 OFFCURVE",
"369 731 CURVE SMOOTH",
"481 731 LINE SMOOTH",
"496 731 OFFCURVE",
"507 735 OFFCURVE",
"528 750 CURVE",
"611 820 LINE SMOOTH",
"614 822 OFFCURVE",
"619 826 OFFCURVE",
"619 834 CURVE SMOOTH",
"619 843 OFFCURVE",
"612 850 OFFCURVE",
"603 850 CURVE SMOOTH",
"522 850 LINE SMOOTH",
"509 850 OFFCURVE",
"498 848 OFFCURVE",
"482 843 CURVE"
);
}
);
width = 850;
}
);
unicode = 011A;
},
{
color = 4;
glyphname = Ecircumflex;
lastChange = "2016-09-08 17:15:01 +0000";
layers = (
{
layerId = UUID0;
paths = (
{
closed = 1;
nodes = (
"360 195 LINE",
"360 258 LINE",
"694 258 LINE SMOOTH",
"709 258 OFFCURVE",
"721 270 OFFCURVE",
"721 285 CURVE SMOOTH",
"721 415 LINE SMOOTH",
"721 430 OFFCURVE",
"709 442 OFFCURVE",
"694 442 CURVE SMOOTH",
"360 442 LINE",
"360 505 LINE",
"749 505 LINE SMOOTH",
"764 505 OFFCURVE",
"776 517 OFFCURVE",
"776 532 CURVE SMOOTH",
"776 673 LINE SMOOTH",
"776 688 OFFCURVE",
"764 700 OFFCURVE",
"749 700 CURVE SMOOTH",
"127 700 LINE SMOOTH",
"112 700 OFFCURVE",
"100 688 OFFCURVE",
"100 673 CURVE SMOOTH",
"100 27 LINE SMOOTH",
"100 12 OFFCURVE",
"112 0 OFFCURVE",
"127 0 CURVE SMOOTH",
"759 0 LINE SMOOTH",
"774 0 OFFCURVE",
"786 12 OFFCURVE",
"786 27 CURVE SMOOTH",
"786 168 LINE SMOOTH",
"786 183 OFFCURVE",
"774 195 OFFCURVE",
"759 195 CURVE SMOOTH"
);
},
{
closed = 1;
nodes = (
"424 760 LINE",
"481 738 LINE",
"497 733 OFFCURVE",
"508 731 OFFCURVE",
"521 731 CURVE SMOOTH",
"602 731 LINE SMOOTH",
"611 731 OFFCURVE",
"618 738 OFFCURVE",
"618 747 CURVE SMOOTH",
"618 755 OFFCURVE",
"613 759 OFFCURVE",
"610 761 CURVE SMOOTH",
"527 831 LINE",
"506 846 OFFCURVE",
"495 850 OFFCURVE",
"480 850 CURVE SMOOTH",
"368 850 LINE SMOOTH",
"353 850 OFFCURVE",
"342 846 OFFCURVE",
"321 831 CURVE",
"238 761 LINE SMOOTH",
"235 759 OFFCURVE",
"230 755 OFFCURVE",
"230 747 CURVE SMOOTH",
"230 738 OFFCURVE",
"237 731 OFFCURVE",
"246 731 CURVE SMOOTH",
"327 731 LINE SMOOTH",
"340 731 OFFCURVE",
"351 733 OFFCURVE",
"367 738 CURVE"
);
}
);
width = 850;
}
);
unicode = 00CA;
},
{
color = 4;
glyphname = Edieresis;
lastChange = "2016-09-08 17:15:01 +0000";
layers = (
{
layerId = UUID0;
paths = (
{
closed = 1;
nodes = (
"360 195 LINE",
"360 258 LINE",
"694 258 LINE SMOOTH",
"709 258 OFFCURVE",
"721 270 OFFCURVE",
"721 285 CURVE SMOOTH",
"721 415 LINE SMOOTH",
"721 430 OFFCURVE",
"709 442 OFFCURVE",
"694 442 CURVE SMOOTH",
"360 442 LINE",
"360 505 LINE",
"749 505 LINE SMOOTH",
"764 505 OFFCURVE",
"776 517 OFFCURVE",
"776 532 CURVE SMOOTH",
"776 673 LINE SMOOTH",
"776 688 OFFCURVE",
"764 700 OFFCURVE",
"749 700 CURVE SMOOTH",
"127 700 LINE SMOOTH",
"112 700 OFFCURVE",
"100 688 OFFCURVE",
"100 673 CURVE SMOOTH",
"100 27 LINE SMOOTH",
"100 12 OFFCURVE",
"112 0 OFFCURVE",
"127 0 CURVE SMOOTH",
"759 0 LINE SMOOTH",
"774 0 OFFCURVE",
"786 12 OFFCURVE",
"786 27 CURVE SMOOTH",
"786 168 LINE SMOOTH",
"786 183 OFFCURVE",
"774 195 OFFCURVE",
"759 195 CURVE SMOOTH"
);
},
{
closed = 1;
nodes = (
"500 850 LINE SMOOTH",
"487 850 OFFCURVE",
"477 840 OFFCURVE",
"477 827 CURVE SMOOTH",
"477 754 LINE SMOOTH",
"477 741 OFFCURVE",
"487 731 OFFCURVE",
"500 731 CURVE SMOOTH",
"616 731 LINE SMOOTH",
"629 731 OFFCURVE",
"639 741 OFFCURVE",
"639 754 CURVE SMOOTH",
"639 827 LINE SMOOTH",
"639 840 OFFCURVE",
"629 850 OFFCURVE",
"616 850 CURVE SMOOTH"
);
},
{
closed = 1;
nodes = (
"249 850 LINE SMOOTH",
"236 850 OFFCURVE",
"226 840 OFFCURVE",
"226 827 CURVE SMOOTH",
"226 754 LINE SMOOTH",
"226 741 OFFCURVE",
"236 731 OFFCURVE",
"249 731 CURVE SMOOTH",
"365 731 LINE SMOOTH",
"378 731 OFFCURVE",
"388 741 OFFCURVE",
"388 754 CURVE SMOOTH",
"388 827 LINE SMOOTH",
"388 840 OFFCURVE",
"378 850 OFFCURVE",
"365 850 CURVE SMOOTH"
);
}
);
width = 850;
}
);
unicode = 00CB;
},
{
color = 4;
glyphname = Edotaccent;
lastChange = "2016-09-08 17:15:01 +0000";
layers = (
{
layerId = UUID0;
paths = (
{
closed = 1;
nodes = (
"350 195 LINE",
"350 258 LINE",
"684 258 LINE SMOOTH",
"699 258 OFFCURVE",
"711 270 OFFCURVE",
"711 285 CURVE SMOOTH",
"711 415 LINE SMOOTH",
"711 430 OFFCURVE",
"699 442 OFFCURVE",
"684 442 CURVE SMOOTH",
"350 442 LINE",
"350 505 LINE",
"739 505 LINE SMOOTH",
"754 505 OFFCURVE",
"766 517 OFFCURVE",
"766 532 CURVE SMOOTH",
"766 673 LINE SMOOTH",
"766 688 OFFCURVE",
"754 700 OFFCURVE",
"739 700 CURVE SMOOTH",
"117 700 LINE SMOOTH",
"102 700 OFFCURVE",
"90 688 OFFCURVE",
"90 673 CURVE SMOOTH",
"90 27 LINE SMOOTH",
"90 12 OFFCURVE",
"102 0 OFFCURVE",
"117 0 CURVE SMOOTH",
"749 0 LINE SMOOTH",
"764 0 OFFCURVE",
"776 12 OFFCURVE",
"776 27 CURVE SMOOTH",
"776 168 LINE SMOOTH",
"776 183 OFFCURVE",
"764 195 OFFCURVE",
"749 195 CURVE SMOOTH"
);
},
{
closed = 1;
nodes = (
"357 850 LINE SMOOTH",
"344 850 OFFCURVE",
"334 840 OFFCURVE",
"334 827 CURVE SMOOTH",
"334 754 LINE SMOOTH",
"334 741 OFFCURVE",
"344 731 OFFCURVE",
"357 731 CURVE SMOOTH",
"493 731 LINE SMOOTH",
"506 731 OFFCURVE",
"516 741 OFFCURVE",
"516 754 CURVE SMOOTH",
"516 827 LINE SMOOTH",
"516 840 OFFCURVE",
"506 850 OFFCURVE",
"493 850 CURVE SMOOTH"
);
}
);
width = 850;
}
);
unicode = 0116;
},
{
color = 4;
glyphname = Egrave;
lastChange = "2016-09-08 17:15:01 +0000";
layers = (
{
layerId = UUID0;
paths = (
{
closed = 1;
nodes = (
"360 195 LINE",
"360 258 LINE",
"694 258 LINE SMOOTH",
"709 258 OFFCURVE",
"721 270 OFFCURVE",
"721 285 CURVE SMOOTH",
"721 415 LINE SMOOTH",
"721 430 OFFCURVE",
"709 442 OFFCURVE",
"694 442 CURVE SMOOTH",
"360 442 LINE",
"360 505 LINE",
"749 505 LINE SMOOTH",
"764 505 OFFCURVE",
"776 517 OFFCURVE",
"776 532 CURVE SMOOTH",
"776 673 LINE SMOOTH",
"776 688 OFFCURVE",
"764 700 OFFCURVE",
"749 700 CURVE SMOOTH",
"127 700 LINE SMOOTH",
"112 700 OFFCURVE",
"100 688 OFFCURVE",
"100 673 CURVE SMOOTH",
"100 27 LINE SMOOTH",
"100 12 OFFCURVE",
"112 0 OFFCURVE",
"127 0 CURVE SMOOTH",
"759 0 LINE SMOOTH",
"774 0 OFFCURVE",
"786 12 OFFCURVE",
"786 27 CURVE SMOOTH",
"786 168 LINE SMOOTH",
"786 183 OFFCURVE",
"774 195 OFFCURVE",
"759 195 CURVE SMOOTH"
);
},
{
closed = 1;
nodes = (
"488 831 LINE SMOOTH",
"474 848 OFFCURVE",
"466 849 OFFCURVE",
"451 850 CURVE",
"293 850 LINE SMOOTH",
"281 850 OFFCURVE",
"274 842 OFFCURVE",
"274 830 CURVE SMOOTH",
"274 825 OFFCURVE",
"276 821 OFFCURVE",
"279 818 CURVE SMOOTH",
"374 738 LINE SMOOTH",
"382 732 OFFCURVE",
"392 731 OFFCURVE",
"402 731 CURVE SMOOTH",
"406 731 OFFCURVE",
"410 731 OFFCURVE",
"414 731 CURVE SMOOTH",
"535 731 LINE SMOOTH",
"545 731 OFFCURVE",
"551 737 OFFCURVE",
"551 747 CURVE SMOOTH",
"551 752 OFFCURVE",
"549 757 OFFCURVE",
"546 760 CURVE SMOOTH"
);
}
);
width = 850;
}
);
unicode = 00C8;
},
{
color = 4;
glyphname = Emacron;
lastChange = "2016-09-08 17:15:01 +0000";
layers = (
{
layerId = UUID0;
paths = (
{
closed = 1;
nodes = (
"350 195 LINE",
"350 258 LINE",
"684 258 LINE SMOOTH",
"699 258 OFFCURVE",
"711 270 OFFCURVE",
"711 285 CURVE SMOOTH",
"711 415 LINE SMOOTH",
"711 430 OFFCURVE",
"699 442 OFFCURVE",
"684 442 CURVE SMOOTH",
"350 442 LINE",
"350 505 LINE",
"739 505 LINE SMOOTH",
"754 505 OFFCURVE",
"766 517 OFFCURVE",
"766 532 CURVE SMOOTH",
"766 673 LINE SMOOTH",
"766 688 OFFCURVE",
"754 700 OFFCURVE",
"739 700 CURVE SMOOTH",
"117 700 LINE SMOOTH",
"102 700 OFFCURVE",
"90 688 OFFCURVE",
"90 673 CURVE SMOOTH",
"90 27 LINE SMOOTH",
"90 12 OFFCURVE",
"102 0 OFFCURVE",
"117 0 CURVE SMOOTH",
"749 0 LINE SMOOTH",
"764 0 OFFCURVE",
"776 12 OFFCURVE",
"776 27 CURVE SMOOTH",
"776 168 LINE SMOOTH",
"776 183 OFFCURVE",
"764 195 OFFCURVE",
"749 195 CURVE SMOOTH"
);
},
{
closed = 1;
nodes = (
"232 850 LINE SMOOTH",
"219 850 OFFCURVE",
"209 840 OFFCURVE",
"209 827 CURVE SMOOTH",
"209 754 LINE SMOOTH",
"209 741 OFFCURVE",
"219 731 OFFCURVE",
"232 731 CURVE SMOOTH",
"599 731 LINE SMOOTH",
"612 731 OFFCURVE",
"622 741 OFFCURVE",
"622 754 CURVE SMOOTH",
"622 827 LINE SMOOTH",
"622 840 OFFCURVE",
"612 850 OFFCURVE",
"599 850 CURVE SMOOTH"
);
}
);
width = 850;
}
);
unicode = 0112;
},
{
color = 4;
glyphname = Eogonek;
lastChange = "2016-09-08 17:15:01 +0000";
layers = (
{
layerId = UUID0;
paths = (
{
closed = 1;
nodes = (
"350 195 LINE",
"350 258 LINE",
"684 258 LINE SMOOTH",
"699 258 OFFCURVE",
"711 270 OFFCURVE",
"711 285 CURVE SMOOTH",
"711 415 LINE SMOOTH",
"711 430 OFFCURVE",
"699 442 OFFCURVE",
"684 442 CURVE SMOOTH",
"350 442 LINE",
"350 505 LINE",
"739 505 LINE SMOOTH",
"754 505 OFFCURVE",
"766 517 OFFCURVE",
"766 532 CURVE SMOOTH",
"766 673 LINE SMOOTH",
"766 688 OFFCURVE",
"754 700 OFFCURVE",
"739 700 CURVE SMOOTH",
"117 700 LINE SMOOTH",
"102 700 OFFCURVE",
"90 688 OFFCURVE",
"90 673 CURVE SMOOTH",
"90 27 LINE SMOOTH",
"90 12 OFFCURVE",
"102 0 OFFCURVE",
"117 0 CURVE SMOOTH",
"585 0 LINE",
"583 -8 OFFCURVE",
"583 -17 OFFCURVE",
"583 -26 CURVE SMOOTH",
"583 -98 OFFCURVE",
"624 -142 OFFCURVE",
"735 -142 CURVE SMOOTH",
"749 -142 LINE SMOOTH",
"764 -142 OFFCURVE",
"776 -133 OFFCURVE",
"776 -118 CURVE SMOOTH",
"776 -77 LINE SMOOTH",
"776 -61 OFFCURVE",
"764 -52 OFFCURVE",
"749 -52 CURVE SMOOTH",
"742 -52 LINE SMOOTH",
"708 -52 OFFCURVE",
"699 -41 OFFCURVE",
"699 -26 CURVE SMOOTH",
"699 -11 OFFCURVE",
"709 0 OFFCURVE",
"742 0 CURVE SMOOTH",
"749 0 LINE SMOOTH",
"764 0 OFFCURVE",
"776 12 OFFCURVE",
"776 27 CURVE SMOOTH",
"776 168 LINE SMOOTH",
"776 183 OFFCURVE",
"764 195 OFFCURVE",
"749 195 CURVE SMOOTH"
);
}
);
width = 850;
}
);
unicode = 0118;
},
{
color = 4;
glyphname = F;
lastChange = "2016-09-08 17:15:01 +0000";
layers = (
{
layerId = UUID0;
paths = (
{
closed = 1;
nodes = (
"127 700 LINE SMOOTH",
"112 700 OFFCURVE",
"100 688 OFFCURVE",
"100 673 CURVE SMOOTH",
"100 27 LINE SMOOTH",
"100 12 OFFCURVE",
"112 0 OFFCURVE",
"127 0 CURVE SMOOTH",
"343 0 LINE SMOOTH",
"358 0 OFFCURVE",
"370 12 OFFCURVE",
"370 27 CURVE SMOOTH",
"370 225 LINE",
"698 225 LINE SMOOTH",
"713 225 OFFCURVE",
"725 237 OFFCURVE",
"725 252 CURVE SMOOTH",
"725 403 LINE SMOOTH",
"725 418 OFFCURVE",
"713 430 OFFCURVE",
"698 430 CURVE SMOOTH",
"370 430 LINE",
"370 494 LINE",
"763 494 LINE SMOOTH",
"778 494 OFFCURVE",
"790 506 OFFCURVE",
"790 521 CURVE SMOOTH",
"790 673 LINE SMOOTH",
"790 688 OFFCURVE",
"778 700 OFFCURVE",
"763 700 CURVE SMOOTH"
);
}
);
width = 850;
}
);
unicode = 0046;
},
{
color = 4;
glyphname = G;
lastChange = "2016-09-08 17:15:01 +0000";
layers = (
{
layerId = UUID0;
paths = (
{
closed = 1;
nodes = (
"495 422 LINE SMOOTH",
"480 422 OFFCURVE",
"468 410 OFFCURVE",
"468 395 CURVE SMOOTH",
"468 284 LINE SMOOTH",
"468 269 OFFCURVE",
"480 257 OFFCURVE",
"495 257 CURVE SMOOTH",
"557 257 LINE",
"556 224 OFFCURVE",
"526 185 OFFCURVE",
"435 185 CURVE SMOOTH",
"374 185 OFFCURVE",
"328 215 OFFCURVE",
"328 270 CURVE SMOOTH",
"328 440 LINE SMOOTH",
"328 485 OFFCURVE",
"374 515 OFFCURVE",
"435 515 CURVE SMOOTH",
"496 515 OFFCURVE",
"519 486 OFFCURVE",
"527 476 CURVE SMOOTH",
"533 469 OFFCURVE",
"541 465 OFFCURVE",
"556 465 CURVE SMOOTH",
"782 465 LINE SMOOTH",
"794 465 OFFCURVE",
"804 475 OFFCURVE",
"804 487 CURVE SMOOTH",
"804 535 OFFCURVE",
"718 710 OFFCURVE",
"435 710 CURVE SMOOTH",
"229 710 OFFCURVE",
"58 621 OFFCURVE",
"58 409 CURVE SMOOTH",
"58 291 LINE SMOOTH",
"58 74 OFFCURVE",
"224 -10 OFFCURVE",
"435 -10 CURVE SMOOTH",
"646 -10 OFFCURVE",
"812 75 OFFCURVE",
"812 289 CURVE SMOOTH",
"812 395 LINE SMOOTH",
"812 410 OFFCURVE",
"800 422 OFFCURVE",
"785 422 CURVE SMOOTH"
);
}
);
width = 850;
}
);
unicode = 0047;
},
{
color = 4;
glyphname = Gbreve;
lastChange = "2016-09-08 17:15:01 +0000";
layers = (
{
layerId = UUID0;
paths = (
{
closed = 1;
nodes = (
"495 422 LINE SMOOTH",
"480 422 OFFCURVE",
"468 410 OFFCURVE",
"468 395 CURVE SMOOTH",
"468 284 LINE SMOOTH",
"468 269 OFFCURVE",
"480 257 OFFCURVE",
"495 257 CURVE SMOOTH",
"557 257 LINE",
"556 224 OFFCURVE",
"526 185 OFFCURVE",
"435 185 CURVE SMOOTH",
"374 185 OFFCURVE",
"328 215 OFFCURVE",
"328 270 CURVE SMOOTH",
"328 440 LINE SMOOTH",
"328 485 OFFCURVE",
"374 515 OFFCURVE",
"435 515 CURVE SMOOTH",
"496 515 OFFCURVE",
"519 486 OFFCURVE",
"527 476 CURVE SMOOTH",
"533 469 OFFCURVE",
"541 465 OFFCURVE",
"556 465 CURVE SMOOTH",
"782 465 LINE SMOOTH",
"794 465 OFFCURVE",
"804 475 OFFCURVE",
"804 487 CURVE SMOOTH",
"804 535 OFFCURVE",
"718 710 OFFCURVE",
"435 710 CURVE SMOOTH",
"229 710 OFFCURVE",
"58 621 OFFCURVE",
"58 409 CURVE SMOOTH",
"58 291 LINE SMOOTH",
"58 74 OFFCURVE",
"224 -10 OFFCURVE",
"435 -10 CURVE SMOOTH",
"646 -10 OFFCURVE",
"812 75 OFFCURVE",
"812 289 CURVE SMOOTH",
"812 395 LINE SMOOTH",
"812 410 OFFCURVE",
"800 422 OFFCURVE",
"785 422 CURVE SMOOTH"
);
},
{
closed = 1;
nodes = (
"461 833 OFFCURVE",
"454 817 OFFCURVE",
"424 817 CURVE SMOOTH",
"394 817 OFFCURVE",
"386 834 OFFCURVE",
"384 842 CURVE SMOOTH",
"382 849 OFFCURVE",
"377 855 OFFCURVE",
"365 855 CURVE SMOOTH",
"266 855 LINE SMOOTH",
"254 855 OFFCURVE",
"247 849 OFFCURVE",
"247 842 CURVE SMOOTH",
"247 784 OFFCURVE",
"304 730 OFFCURVE",
"424 730 CURVE SMOOTH",
"545 730 OFFCURVE",
"602 784 OFFCURVE",
"602 842 CURVE SMOOTH",
"602 849 OFFCURVE",
"595 855 OFFCURVE",
"583 855 CURVE SMOOTH",
"484 855 LINE SMOOTH",
"472 855 OFFCURVE",
"468 848 OFFCURVE",
"465 842 CURVE SMOOTH"
);
}
);
width = 850;
}
);
unicode = 011E;
},
{
color = 4;
glyphname = Gcircumflex;
lastChange = "2016-09-08 17:15:01 +0000";
layers = (
{
layerId = UUID0;
paths = (
{
closed = 1;
nodes = (
"495 422 LINE SMOOTH",
"480 422 OFFCURVE",
"468 410 OFFCURVE",
"468 395 CURVE SMOOTH",
"468 284 LINE SMOOTH",
"468 269 OFFCURVE",
"480 257 OFFCURVE",
"495 257 CURVE SMOOTH",
"557 257 LINE",
"556 224 OFFCURVE",
"526 185 OFFCURVE",
"435 185 CURVE SMOOTH",
"374 185 OFFCURVE",
"328 215 OFFCURVE",
"328 270 CURVE SMOOTH",
"328 440 LINE SMOOTH",
"328 485 OFFCURVE",
"374 515 OFFCURVE",
"435 515 CURVE SMOOTH",
"496 515 OFFCURVE",
"519 486 OFFCURVE",
"527 476 CURVE SMOOTH",
"533 469 OFFCURVE",
"541 465 OFFCURVE",
"556 465 CURVE SMOOTH",
"782 465 LINE SMOOTH",
"794 465 OFFCURVE",
"804 475 OFFCURVE",
"804 487 CURVE SMOOTH",
"804 535 OFFCURVE",
"718 710 OFFCURVE",
"435 710 CURVE SMOOTH",
"229 710 OFFCURVE",
"58 621 OFFCURVE",
"58 409 CURVE SMOOTH",
"58 291 LINE SMOOTH",
"58 74 OFFCURVE",
"224 -10 OFFCURVE",
"435 -10 CURVE SMOOTH",
"646 -10 OFFCURVE",
"812 75 OFFCURVE",
"812 289 CURVE SMOOTH",
"812 395 LINE SMOOTH",
"812 410 OFFCURVE",
"800 422 OFFCURVE",
"785 422 CURVE SMOOTH"
);
},
{
closed = 1;
nodes = (
"432 760 LINE",
"489 738 LINE",
"505 733 OFFCURVE",
"516 731 OFFCURVE",
"529 731 CURVE SMOOTH",
"610 731 LINE SMOOTH",
"619 731 OFFCURVE",
"626 738 OFFCURVE",
"626 747 CURVE SMOOTH",
"626 755 OFFCURVE",
"621 759 OFFCURVE",
"618 761 CURVE SMOOTH",
"535 831 LINE",
"514 846 OFFCURVE",
"503 850 OFFCURVE",
"488 850 CURVE SMOOTH",
"376 850 LINE SMOOTH",
"361 850 OFFCURVE",
"350 846 OFFCURVE",
"329 831 CURVE",
"246 761 LINE SMOOTH",
"243 759 OFFCURVE",
"238 755 OFFCURVE",
"238 747 CURVE SMOOTH",
"238 738 OFFCURVE",
"245 731 OFFCURVE",
"254 731 CURVE SMOOTH",
"335 731 LINE SMOOTH",
"348 731 OFFCURVE",
"359 733 OFFCURVE",
"375 738 CURVE"
);
}
);
width = 850;
}
);
unicode = 011C;
},
{
color = 4;
glyphname = Gcommaaccent;
lastChange = "2016-09-08 17:15:01 +0000";
layers = (
{
layerId = UUID0;
paths = (
{
closed = 1;
nodes = (
"495 422 LINE SMOOTH",
"480 422 OFFCURVE",
"468 410 OFFCURVE",
"468 395 CURVE SMOOTH",
"468 284 LINE SMOOTH",
"468 269 OFFCURVE",
"480 257 OFFCURVE",
"495 257 CURVE SMOOTH",
"557 257 LINE",
"556 224 OFFCURVE",
"526 185 OFFCURVE",
"435 185 CURVE SMOOTH",
"374 185 OFFCURVE",
"328 215 OFFCURVE",
"328 270 CURVE SMOOTH",
"328 440 LINE SMOOTH",
"328 485 OFFCURVE",
"374 515 OFFCURVE",
"435 515 CURVE SMOOTH",
"496 515 OFFCURVE",
"519 486 OFFCURVE",
"527 476 CURVE SMOOTH",
"533 469 OFFCURVE",
"541 465 OFFCURVE",
"556 465 CURVE SMOOTH",
"782 465 LINE SMOOTH",
"794 465 OFFCURVE",
"804 475 OFFCURVE",
"804 487 CURVE SMOOTH",
"804 535 OFFCURVE",
"718 710 OFFCURVE",
"435 710 CURVE SMOOTH",
"229 710 OFFCURVE",
"58 621 OFFCURVE",
"58 409 CURVE SMOOTH",
"58 291 LINE SMOOTH",
"58 74 OFFCURVE",
"224 -10 OFFCURVE",
"435 -10 CURVE SMOOTH",
"646 -10 OFFCURVE",
"812 75 OFFCURVE",
"812 289 CURVE SMOOTH",
"812 395 LINE SMOOTH",
"812 410 OFFCURVE",
"800 422 OFFCURVE",
"785 422 CURVE SMOOTH"
);
},
{
closed = 1;
nodes = (
"265 -121 LINE SMOOTH",
"262 -124 OFFCURVE",
"260 -129 OFFCURVE",
"260 -134 CURVE SMOOTH",
"260 -144 OFFCURVE",
"266 -150 OFFCURVE",
"276 -150 CURVE SMOOTH",
"397 -150 LINE SMOOTH",
"401 -150 OFFCURVE",
"405 -150 OFFCURVE",
"409 -150 CURVE SMOOTH",
"419 -150 OFFCURVE",
"429 -149 OFFCURVE",
"437 -143 CURVE SMOOTH",
"532 -63 LINE SMOOTH",
"535 -60 OFFCURVE",
"537 -56 OFFCURVE",
"537 -51 CURVE SMOOTH",
"537 -39 OFFCURVE",
"530 -31 OFFCURVE",
"518 -31 CURVE SMOOTH",
"360 -31 LINE",
"345 -32 OFFCURVE",
"337 -33 OFFCURVE",
"323 -50 CURVE SMOOTH"
);
}
);
width = 850;
}
);
unicode = 0122;
},
{
color = 4;
glyphname = Gdotaccent;
lastChange = "2016-09-08 17:15:01 +0000";
layers = (
{
layerId = UUID0;
paths = (
{
closed = 1;
nodes = (
"495 422 LINE SMOOTH",
"480 422 OFFCURVE",
"468 410 OFFCURVE",
"468 395 CURVE SMOOTH",
"468 284 LINE SMOOTH",
"468 269 OFFCURVE",
"480 257 OFFCURVE",
"495 257 CURVE SMOOTH",
"557 257 LINE",
"556 224 OFFCURVE",
"526 185 OFFCURVE",
"435 185 CURVE SMOOTH",
"374 185 OFFCURVE",
"328 215 OFFCURVE",
"328 270 CURVE SMOOTH",
"328 440 LINE SMOOTH",
"328 485 OFFCURVE",
"374 515 OFFCURVE",
"435 515 CURVE SMOOTH",
"496 515 OFFCURVE",
"519 486 OFFCURVE",
"527 476 CURVE SMOOTH",
"533 469 OFFCURVE",
"541 465 OFFCURVE",
"556 465 CURVE SMOOTH",
"782 465 LINE SMOOTH",
"794 465 OFFCURVE",
"804 475 OFFCURVE",
"804 487 CURVE SMOOTH",
"804 535 OFFCURVE",
"718 710 OFFCURVE",
"435 710 CURVE SMOOTH",
"229 710 OFFCURVE",
"58 621 OFFCURVE",
"58 409 CURVE SMOOTH",
"58 291 LINE SMOOTH",
"58 74 OFFCURVE",
"224 -10 OFFCURVE",
"435 -10 CURVE SMOOTH",
"646 -10 OFFCURVE",
"812 75 OFFCURVE",
"812 289 CURVE SMOOTH",
"812 395 LINE SMOOTH",
"812 410 OFFCURVE",
"800 422 OFFCURVE",
"785 422 CURVE SMOOTH"
);
},
{
closed = 1;
nodes = (
"357 850 LINE SMOOTH",
"344 850 OFFCURVE",
"334 840 OFFCURVE",
"334 827 CURVE SMOOTH",
"334 754 LINE SMOOTH",
"334 741 OFFCURVE",
"344 731 OFFCURVE",
"357 731 CURVE SMOOTH",
"493 731 LINE SMOOTH",
"506 731 OFFCURVE",
"516 741 OFFCURVE",
"516 754 CURVE SMOOTH",
"516 827 LINE SMOOTH",
"516 840 OFFCURVE",
"506 850 OFFCURVE",
"493 850 CURVE SMOOTH"
);
}
);
width = 850;
}
);
unicode = 0120;
},
{
color = 4;
glyphname = H;
lastChange = "2016-09-08 17:15:01 +0000";
layers = (
{
layerId = UUID0;
paths = (
{
closed = 1;
nodes = (
"552 700 LINE SMOOTH",
"537 700 OFFCURVE",
"525 688 OFFCURVE",
"525 673 CURVE SMOOTH",
"525 468 LINE",
"325 468 LINE",
"325 673 LINE SMOOTH",
"325 688 OFFCURVE",
"313 700 OFFCURVE",
"298 700 CURVE SMOOTH",
"92 700 LINE SMOOTH",
"77 700 OFFCURVE",
"65 688 OFFCURVE",
"65 673 CURVE SMOOTH",
"65 27 LINE SMOOTH",
"65 11 OFFCURVE",
"77 0 OFFCURVE",
"92 0 CURVE SMOOTH",
"298 0 LINE SMOOTH",
"313 0 OFFCURVE",
"325 12 OFFCURVE",
"325 27 CURVE SMOOTH",
"325 240 LINE",
"525 240 LINE",
"525 27 LINE SMOOTH",
"525 12 OFFCURVE",
"537 0 OFFCURVE",
"552 0 CURVE SMOOTH",
"758 0 LINE SMOOTH",
"773 0 OFFCURVE",
"785 12 OFFCURVE",
"785 27 CURVE SMOOTH",
"785 673 LINE SMOOTH",
"785 688 OFFCURVE",
"773 700 OFFCURVE",
"758 700 CURVE SMOOTH"
);
}
);
width = 850;
}
);
unicode = 0048;
},
{
color = 4;
glyphname = Hbar;
lastChange = "2016-09-08 17:15:01 +0000";
layers = (
{
layerId = UUID0;
paths = (
{
closed = 1;
nodes = (
"552 700 LINE SMOOTH",
"537 700 OFFCURVE",
"525 688 OFFCURVE",
"525 673 CURVE SMOOTH",
"525 637 LINE",
"325 637 LINE",
"325 673 LINE SMOOTH",
"325 688 OFFCURVE",
"313 700 OFFCURVE",
"298 700 CURVE SMOOTH",
"92 700 LINE SMOOTH",
"77 700 OFFCURVE",
"65 688 OFFCURVE",
"65 673 CURVE SMOOTH",
"65 27 LINE SMOOTH",
"65 11 OFFCURVE",
"77 0 OFFCURVE",
"92 0 CURVE SMOOTH",
"298 0 LINE SMOOTH",
"313 0 OFFCURVE",
"325 12 OFFCURVE",
"325 27 CURVE SMOOTH",
"325 240 LINE",
"525 240 LINE",
"525 27 LINE SMOOTH",
"525 12 OFFCURVE",
"537 0 OFFCURVE",
"552 0 CURVE SMOOTH",
"758 0 LINE SMOOTH",
"773 0 OFFCURVE",
"785 12 OFFCURVE",
"785 27 CURVE SMOOTH",
"785 673 LINE SMOOTH",
"785 688 OFFCURVE",
"773 700 OFFCURVE",
"758 700 CURVE SMOOTH"
);
},
{
closed = 1;
nodes = (
"325 468 LINE",
"325 512 LINE",
"525 512 LINE",
"525 468 LINE"
);
}
);
width = 850;
}
);
unicode = 0126;
},
{
color = 4;
glyphname = Hcircumflex;
lastChange = "2016-09-08 17:15:01 +0000";
layers = (
{
layerId = UUID0;
paths = (
{
closed = 1;
nodes = (
"552 700 LINE SMOOTH",
"537 700 OFFCURVE",
"525 688 OFFCURVE",
"525 673 CURVE SMOOTH",
"525 468 LINE",
"325 468 LINE",
"325 673 LINE SMOOTH",
"325 688 OFFCURVE",
"313 700 OFFCURVE",
"298 700 CURVE SMOOTH",
"92 700 LINE SMOOTH",
"77 700 OFFCURVE",
"65 688 OFFCURVE",
"65 673 CURVE SMOOTH",
"65 27 LINE SMOOTH",
"65 11 OFFCURVE",
"77 0 OFFCURVE",
"92 0 CURVE SMOOTH",
"298 0 LINE SMOOTH",
"313 0 OFFCURVE",
"325 12 OFFCURVE",
"325 27 CURVE SMOOTH",
"325 240 LINE",
"525 240 LINE",
"525 27 LINE SMOOTH",
"525 12 OFFCURVE",
"537 0 OFFCURVE",
"552 0 CURVE SMOOTH",
"758 0 LINE SMOOTH",
"773 0 OFFCURVE",
"785 12 OFFCURVE",
"785 27 CURVE SMOOTH",
"785 673 LINE SMOOTH",
"785 688 OFFCURVE",
"773 700 OFFCURVE",
"758 700 CURVE SMOOTH"
);
},
{
closed = 1;
nodes = (
"422 760 LINE",
"479 738 LINE",
"495 733 OFFCURVE",
"506 731 OFFCURVE",
"519 731 CURVE SMOOTH",
"600 731 LINE SMOOTH",
"609 731 OFFCURVE",
"616 738 OFFCURVE",
"616 747 CURVE SMOOTH",
"616 755 OFFCURVE",
"611 759 OFFCURVE",
"608 761 CURVE SMOOTH",
"525 831 LINE",
"504 846 OFFCURVE",
"493 850 OFFCURVE",
"478 850 CURVE SMOOTH",
"366 850 LINE SMOOTH",
"351 850 OFFCURVE",
"340 846 OFFCURVE",
"319 831 CURVE",
"236 761 LINE SMOOTH",
"233 759 OFFCURVE",
"228 755 OFFCURVE",
"228 747 CURVE SMOOTH",
"228 738 OFFCURVE",
"235 731 OFFCURVE",
"244 731 CURVE SMOOTH",
"325 731 LINE SMOOTH",
"338 731 OFFCURVE",
"349 733 OFFCURVE",
"365 738 CURVE"
);
}
);
width = 850;
}
);
unicode = 0124;
},
{
color = 4;
glyphname = I;
lastChange = "2016-09-08 17:15:01 +0000";
layers = (
{
layerId = UUID0;
paths = (
{
closed = 1;
nodes = (
"742 495 LINE SMOOTH",
"757 495 OFFCURVE",
"769 507 OFFCURVE",
"769 522 CURVE SMOOTH",
"769 673 LINE SMOOTH",
"769 688 OFFCURVE",
"757 700 OFFCURVE",
"742 700 CURVE SMOOTH",
"108 700 LINE SMOOTH",
"93 700 OFFCURVE",
"81 688 OFFCURVE",
"81 673 CURVE SMOOTH",
"81 522 LINE SMOOTH",
"81 507 OFFCURVE",
"93 495 OFFCURVE",
"108 495 CURVE SMOOTH",
"291 495 LINE",
"291 205 LINE",
"108 205 LINE SMOOTH",
"93 205 OFFCURVE",
"81 193 OFFCURVE",
"81 178 CURVE SMOOTH",
"81 27 LINE SMOOTH",
"81 12 OFFCURVE",
"93 0 OFFCURVE",
"108 0 CURVE SMOOTH",
"742 0 LINE SMOOTH",
"757 0 OFFCURVE",
"769 12 OFFCURVE",
"769 27 CURVE SMOOTH",
"769 178 LINE SMOOTH",
"769 193 OFFCURVE",
"757 205 OFFCURVE",
"742 205 CURVE SMOOTH",
"561 205 LINE",
"561 495 LINE"
);
}
);
width = 850;
}
);
unicode = 0049;
},
{
color = 4;
glyphname = Iacute;
lastChange = "2016-09-08 17:15:01 +0000";
layers = (
{
layerId = UUID0;
paths = (
{
closed = 1;
nodes = (
"742 495 LINE SMOOTH",
"757 495 OFFCURVE",
"769 507 OFFCURVE",
"769 522 CURVE SMOOTH",
"769 673 LINE SMOOTH",
"769 688 OFFCURVE",
"757 700 OFFCURVE",
"742 700 CURVE SMOOTH",
"108 700 LINE SMOOTH",
"93 700 OFFCURVE",
"81 688 OFFCURVE",
"81 673 CURVE SMOOTH",
"81 522 LINE SMOOTH",
"81 507 OFFCURVE",
"93 495 OFFCURVE",
"108 495 CURVE SMOOTH",
"291 495 LINE",
"291 205 LINE",
"108 205 LINE SMOOTH",
"93 205 OFFCURVE",
"81 193 OFFCURVE",
"81 178 CURVE SMOOTH",
"81 27 LINE SMOOTH",
"81 12 OFFCURVE",
"93 0 OFFCURVE",
"108 0 CURVE SMOOTH",
"742 0 LINE SMOOTH",
"757 0 OFFCURVE",
"769 12 OFFCURVE",
"769 27 CURVE SMOOTH",
"769 178 LINE SMOOTH",
"769 193 OFFCURVE",
"757 205 OFFCURVE",
"742 205 CURVE SMOOTH",
"561 205 LINE",
"561 495 LINE"
);
},
{
closed = 1;
nodes = (
"349 760 LINE SMOOTH",
"346 757 OFFCURVE",
"344 752 OFFCURVE",
"344 747 CURVE SMOOTH",
"344 737 OFFCURVE",
"350 731 OFFCURVE",
"360 731 CURVE SMOOTH",
"481 731 LINE SMOOTH",
"485 731 OFFCURVE",
"489 731 OFFCURVE",
"493 731 CURVE SMOOTH",
"503 731 OFFCURVE",
"513 732 OFFCURVE",
"521 738 CURVE SMOOTH",
"616 818 LINE SMOOTH",
"619 821 OFFCURVE",
"621 825 OFFCURVE",
"621 830 CURVE SMOOTH",
"621 842 OFFCURVE",
"614 850 OFFCURVE",
"602 850 CURVE SMOOTH",
"444 850 LINE",
"429 849 OFFCURVE",
"421 848 OFFCURVE",
"407 831 CURVE SMOOTH"
);
}
);
width = 850;
}
);
unicode = 00CD;
},
{
color = 4;
glyphname = Ibreve;
lastChange = "2016-09-08 17:15:01 +0000";
layers = (
{
layerId = UUID0;
paths = (
{
closed = 1;
nodes = (
"742 495 LINE SMOOTH",
"757 495 OFFCURVE",
"769 507 OFFCURVE",
"769 522 CURVE SMOOTH",
"769 673 LINE SMOOTH",
"769 688 OFFCURVE",
"757 700 OFFCURVE",
"742 700 CURVE SMOOTH",
"108 700 LINE SMOOTH",
"93 700 OFFCURVE",
"81 688 OFFCURVE",
"81 673 CURVE SMOOTH",
"81 522 LINE SMOOTH",
"81 507 OFFCURVE",
"93 495 OFFCURVE",
"108 495 CURVE SMOOTH",
"291 495 LINE",
"291 205 LINE",
"108 205 LINE SMOOTH",
"93 205 OFFCURVE",
"81 193 OFFCURVE",
"81 178 CURVE SMOOTH",
"81 27 LINE SMOOTH",
"81 12 OFFCURVE",
"93 0 OFFCURVE",
"108 0 CURVE SMOOTH",
"742 0 LINE SMOOTH",
"757 0 OFFCURVE",
"769 12 OFFCURVE",
"769 27 CURVE SMOOTH",
"769 178 LINE SMOOTH",
"769 193 OFFCURVE",
"757 205 OFFCURVE",
"742 205 CURVE SMOOTH",
"561 205 LINE",
"561 495 LINE"
);
},
{
closed = 1;
nodes = (
"462 833 OFFCURVE",
"455 817 OFFCURVE",
"425 817 CURVE SMOOTH",
"395 817 OFFCURVE",
"387 834 OFFCURVE",
"385 842 CURVE SMOOTH",
"383 849 OFFCURVE",
"378 855 OFFCURVE",
"366 855 CURVE SMOOTH",
"267 855 LINE SMOOTH",
"255 855 OFFCURVE",
"248 849 OFFCURVE",
"248 842 CURVE SMOOTH",
"248 784 OFFCURVE",
"305 730 OFFCURVE",
"425 730 CURVE SMOOTH",
"546 730 OFFCURVE",
"603 784 OFFCURVE",
"603 842 CURVE SMOOTH",
"603 849 OFFCURVE",
"596 855 OFFCURVE",
"584 855 CURVE SMOOTH",
"485 855 LINE SMOOTH",
"473 855 OFFCURVE",
"469 848 OFFCURVE",
"466 842 CURVE SMOOTH"
);
}
);
width = 850;
}
);
unicode = 012C;
},
{
color = 4;
glyphname = Icircumflex;
lastChange = "2016-09-08 17:15:01 +0000";
layers = (
{
layerId = UUID0;
paths = (
{
closed = 1;
nodes = (
"742 495 LINE SMOOTH",
"757 495 OFFCURVE",
"769 507 OFFCURVE",
"769 522 CURVE SMOOTH",
"769 673 LINE SMOOTH",
"769 688 OFFCURVE",
"757 700 OFFCURVE",
"742 700 CURVE SMOOTH",
"108 700 LINE SMOOTH",
"93 700 OFFCURVE",
"81 688 OFFCURVE",
"81 673 CURVE SMOOTH",
"81 522 LINE SMOOTH",
"81 507 OFFCURVE",
"93 495 OFFCURVE",
"108 495 CURVE SMOOTH",
"291 495 LINE",
"291 205 LINE",
"108 205 LINE SMOOTH",
"93 205 OFFCURVE",
"81 193 OFFCURVE",
"81 178 CURVE SMOOTH",
"81 27 LINE SMOOTH",
"81 12 OFFCURVE",
"93 0 OFFCURVE",
"108 0 CURVE SMOOTH",
"742 0 LINE SMOOTH",
"757 0 OFFCURVE",
"769 12 OFFCURVE",
"769 27 CURVE SMOOTH",
"769 178 LINE SMOOTH",
"769 193 OFFCURVE",
"757 205 OFFCURVE",
"742 205 CURVE SMOOTH",
"561 205 LINE",
"561 495 LINE"
);
},
{
closed = 1;
nodes = (
"425 760 LINE",
"482 738 LINE",
"498 733 OFFCURVE",
"509 731 OFFCURVE",
"522 731 CURVE SMOOTH",
"603 731 LINE SMOOTH",
"612 731 OFFCURVE",
"619 738 OFFCURVE",
"619 747 CURVE SMOOTH",
"619 755 OFFCURVE",
"614 759 OFFCURVE",
"611 761 CURVE SMOOTH",
"528 831 LINE",
"507 846 OFFCURVE",
"496 850 OFFCURVE",
"481 850 CURVE SMOOTH",
"369 850 LINE SMOOTH",
"354 850 OFFCURVE",
"343 846 OFFCURVE",
"322 831 CURVE",
"239 761 LINE SMOOTH",
"236 759 OFFCURVE",
"231 755 OFFCURVE",
"231 747 CURVE SMOOTH",
"231 738 OFFCURVE",
"238 731 OFFCURVE",
"247 731 CURVE SMOOTH",
"328 731 LINE SMOOTH",
"341 731 OFFCURVE",
"352 733 OFFCURVE",
"368 738 CURVE"
);
}
);
width = 850;
}
);
unicode = 00CE;
},
{
color = 4;
glyphname = Idieresis;
lastChange = "2016-09-08 17:15:01 +0000";
layers = (
{
layerId = UUID0;
paths = (
{
closed = 1;
nodes = (
"742 495 LINE SMOOTH",
"757 495 OFFCURVE",
"769 507 OFFCURVE",
"769 522 CURVE SMOOTH",
"769 673 LINE SMOOTH",
"769 688 OFFCURVE",
"757 700 OFFCURVE",
"742 700 CURVE SMOOTH",
"108 700 LINE SMOOTH",
"93 700 OFFCURVE",
"81 688 OFFCURVE",
"81 673 CURVE SMOOTH",
"81 522 LINE SMOOTH",
"81 507 OFFCURVE",
"93 495 OFFCURVE",
"108 495 CURVE SMOOTH",
"291 495 LINE",
"291 205 LINE",
"108 205 LINE SMOOTH",
"93 205 OFFCURVE",
"81 193 OFFCURVE",
"81 178 CURVE SMOOTH",
"81 27 LINE SMOOTH",
"81 12 OFFCURVE",
"93 0 OFFCURVE",
"108 0 CURVE SMOOTH",
"742 0 LINE SMOOTH",
"757 0 OFFCURVE",
"769 12 OFFCURVE",
"769 27 CURVE SMOOTH",
"769 178 LINE SMOOTH",
"769 193 OFFCURVE",
"757 205 OFFCURVE",
"742 205 CURVE SMOOTH",
"561 205 LINE",
"561 495 LINE"
);
},
{
closed = 1;
nodes = (
"492 850 LINE SMOOTH",
"479 850 OFFCURVE",
"469 840 OFFCURVE",
"469 827 CURVE SMOOTH",
"469 754 LINE SMOOTH",
"469 741 OFFCURVE",
"479 731 OFFCURVE",
"492 731 CURVE SMOOTH",
"608 731 LINE SMOOTH",
"621 731 OFFCURVE",
"631 741 OFFCURVE",
"631 754 CURVE SMOOTH",
"631 827 LINE SMOOTH",
"631 840 OFFCURVE",
"621 850 OFFCURVE",
"608 850 CURVE SMOOTH"
);
},
{
closed = 1;
nodes = (
"241 850 LINE SMOOTH",
"228 850 OFFCURVE",
"218 840 OFFCURVE",
"218 827 CURVE SMOOTH",
"218 754 LINE SMOOTH",
"218 741 OFFCURVE",
"228 731 OFFCURVE",
"241 731 CURVE SMOOTH",
"357 731 LINE SMOOTH",
"370 731 OFFCURVE",
"380 741 OFFCURVE",
"380 754 CURVE SMOOTH",
"380 827 LINE SMOOTH",
"380 840 OFFCURVE",
"370 850 OFFCURVE",
"357 850 CURVE SMOOTH"
);
}
);
width = 850;
}
);
unicode = 00CF;
},
{
color = 4;
glyphname = Idotaccent;
lastChange = "2016-09-08 17:15:01 +0000";
layers = (
{
layerId = UUID0;
paths = (
{
closed = 1;
nodes = (
"742 495 LINE SMOOTH",
"757 495 OFFCURVE",
"769 507 OFFCURVE",
"769 522 CURVE SMOOTH",
"769 673 LINE SMOOTH",
"769 688 OFFCURVE",
"757 700 OFFCURVE",
"742 700 CURVE SMOOTH",
"108 700 LINE SMOOTH",
"93 700 OFFCURVE",
"81 688 OFFCURVE",
"81 673 CURVE SMOOTH",
"81 522 LINE SMOOTH",
"81 507 OFFCURVE",
"93 495 OFFCURVE",
"108 495 CURVE SMOOTH",
"291 495 LINE",
"291 205 LINE",
"108 205 LINE SMOOTH",
"93 205 OFFCURVE",
"81 193 OFFCURVE",
"81 178 CURVE SMOOTH",
"81 27 LINE SMOOTH",
"81 12 OFFCURVE",
"93 0 OFFCURVE",
"108 0 CURVE SMOOTH",
"742 0 LINE SMOOTH",
"757 0 OFFCURVE",
"769 12 OFFCURVE",
"769 27 CURVE SMOOTH",
"769 178 LINE SMOOTH",
"769 193 OFFCURVE",
"757 205 OFFCURVE",
"742 205 CURVE SMOOTH",
"561 205 LINE",
"561 495 LINE"
);
},
{
closed = 1;
nodes = (
"357 850 LINE SMOOTH",
"344 850 OFFCURVE",
"334 840 OFFCURVE",
"334 827 CURVE SMOOTH",
"334 754 LINE SMOOTH",
"334 741 OFFCURVE",
"344 731 OFFCURVE",
"357 731 CURVE SMOOTH",
"493 731 LINE SMOOTH",
"506 731 OFFCURVE",
"516 741 OFFCURVE",
"516 754 CURVE SMOOTH",
"516 827 LINE SMOOTH",
"516 840 OFFCURVE",
"506 850 OFFCURVE",
"493 850 CURVE SMOOTH"
);
}
);
width = 850;
}
);
unicode = 0130;
},
{
color = 4;
glyphname = Igrave;
lastChange = "2016-09-08 17:15:01 +0000";
layers = (
{
layerId = UUID0;
paths = (
{
closed = 1;
nodes = (
"742 495 LINE SMOOTH",
"757 495 OFFCURVE",
"769 507 OFFCURVE",
"769 522 CURVE SMOOTH",
"769 673 LINE SMOOTH",
"769 688 OFFCURVE",
"757 700 OFFCURVE",
"742 700 CURVE SMOOTH",
"108 700 LINE SMOOTH",
"93 700 OFFCURVE",
"81 688 OFFCURVE",
"81 673 CURVE SMOOTH",
"81 522 LINE SMOOTH",
"81 507 OFFCURVE",
"93 495 OFFCURVE",
"108 495 CURVE SMOOTH",
"291 495 LINE",
"291 205 LINE",
"108 205 LINE SMOOTH",
"93 205 OFFCURVE",
"81 193 OFFCURVE",
"81 178 CURVE SMOOTH",
"81 27 LINE SMOOTH",
"81 12 OFFCURVE",
"93 0 OFFCURVE",
"108 0 CURVE SMOOTH",
"742 0 LINE SMOOTH",
"757 0 OFFCURVE",
"769 12 OFFCURVE",
"769 27 CURVE SMOOTH",
"769 178 LINE SMOOTH",
"769 193 OFFCURVE",
"757 205 OFFCURVE",
"742 205 CURVE SMOOTH",
"561 205 LINE",
"561 495 LINE"
);
},
{
closed = 1;
nodes = (
"474 831 LINE SMOOTH",
"460 848 OFFCURVE",
"452 849 OFFCURVE",
"437 850 CURVE",
"279 850 LINE SMOOTH",
"267 850 OFFCURVE",
"260 842 OFFCURVE",
"260 830 CURVE SMOOTH",
"260 825 OFFCURVE",
"262 821 OFFCURVE",
"265 818 CURVE SMOOTH",
"360 738 LINE SMOOTH",
"368 732 OFFCURVE",
"378 731 OFFCURVE",
"388 731 CURVE SMOOTH",
"392 731 OFFCURVE",
"396 731 OFFCURVE",
"400 731 CURVE SMOOTH",
"521 731 LINE SMOOTH",
"531 731 OFFCURVE",
"537 737 OFFCURVE",
"537 747 CURVE SMOOTH",
"537 752 OFFCURVE",
"535 757 OFFCURVE",
"532 760 CURVE SMOOTH"
);
}
);
width = 850;
}
);
unicode = 00CC;
},
{
color = 4;
glyphname = Iogonek;
lastChange = "2016-09-08 17:15:01 +0000";
layers = (
{
layerId = UUID0;
paths = (
{
closed = 1;
nodes = (
"742 495 LINE SMOOTH",
"757 495 OFFCURVE",
"769 507 OFFCURVE",
"769 522 CURVE SMOOTH",
"769 673 LINE SMOOTH",
"769 688 OFFCURVE",
"757 700 OFFCURVE",
"742 700 CURVE SMOOTH",
"108 700 LINE SMOOTH",
"93 700 OFFCURVE",
"81 688 OFFCURVE",
"81 673 CURVE SMOOTH",
"81 522 LINE SMOOTH",
"81 507 OFFCURVE",
"93 495 OFFCURVE",
"108 495 CURVE SMOOTH",
"291 495 LINE",
"291 205 LINE",
"108 205 LINE SMOOTH",
"93 205 OFFCURVE",
"81 193 OFFCURVE",
"81 178 CURVE SMOOTH",
"81 27 LINE SMOOTH",
"81 12 OFFCURVE",
"93 0 OFFCURVE",
"108 0 CURVE SMOOTH",
"578 0 LINE",
"576 -8 OFFCURVE",
"576 -17 OFFCURVE",
"576 -26 CURVE SMOOTH",
"576 -98 OFFCURVE",
"617 -142 OFFCURVE",
"728 -142 CURVE SMOOTH",
"742 -142 LINE SMOOTH",
"757 -142 OFFCURVE",
"769 -133 OFFCURVE",
"769 -118 CURVE SMOOTH",
"769 -77 LINE SMOOTH",
"769 -61 OFFCURVE",
"757 -52 OFFCURVE",
"742 -52 CURVE SMOOTH",
"735 -52 LINE SMOOTH",
"701 -52 OFFCURVE",
"692 -41 OFFCURVE",
"692 -26 CURVE SMOOTH",
"692 -11 OFFCURVE",
"702 0 OFFCURVE",
"735 0 CURVE SMOOTH",
"742 0 LINE SMOOTH",
"757 0 OFFCURVE",
"769 12 OFFCURVE",
"769 27 CURVE SMOOTH",
"769 178 LINE SMOOTH",
"769 193 OFFCURVE",
"757 205 OFFCURVE",
"742 205 CURVE SMOOTH",
"561 205 LINE",
"561 495 LINE"
);
}
);
width = 850;
}
);
unicode = 012E;
},
{
color = 4;
glyphname = Itilde;
lastChange = "2016-09-08 17:15:01 +0000";
layers = (
{
layerId = UUID0;
paths = (
{
closed = 1;
nodes = (
"742 495 LINE SMOOTH",
"757 495 OFFCURVE",
"769 507 OFFCURVE",
"769 522 CURVE SMOOTH",
"769 673 LINE SMOOTH",
"769 688 OFFCURVE",
"757 700 OFFCURVE",
"742 700 CURVE SMOOTH",
"108 700 LINE SMOOTH",
"93 700 OFFCURVE",
"81 688 OFFCURVE",
"81 673 CURVE SMOOTH",
"81 522 LINE SMOOTH",
"81 507 OFFCURVE",
"93 495 OFFCURVE",
"108 495 CURVE SMOOTH",
"291 495 LINE",
"291 205 LINE",
"108 205 LINE SMOOTH",
"93 205 OFFCURVE",
"81 193 OFFCURVE",
"81 178 CURVE SMOOTH",
"81 27 LINE SMOOTH",
"81 12 OFFCURVE",
"93 0 OFFCURVE",
"108 0 CURVE SMOOTH",
"742 0 LINE SMOOTH",
"757 0 OFFCURVE",
"769 12 OFFCURVE",
"769 27 CURVE SMOOTH",
"769 178 LINE SMOOTH",
"769 193 OFFCURVE",
"757 205 OFFCURVE",
"742 205 CURVE SMOOTH",
"561 205 LINE",
"561 495 LINE"
);
},
{
closed = 1;
nodes = (
"596 730 OFFCURVE",
"623 806 OFFCURVE",
"623 831 CURVE SMOOTH",
"623 841 OFFCURVE",
"616 850 OFFCURVE",
"604 850 CURVE SMOOTH",
"520 850 LINE SMOOTH",
"497 850 OFFCURVE",
"499 831 OFFCURVE",
"470 831 CURVE SMOOTH",
"437 831 OFFCURVE",
"414 855 OFFCURVE",
"362 855 CURVE SMOOTH",
"252 855 OFFCURVE",
"226 778 OFFCURVE",
"226 753 CURVE SMOOTH",
"226 743 OFFCURVE",
"235 735 OFFCURVE",
"245 735 CURVE SMOOTH",
"329 735 LINE SMOOTH",
"352 735 OFFCURVE",
"349 754 OFFCURVE",
"379 754 CURVE SMOOTH",
"412 754 OFFCURVE",
"435 730 OFFCURVE",
"487 730 CURVE SMOOTH"
);
}
);
width = 850;
}
);
unicode = 0128;
},
{
color = 4;
glyphname = J;
lastChange = "2016-09-08 17:15:01 +0000";
layers = (
{
layerId = UUID0;
paths = (
{
closed = 1;
nodes = (
"768 673 LINE SMOOTH",
"768 688 OFFCURVE",
"756 700 OFFCURVE",
"741 700 CURVE SMOOTH",
"133 700 LINE SMOOTH",
"118 700 OFFCURVE",
"106 688 OFFCURVE",
"106 673 CURVE SMOOTH",
"106 522 LINE SMOOTH",
"106 507 OFFCURVE",
"118 495 OFFCURVE",
"133 495 CURVE SMOOTH",
"498 495 LINE",
"498 270 LINE SMOOTH",
"498 215 OFFCURVE",
"457 185 OFFCURVE",
"396 185 CURVE SMOOTH",
"335 185 OFFCURVE",
"310 214 OFFCURVE",
"300 245 CURVE SMOOTH",
"296 258 OFFCURVE",
"287 267 OFFCURVE",
"275 267 CURVE SMOOTH",
"49 267 LINE SMOOTH",
"37 267 OFFCURVE",
"27 257 OFFCURVE",
"27 245 CURVE SMOOTH",
"27 131 OFFCURVE",
"147 -10 OFFCURVE",
"401 -10 CURVE SMOOTH",
"612 -10 OFFCURVE",
"768 79 OFFCURVE",
"768 291 CURVE SMOOTH"
);
}
);
width = 850;
}
);
unicode = 004A;
},
{
color = 4;
glyphname = Jcircumflex;
lastChange = "2016-09-08 17:15:01 +0000";
layers = (
{
layerId = UUID0;
paths = (
{
closed = 1;
nodes = (
"768 673 LINE SMOOTH",
"768 688 OFFCURVE",
"756 700 OFFCURVE",
"741 700 CURVE SMOOTH",
"133 700 LINE SMOOTH",
"118 700 OFFCURVE",
"106 688 OFFCURVE",
"106 673 CURVE SMOOTH",
"106 522 LINE SMOOTH",
"106 507 OFFCURVE",
"118 495 OFFCURVE",
"133 495 CURVE SMOOTH",
"498 495 LINE",
"498 270 LINE SMOOTH",
"498 215 OFFCURVE",
"457 185 OFFCURVE",
"396 185 CURVE SMOOTH",
"335 185 OFFCURVE",
"310 214 OFFCURVE",
"300 245 CURVE SMOOTH",
"296 258 OFFCURVE",
"287 267 OFFCURVE",
"275 267 CURVE SMOOTH",
"49 267 LINE SMOOTH",
"37 267 OFFCURVE",
"27 257 OFFCURVE",
"27 245 CURVE SMOOTH",
"27 131 OFFCURVE",
"147 -10 OFFCURVE",
"401 -10 CURVE SMOOTH",
"612 -10 OFFCURVE",
"768 79 OFFCURVE",
"768 291 CURVE SMOOTH"
);
},
{
closed = 1;
nodes = (
"435 760 LINE",
"492 738 LINE",
"508 733 OFFCURVE",
"519 731 OFFCURVE",
"532 731 CURVE SMOOTH",
"613 731 LINE SMOOTH",
"622 731 OFFCURVE",
"629 738 OFFCURVE",
"629 747 CURVE SMOOTH",
"629 755 OFFCURVE",
"624 759 OFFCURVE",
"621 761 CURVE SMOOTH",
"538 831 LINE",
"517 846 OFFCURVE",
"506 850 OFFCURVE",
"491 850 CURVE SMOOTH",
"379 850 LINE SMOOTH",
"364 850 OFFCURVE",
"353 846 OFFCURVE",
"332 831 CURVE",
"249 761 LINE SMOOTH",
"246 759 OFFCURVE",
"241 755 OFFCURVE",
"241 747 CURVE SMOOTH",
"241 738 OFFCURVE",
"248 731 OFFCURVE",
"257 731 CURVE SMOOTH",
"338 731 LINE SMOOTH",
"351 731 OFFCURVE",
"362 733 OFFCURVE",
"378 738 CURVE"
);
}
);
width = 850;
}
);
unicode = 0134;
},
{
color = 4;
glyphname = K;
lastChange = "2016-09-08 17:15:01 +0000";
layers = (
{
layerId = UUID0;
paths = (
{
closed = 1;
nodes = (
"568 375 LINE",
"805 664 LINE SMOOTH",
"809 669 OFFCURVE",
"810 674 OFFCURVE",
"810 678 CURVE SMOOTH",
"810 690 OFFCURVE",
"800 700 OFFCURVE",
"788 700 CURVE SMOOTH",
"547 700 LINE SMOOTH",
"528 700 OFFCURVE",
"517 691 OFFCURVE",
"510 683 CURVE SMOOTH",
"352 485 LINE",
"352 673 LINE SMOOTH",
"352 688 OFFCURVE",
"340 700 OFFCURVE",
"325 700 CURVE SMOOTH",
"119 700 LINE SMOOTH",
"104 700 OFFCURVE",
"92 688 OFFCURVE",
"92 673 CURVE SMOOTH",
"92 27 LINE SMOOTH",
"92 12 OFFCURVE",
"104 0 OFFCURVE",
"119 0 CURVE SMOOTH",
"325 0 LINE SMOOTH",
"340 0 OFFCURVE",
"352 12 OFFCURVE",
"352 27 CURVE SMOOTH",
"352 231 LINE",
"526 16 LINE SMOOTH",
"531 10 OFFCURVE",
"543 0 OFFCURVE",
"562 0 CURVE SMOOTH",
"820 0 LINE SMOOTH",
"832 0 OFFCURVE",
"842 10 OFFCURVE",
"842 22 CURVE SMOOTH",
"842 28 OFFCURVE",
"840 32 OFFCURVE",
"838 35 CURVE SMOOTH"
);
}
);
width = 850;
}
);
unicode = 004B;
},
{
color = 4;
glyphname = Kcommaaccent;
lastChange = "2016-09-08 17:15:01 +0000";
layers = (
{
layerId = UUID0;
paths = (
{
closed = 1;
nodes = (
"568 375 LINE",
"805 664 LINE SMOOTH",
"809 669 OFFCURVE",
"810 674 OFFCURVE",
"810 678 CURVE SMOOTH",
"810 690 OFFCURVE",
"800 700 OFFCURVE",
"788 700 CURVE SMOOTH",
"547 700 LINE SMOOTH",
"528 700 OFFCURVE",
"517 691 OFFCURVE",
"510 683 CURVE SMOOTH",
"352 485 LINE",
"352 673 LINE SMOOTH",
"352 688 OFFCURVE",
"340 700 OFFCURVE",
"325 700 CURVE SMOOTH",
"119 700 LINE SMOOTH",
"104 700 OFFCURVE",
"92 688 OFFCURVE",
"92 673 CURVE SMOOTH",
"92 27 LINE SMOOTH",
"92 12 OFFCURVE",
"104 0 OFFCURVE",
"119 0 CURVE SMOOTH",
"325 0 LINE SMOOTH",
"340 0 OFFCURVE",
"352 12 OFFCURVE",
"352 27 CURVE SMOOTH",
"352 231 LINE",
"526 16 LINE SMOOTH",
"531 10 OFFCURVE",
"543 0 OFFCURVE",
"562 0 CURVE SMOOTH",
"820 0 LINE SMOOTH",
"832 0 OFFCURVE",
"842 10 OFFCURVE",
"842 22 CURVE SMOOTH",
"842 28 OFFCURVE",
"840 32 OFFCURVE",
"838 35 CURVE SMOOTH"
);
},
{
closed = 1;
nodes = (
"261 -121 LINE SMOOTH",
"258 -124 OFFCURVE",
"256 -129 OFFCURVE",
"256 -134 CURVE SMOOTH",
"256 -144 OFFCURVE",
"262 -150 OFFCURVE",
"272 -150 CURVE SMOOTH",
"393 -150 LINE SMOOTH",
"397 -150 OFFCURVE",
"401 -150 OFFCURVE",
"405 -150 CURVE SMOOTH",
"415 -150 OFFCURVE",
"425 -149 OFFCURVE",
"433 -143 CURVE SMOOTH",
"528 -63 LINE SMOOTH",
"531 -60 OFFCURVE",
"533 -56 OFFCURVE",
"533 -51 CURVE SMOOTH",
"533 -39 OFFCURVE",
"526 -31 OFFCURVE",
"514 -31 CURVE SMOOTH",
"356 -31 LINE",
"341 -32 OFFCURVE",
"333 -33 OFFCURVE",
"319 -50 CURVE SMOOTH"
);
}
);
width = 850;
}
);
unicode = 0136;
},
{
color = 4;
glyphname = L;
lastChange = "2016-09-08 17:15:01 +0000";
layers = (
{
layerId = UUID0;
paths = (
{
closed = 1;
nodes = (
"410 205 LINE",
"410 673 LINE SMOOTH",
"410 688 OFFCURVE",
"398 700 OFFCURVE",
"383 700 CURVE SMOOTH",
"167 700 LINE SMOOTH",
"152 700 OFFCURVE",
"140 688 OFFCURVE",
"140 673 CURVE SMOOTH",
"140 27 LINE SMOOTH",
"140 12 OFFCURVE",
"152 0 OFFCURVE",
"167 0 CURVE SMOOTH",
"751 0 LINE SMOOTH",
"766 0 OFFCURVE",
"778 12 OFFCURVE",
"778 27 CURVE SMOOTH",
"778 178 LINE SMOOTH",
"778 193 OFFCURVE",
"766 205 OFFCURVE",
"751 205 CURVE SMOOTH"
);
}
);
width = 850;
}
);
unicode = 004C;
},
{
color = 4;
glyphname = Lacute;
lastChange = "2016-09-08 17:15:01 +0000";
layers = (
{
layerId = UUID0;
paths = (
{
closed = 1;
nodes = (
"410 205 LINE",
"410 673 LINE SMOOTH",
"410 688 OFFCURVE",
"398 700 OFFCURVE",
"383 700 CURVE SMOOTH",
"167 700 LINE SMOOTH",
"152 700 OFFCURVE",
"140 688 OFFCURVE",
"140 673 CURVE SMOOTH",
"140 27 LINE SMOOTH",
"140 12 OFFCURVE",
"152 0 OFFCURVE",
"167 0 CURVE SMOOTH",
"751 0 LINE SMOOTH",
"766 0 OFFCURVE",
"778 12 OFFCURVE",
"778 27 CURVE SMOOTH",
"778 178 LINE SMOOTH",
"778 193 OFFCURVE",
"766 205 OFFCURVE",
"751 205 CURVE SMOOTH"
);
},
{
closed = 1;
nodes = (
"182 760 LINE SMOOTH",
"179 757 OFFCURVE",
"177 752 OFFCURVE",
"177 747 CURVE SMOOTH",
"177 737 OFFCURVE",
"183 731 OFFCURVE",
"193 731 CURVE SMOOTH",
"314 731 LINE SMOOTH",
"318 731 OFFCURVE",
"322 731 OFFCURVE",
"326 731 CURVE SMOOTH",
"336 731 OFFCURVE",
"346 732 OFFCURVE",
"354 738 CURVE SMOOTH",
"449 818 LINE SMOOTH",
"452 821 OFFCURVE",
"454 825 OFFCURVE",
"454 830 CURVE SMOOTH",
"454 842 OFFCURVE",
"447 850 OFFCURVE",
"435 850 CURVE SMOOTH",
"277 850 LINE",
"262 849 OFFCURVE",
"254 848 OFFCURVE",
"240 831 CURVE SMOOTH"
);
}
);
width = 850;
}
);
unicode = 0139;
},
{
color = 4;
glyphname = Lcaron;
lastChange = "2016-09-08 17:15:01 +0000";
layers = (
{
layerId = UUID0;
paths = (
{
closed = 1;
nodes = (
"485 534 LINE SMOOTH",
"485 532 OFFCURVE",
"485 534 OFFCURVE",
"485 532 CURVE SMOOTH",
"485 520 OFFCURVE",
"495 510 OFFCURVE",
"507 510 CURVE SMOOTH",
"585 510 LINE SMOOTH",
"611 510 OFFCURVE",
"624 530 OFFCURVE",
"631 542 CURVE SMOOTH",
"712 682 LINE SMOOTH",
"713 685 OFFCURVE",
"713 687 OFFCURVE",
"713 689 CURVE SMOOTH",
"713 701 OFFCURVE",
"703 711 OFFCURVE",
"691 711 CURVE SMOOTH",
"556 711 LINE SMOOTH",
"529 711 OFFCURVE",
"511 690 OFFCURVE",
"508 672 CURVE SMOOTH"
);
},
{
closed = 1;
nodes = (
"410 205 LINE",
"410 673 LINE SMOOTH",
"410 688 OFFCURVE",
"398 700 OFFCURVE",
"383 700 CURVE SMOOTH",
"167 700 LINE SMOOTH",
"152 700 OFFCURVE",
"140 688 OFFCURVE",
"140 673 CURVE SMOOTH",
"140 27 LINE SMOOTH",
"140 12 OFFCURVE",
"152 0 OFFCURVE",
"167 0 CURVE SMOOTH",
"751 0 LINE SMOOTH",
"766 0 OFFCURVE",
"778 12 OFFCURVE",
"778 27 CURVE SMOOTH",
"778 178 LINE SMOOTH",
"778 193 OFFCURVE",
"766 205 OFFCURVE",
"751 205 CURVE SMOOTH"
);
}
);
width = 850;
}
);
unicode = 013D;
},
{
color = 4;
glyphname = Lcommaaccent;
lastChange = "2016-09-08 17:15:01 +0000";
layers = (
{
layerId = UUID0;
paths = (
{
closed = 1;
nodes = (
"410 205 LINE",
"410 673 LINE SMOOTH",
"410 688 OFFCURVE",
"398 700 OFFCURVE",
"383 700 CURVE SMOOTH",
"167 700 LINE SMOOTH",
"152 700 OFFCURVE",
"140 688 OFFCURVE",
"140 673 CURVE SMOOTH",
"140 27 LINE SMOOTH",
"140 12 OFFCURVE",
"152 0 OFFCURVE",
"167 0 CURVE SMOOTH",
"751 0 LINE SMOOTH",
"766 0 OFFCURVE",
"778 12 OFFCURVE",
"778 27 CURVE SMOOTH",
"778 178 LINE SMOOTH",
"778 193 OFFCURVE",
"766 205 OFFCURVE",
"751 205 CURVE SMOOTH"
);
},
{
closed = 1;
nodes = (
"283 -121 LINE SMOOTH",
"280 -124 OFFCURVE",
"278 -129 OFFCURVE",
"278 -134 CURVE SMOOTH",
"278 -144 OFFCURVE",
"284 -150 OFFCURVE",
"294 -150 CURVE SMOOTH",
"415 -150 LINE SMOOTH",
"419 -150 OFFCURVE",
"423 -150 OFFCURVE",
"427 -150 CURVE SMOOTH",
"437 -150 OFFCURVE",
"447 -149 OFFCURVE",
"455 -143 CURVE SMOOTH",
"550 -63 LINE SMOOTH",
"553 -60 OFFCURVE",
"555 -56 OFFCURVE",
"555 -51 CURVE SMOOTH",
"555 -39 OFFCURVE",
"548 -31 OFFCURVE",
"536 -31 CURVE SMOOTH",
"378 -31 LINE",
"363 -32 OFFCURVE",
"355 -33 OFFCURVE",
"341 -50 CURVE SMOOTH"
);
}
);
width = 850;
}
);
unicode = 013B;
},
{
color = 4;
glyphname = Ldot;
lastChange = "2016-09-08 17:15:01 +0000";
layers = (
{
layerId = UUID0;
paths = (
{
closed = 1;
nodes = (
"508 496 LINE SMOOTH",
"495 496 OFFCURVE",
"485 486 OFFCURVE",
"485 473 CURVE SMOOTH",
"485 337 LINE SMOOTH",
"485 324 OFFCURVE",
"495 314 OFFCURVE",
"508 314 CURVE SMOOTH",
"644 314 LINE SMOOTH",
"657 314 OFFCURVE",
"667 324 OFFCURVE",
"667 337 CURVE SMOOTH",
"667 473 LINE SMOOTH",
"667 486 OFFCURVE",
"657 496 OFFCURVE",
"644 496 CURVE SMOOTH"
);
},
{
closed = 1;
nodes = (
"410 205 LINE",
"410 673 LINE SMOOTH",
"410 688 OFFCURVE",
"398 700 OFFCURVE",
"383 700 CURVE SMOOTH",
"167 700 LINE SMOOTH",
"152 700 OFFCURVE",
"140 688 OFFCURVE",
"140 673 CURVE SMOOTH",
"140 27 LINE SMOOTH",
"140 12 OFFCURVE",
"152 0 OFFCURVE",
"167 0 CURVE SMOOTH",
"751 0 LINE SMOOTH",
"766 0 OFFCURVE",
"778 12 OFFCURVE",
"778 27 CURVE SMOOTH",
"778 178 LINE SMOOTH",
"778 193 OFFCURVE",
"766 205 OFFCURVE",
"751 205 CURVE SMOOTH"
);
}
);
width = 850;
}
);
unicode = 013F;
},
{
color = 4;
glyphname = Lslash;
lastChange = "2016-09-08 17:15:01 +0000";
layers = (
{
layerId = UUID0;
paths = (
{
closed = 1;
nodes = (
"410 205 LINE",
"410 324 LINE",
"594 398 LINE SMOOTH",
"610 404 OFFCURVE",
"616 413 OFFCURVE",
"616 431 CURVE SMOOTH",
"616 539 LINE SMOOTH",
"616 551 OFFCURVE",
"607 560 OFFCURVE",
"595 560 CURVE SMOOTH",
"593 560 OFFCURVE",
"589 559 OFFCURVE",
"584 557 CURVE SMOOTH",
"410 487 LINE",
"410 673 LINE SMOOTH",
"410 688 OFFCURVE",
"398 700 OFFCURVE",
"383 700 CURVE SMOOTH",
"167 700 LINE SMOOTH",
"152 700 OFFCURVE",
"140 688 OFFCURVE",
"140 673 CURVE SMOOTH",
"140 380 LINE",
"107 367 LINE SMOOTH",
"91 361 OFFCURVE",
"85 352 OFFCURVE",
"85 334 CURVE SMOOTH",
"85 226 LINE SMOOTH",
"85 214 OFFCURVE",
"94 205 OFFCURVE",
"106 205 CURVE SMOOTH",
"108 205 OFFCURVE",
"112 206 OFFCURVE",
"117 208 CURVE SMOOTH",
"140 217 LINE",
"140 27 LINE SMOOTH",
"140 12 OFFCURVE",
"152 0 OFFCURVE",
"167 0 CURVE SMOOTH",
"751 0 LINE SMOOTH",
"766 0 OFFCURVE",
"778 12 OFFCURVE",
"778 27 CURVE SMOOTH",
"778 178 LINE SMOOTH",
"778 193 OFFCURVE",
"766 205 OFFCURVE",
"751 205 CURVE SMOOTH"
);
}
);
width = 850;
}
);
unicode = 0141;
},
{
color = 4;
glyphname = M;
lastChange = "2016-09-08 17:15:01 +0000";
layers = (
{
layerId = UUID0;
paths = (
{
closed = 1;
nodes = (
"425 433 LINE",
"294 673 LINE SMOOTH",
"290 680 OFFCURVE",
"278 700 OFFCURVE",
"251 700 CURVE SMOOTH",
"68 700 LINE SMOOTH",
"53 700 OFFCURVE",
"41 688 OFFCURVE",
"41 673 CURVE SMOOTH",
"41 27 LINE SMOOTH",
"41 12 OFFCURVE",
"53 0 OFFCURVE",
"68 0 CURVE SMOOTH",
"249 0 LINE SMOOTH",
"264 0 OFFCURVE",
"276 12 OFFCURVE",
"276 27 CURVE SMOOTH",
"276 337 LINE",
"349 193 LINE SMOOTH",
"351 188 OFFCURVE",
"364 168 OFFCURVE",
"391 168 CURVE SMOOTH",
"459 168 LINE SMOOTH",
"486 168 OFFCURVE",
"499 188 OFFCURVE",
"501 193 CURVE SMOOTH",
"574 337 LINE",
"574 27 LINE SMOOTH",
"574 12 OFFCURVE",
"586 0 OFFCURVE",
"601 0 CURVE SMOOTH",
"782 0 LINE SMOOTH",
"797 0 OFFCURVE",
"809 12 OFFCURVE",
"809 27 CURVE SMOOTH",
"809 673 LINE SMOOTH",
"809 688 OFFCURVE",
"797 700 OFFCURVE",
"782 700 CURVE SMOOTH",
"599 700 LINE SMOOTH",
"572 700 OFFCURVE",
"560 680 OFFCURVE",
"556 673 CURVE SMOOTH"
);
}
);
width = 850;
}
);
unicode = 004D;
},
{
color = 4;
glyphname = N;
lastChange = "2016-09-08 17:15:01 +0000";
layers = (
{
layerId = UUID0;
paths = (
{
closed = 1;
nodes = (
"552 700 LINE SMOOTH",
"537 700 OFFCURVE",
"525 688 OFFCURVE",
"525 673 CURVE SMOOTH",
"525 379 LINE",
"307 680 LINE SMOOTH",
"304 684 OFFCURVE",
"293 700 OFFCURVE",
"268 700 CURVE SMOOTH",
"106 700 LINE SMOOTH",
"91 700 OFFCURVE",
"79 688 OFFCURVE",
"79 673 CURVE SMOOTH",
"79 27 LINE SMOOTH",
"79 12 OFFCURVE",
"91 0 OFFCURVE",
"106 0 CURVE SMOOTH",
"292 0 LINE SMOOTH",
"307 0 OFFCURVE",
"319 12 OFFCURVE",
"319 27 CURVE SMOOTH",
"319 299 LINE",
"537 21 LINE SMOOTH",
"544 12 OFFCURVE",
"555 0 OFFCURVE",
"577 0 CURVE SMOOTH",
"738 0 LINE SMOOTH",
"753 0 OFFCURVE",
"765 12 OFFCURVE",
"765 27 CURVE SMOOTH",
"765 673 LINE SMOOTH",
"765 688 OFFCURVE",
"753 700 OFFCURVE",
"738 700 CURVE SMOOTH"
);
}
);
width = 850;
}
);
unicode = 004E;
},
{
color = 4;
glyphname = Nacute;
lastChange = "2016-09-08 17:15:01 +0000";
layers = (
{
layerId = UUID0;
paths = (
{
closed = 1;
nodes = (
"552 700 LINE SMOOTH",
"537 700 OFFCURVE",
"525 688 OFFCURVE",
"525 673 CURVE SMOOTH",
"525 379 LINE",
"307 680 LINE SMOOTH",
"304 684 OFFCURVE",
"293 700 OFFCURVE",
"268 700 CURVE SMOOTH",
"106 700 LINE SMOOTH",
"91 700 OFFCURVE",
"79 688 OFFCURVE",
"79 673 CURVE SMOOTH",
"79 27 LINE SMOOTH",
"79 12 OFFCURVE",
"91 0 OFFCURVE",
"106 0 CURVE SMOOTH",
"292 0 LINE SMOOTH",
"307 0 OFFCURVE",
"319 12 OFFCURVE",
"319 27 CURVE SMOOTH",
"319 299 LINE",
"537 21 LINE SMOOTH",
"544 12 OFFCURVE",
"555 0 OFFCURVE",
"577 0 CURVE SMOOTH",
"738 0 LINE SMOOTH",
"753 0 OFFCURVE",
"765 12 OFFCURVE",
"765 27 CURVE SMOOTH",
"765 673 LINE SMOOTH",
"765 688 OFFCURVE",
"753 700 OFFCURVE",
"738 700 CURVE SMOOTH"
);
},
{
closed = 1;
nodes = (
"331 760 LINE SMOOTH",
"328 757 OFFCURVE",
"326 752 OFFCURVE",
"326 747 CURVE SMOOTH",
"326 737 OFFCURVE",
"332 731 OFFCURVE",
"342 731 CURVE SMOOTH",
"463 731 LINE SMOOTH",
"467 731 OFFCURVE",
"471 731 OFFCURVE",
"475 731 CURVE SMOOTH",
"485 731 OFFCURVE",
"495 732 OFFCURVE",
"503 738 CURVE SMOOTH",
"598 818 LINE SMOOTH",
"601 821 OFFCURVE",
"603 825 OFFCURVE",
"603 830 CURVE SMOOTH",
"603 842 OFFCURVE",
"596 850 OFFCURVE",
"584 850 CURVE SMOOTH",
"426 850 LINE",
"411 849 OFFCURVE",
"403 848 OFFCURVE",
"389 831 CURVE SMOOTH"
);
}
);
width = 850;
}
);
unicode = 0143;
},
{
color = 4;
glyphname = Ncaron;
lastChange = "2016-09-08 17:15:01 +0000";
layers = (
{
layerId = UUID0;
paths = (
{
closed = 1;
nodes = (
"552 700 LINE SMOOTH",
"537 700 OFFCURVE",
"525 688 OFFCURVE",
"525 673 CURVE SMOOTH",
"525 379 LINE",
"307 680 LINE SMOOTH",
"304 684 OFFCURVE",
"293 700 OFFCURVE",
"268 700 CURVE SMOOTH",
"106 700 LINE SMOOTH",
"91 700 OFFCURVE",
"79 688 OFFCURVE",
"79 673 CURVE SMOOTH",
"79 27 LINE SMOOTH",
"79 12 OFFCURVE",
"91 0 OFFCURVE",
"106 0 CURVE SMOOTH",
"292 0 LINE SMOOTH",
"307 0 OFFCURVE",
"319 12 OFFCURVE",
"319 27 CURVE SMOOTH",
"319 299 LINE",
"537 21 LINE SMOOTH",
"544 12 OFFCURVE",
"555 0 OFFCURVE",
"577 0 CURVE SMOOTH",
"738 0 LINE SMOOTH",
"753 0 OFFCURVE",
"765 12 OFFCURVE",
"765 27 CURVE SMOOTH",
"765 673 LINE SMOOTH",
"765 688 OFFCURVE",
"753 700 OFFCURVE",
"738 700 CURVE SMOOTH"
);
},
{
closed = 1;
nodes = (
"425 821 LINE",
"368 843 LINE",
"352 848 OFFCURVE",
"341 850 OFFCURVE",
"328 850 CURVE SMOOTH",
"247 850 LINE SMOOTH",
"238 850 OFFCURVE",
"231 843 OFFCURVE",
"231 834 CURVE SMOOTH",
"231 826 OFFCURVE",
"236 822 OFFCURVE",
"239 820 CURVE SMOOTH",
"322 750 LINE",
"343 735 OFFCURVE",
"354 731 OFFCURVE",
"369 731 CURVE SMOOTH",
"481 731 LINE SMOOTH",
"496 731 OFFCURVE",
"507 735 OFFCURVE",
"528 750 CURVE",
"611 820 LINE SMOOTH",
"614 822 OFFCURVE",
"619 826 OFFCURVE",
"619 834 CURVE SMOOTH",
"619 843 OFFCURVE",
"612 850 OFFCURVE",
"603 850 CURVE SMOOTH",
"522 850 LINE SMOOTH",
"509 850 OFFCURVE",
"498 848 OFFCURVE",
"482 843 CURVE"
);
}
);
width = 850;
}
);
unicode = 0147;
},
{
color = 4;
glyphname = Ncommaaccent;
lastChange = "2016-09-08 17:15:01 +0000";
layers = (
{
layerId = UUID0;
paths = (
{
closed = 1;
nodes = (
"552 700 LINE SMOOTH",
"537 700 OFFCURVE",
"525 688 OFFCURVE",
"525 673 CURVE SMOOTH",
"525 379 LINE",
"307 680 LINE SMOOTH",
"304 684 OFFCURVE",
"293 700 OFFCURVE",
"268 700 CURVE SMOOTH",
"106 700 LINE SMOOTH",
"91 700 OFFCURVE",
"79 688 OFFCURVE",
"79 673 CURVE SMOOTH",
"79 27 LINE SMOOTH",
"79 12 OFFCURVE",
"91 0 OFFCURVE",
"106 0 CURVE SMOOTH",
"292 0 LINE SMOOTH",
"307 0 OFFCURVE",
"319 12 OFFCURVE",
"319 27 CURVE SMOOTH",
"319 299 LINE",
"537 21 LINE SMOOTH",
"544 12 OFFCURVE",
"555 0 OFFCURVE",
"577 0 CURVE SMOOTH",
"738 0 LINE SMOOTH",
"753 0 OFFCURVE",
"765 12 OFFCURVE",
"765 27 CURVE SMOOTH",
"765 673 LINE SMOOTH",
"765 688 OFFCURVE",
"753 700 OFFCURVE",
"738 700 CURVE SMOOTH"
);
},
{
closed = 1;
nodes = (
"261 -121 LINE SMOOTH",
"258 -124 OFFCURVE",
"256 -129 OFFCURVE",
"256 -134 CURVE SMOOTH",
"256 -144 OFFCURVE",
"262 -150 OFFCURVE",
"272 -150 CURVE SMOOTH",
"393 -150 LINE SMOOTH",
"397 -150 OFFCURVE",
"401 -150 OFFCURVE",
"405 -150 CURVE SMOOTH",
"415 -150 OFFCURVE",
"425 -149 OFFCURVE",
"433 -143 CURVE SMOOTH",
"528 -63 LINE SMOOTH",
"531 -60 OFFCURVE",
"533 -56 OFFCURVE",
"533 -51 CURVE SMOOTH",
"533 -39 OFFCURVE",
"526 -31 OFFCURVE",
"514 -31 CURVE SMOOTH",
"356 -31 LINE",
"341 -32 OFFCURVE",
"333 -33 OFFCURVE",
"319 -50 CURVE SMOOTH"
);
}
);
width = 850;
}
);
unicode = 0145;
},
{
color = 4;
glyphname = Eng;
lastChange = "2016-09-08 17:15:01 +0000";
layers = (
{
layerId = UUID0;
paths = (
{
closed = 1;
nodes = (
"423 -40 LINE SMOOTH",
"408 -40 OFFCURVE",
"396 -52 OFFCURVE",
"396 -67 CURVE SMOOTH",
"396 -123 LINE SMOOTH",
"396 -138 OFFCURVE",
"408 -150 OFFCURVE",
"423 -150 CURVE SMOOTH",
"493 -150 LINE SMOOTH",
"640 -150 OFFCURVE",
"765 -103 OFFCURVE",
"765 108 CURVE SMOOTH",
"765 673 LINE SMOOTH",
"765 688 OFFCURVE",
"753 700 OFFCURVE",
"738 700 CURVE SMOOTH",
"552 700 LINE SMOOTH",
"537 700 OFFCURVE",
"525 688 OFFCURVE",
"525 673 CURVE SMOOTH",
"525 379 LINE",
"307 680 LINE SMOOTH",
"304 684 OFFCURVE",
"293 700 OFFCURVE",
"268 700 CURVE SMOOTH",
"106 700 LINE SMOOTH",
"91 700 OFFCURVE",
"79 688 OFFCURVE",
"79 673 CURVE SMOOTH",
"79 27 LINE SMOOTH",
"79 12 OFFCURVE",
"91 0 OFFCURVE",
"106 0 CURVE SMOOTH",
"292 0 LINE SMOOTH",
"307 0 OFFCURVE",
"319 12 OFFCURVE",
"319 27 CURVE SMOOTH",
"319 299 LINE",
"524 36 LINE",
"521 -7 OFFCURVE",
"490 -33 OFFCURVE",
"445 -39 CURVE"
);
}
);
width = 850;
}
);
unicode = 014A;
},
{
color = 4;
glyphname = Ntilde;
lastChange = "2016-09-08 17:15:01 +0000";
layers = (
{
layerId = UUID0;
paths = (
{
closed = 1;
nodes = (
"599 733 OFFCURVE",
"626 811 OFFCURVE",
"626 836 CURVE SMOOTH",
"626 846 OFFCURVE",
"619 855 OFFCURVE",
"607 855 CURVE SMOOTH",
"523 855 LINE SMOOTH",
"516 855 OFFCURVE",
"511 851 OFFCURVE",
"508 846 CURVE SMOOTH",
"502 837 OFFCURVE",
"489 834 OFFCURVE",
"473 834 CURVE SMOOTH",
"440 834 OFFCURVE",
"417 858 OFFCURVE",
"365 858 CURVE SMOOTH",
"255 858 OFFCURVE",
"229 779 OFFCURVE",
"229 754 CURVE SMOOTH",
"229 744 OFFCURVE",
"238 736 OFFCURVE",
"248 736 CURVE SMOOTH",
"332 736 LINE SMOOTH",
"339 736 OFFCURVE",
"344 740 OFFCURVE",
"347 745 CURVE SMOOTH",
"353 753 OFFCURVE",
"365 757 OFFCURVE",
"382 757 CURVE SMOOTH",
"415 757 OFFCURVE",
"438 733 OFFCURVE",
"490 733 CURVE SMOOTH"
);
},
{
closed = 1;
nodes = (
"552 700 LINE SMOOTH",
"537 700 OFFCURVE",
"525 688 OFFCURVE",
"525 673 CURVE SMOOTH",
"525 379 LINE",
"307 680 LINE SMOOTH",
"304 684 OFFCURVE",
"293 700 OFFCURVE",
"268 700 CURVE SMOOTH",
"106 700 LINE SMOOTH",
"91 700 OFFCURVE",
"79 688 OFFCURVE",
"79 673 CURVE SMOOTH",
"79 27 LINE SMOOTH",
"79 12 OFFCURVE",
"91 0 OFFCURVE",
"106 0 CURVE SMOOTH",
"292 0 LINE SMOOTH",
"307 0 OFFCURVE",
"319 12 OFFCURVE",
"319 27 CURVE SMOOTH",
"319 299 LINE",
"537 21 LINE SMOOTH",
"544 12 OFFCURVE",
"555 0 OFFCURVE",
"577 0 CURVE SMOOTH",
"738 0 LINE SMOOTH",
"753 0 OFFCURVE",
"765 12 OFFCURVE",
"765 27 CURVE SMOOTH",
"765 673 LINE SMOOTH",
"765 688 OFFCURVE",
"753 700 OFFCURVE",
"738 700 CURVE SMOOTH"
);
}
);
width = 850;
}
);
unicode = 00D1;
},
{
color = 4;
glyphname = O;
lastChange = "2016-09-08 17:15:01 +0000";
layers = (
{
layerId = UUID0;
paths = (
{
closed = 1;
nodes = (
"797 411 LINE SMOOTH",
"797 620 OFFCURVE",
"631 710 OFFCURVE",
"425 710 CURVE SMOOTH",
"219 710 OFFCURVE",
"53 621 OFFCURVE",
"53 409 CURVE SMOOTH",
"53 291 LINE SMOOTH",
"53 74 OFFCURVE",
"214 -10 OFFCURVE",
"425 -10 CURVE SMOOTH",
"636 -10 OFFCURVE",
"797 75 OFFCURVE",
"797 289 CURVE SMOOTH"
);
},
{
closed = 1;
nodes = (
"323 430 LINE SMOOTH",
"323 485 OFFCURVE",
"364 515 OFFCURVE",
"425 515 CURVE SMOOTH",
"486 515 OFFCURVE",
"527 485 OFFCURVE",
"527 429 CURVE SMOOTH",
"527 271 LINE SMOOTH",
"527 215 OFFCURVE",
"486 185 OFFCURVE",
"425 185 CURVE SMOOTH",
"364 185 OFFCURVE",
"323 215 OFFCURVE",
"323 270 CURVE SMOOTH"
);
}
);
width = 850;
}
);
unicode = 004F;
},
{
color = 4;
glyphname = Oacute;
lastChange = "2016-09-08 17:15:01 +0000";
layers = (
{
layerId = UUID0;
paths = (
{
closed = 1;
nodes = (
"797 411 LINE SMOOTH",
"797 620 OFFCURVE",
"631 710 OFFCURVE",
"425 710 CURVE SMOOTH",
"219 710 OFFCURVE",
"53 621 OFFCURVE",
"53 409 CURVE SMOOTH",
"53 291 LINE SMOOTH",
"53 74 OFFCURVE",
"214 -10 OFFCURVE",
"425 -10 CURVE SMOOTH",
"636 -10 OFFCURVE",
"797 75 OFFCURVE",
"797 289 CURVE SMOOTH"
);
},
{
closed = 1;
nodes = (
"323 430 LINE SMOOTH",
"323 485 OFFCURVE",
"364 515 OFFCURVE",
"425 515 CURVE SMOOTH",
"486 515 OFFCURVE",
"527 485 OFFCURVE",
"527 429 CURVE SMOOTH",
"527 271 LINE SMOOTH",
"527 215 OFFCURVE",
"486 185 OFFCURVE",
"425 185 CURVE SMOOTH",
"364 185 OFFCURVE",
"323 215 OFFCURVE",
"323 270 CURVE SMOOTH"
);
},
{
closed = 1;
nodes = (
"329 760 LINE SMOOTH",
"326 757 OFFCURVE",
"324 752 OFFCURVE",
"324 747 CURVE SMOOTH",
"324 737 OFFCURVE",
"330 731 OFFCURVE",
"340 731 CURVE SMOOTH",
"461 731 LINE SMOOTH",
"465 731 OFFCURVE",
"469 731 OFFCURVE",
"473 731 CURVE SMOOTH",
"483 731 OFFCURVE",
"493 732 OFFCURVE",
"501 738 CURVE SMOOTH",
"596 818 LINE SMOOTH",
"599 821 OFFCURVE",
"601 825 OFFCURVE",
"601 830 CURVE SMOOTH",
"601 842 OFFCURVE",
"594 850 OFFCURVE",
"582 850 CURVE SMOOTH",
"424 850 LINE",
"409 849 OFFCURVE",
"401 848 OFFCURVE",
"387 831 CURVE SMOOTH"
);
}
);
width = 850;
}
);
unicode = 00D3;
},
{
color = 4;
glyphname = Obreve;
lastChange = "2016-09-08 17:15:01 +0000";
layers = (
{
layerId = UUID0;
paths = (
{
closed = 1;
nodes = (
"797 411 LINE SMOOTH",
"797 620 OFFCURVE",
"631 710 OFFCURVE",
"425 710 CURVE SMOOTH",
"219 710 OFFCURVE",
"53 621 OFFCURVE",
"53 409 CURVE SMOOTH",
"53 291 LINE SMOOTH",
"53 74 OFFCURVE",
"214 -10 OFFCURVE",
"425 -10 CURVE SMOOTH",
"636 -10 OFFCURVE",
"797 75 OFFCURVE",
"797 289 CURVE SMOOTH"
);
},
{
closed = 1;
nodes = (
"323 430 LINE SMOOTH",
"323 485 OFFCURVE",
"364 515 OFFCURVE",
"425 515 CURVE SMOOTH",
"486 515 OFFCURVE",
"527 485 OFFCURVE",
"527 429 CURVE SMOOTH",
"527 271 LINE SMOOTH",
"527 215 OFFCURVE",
"486 185 OFFCURVE",
"425 185 CURVE SMOOTH",
"364 185 OFFCURVE",
"323 215 OFFCURVE",
"323 270 CURVE SMOOTH"
);
},
{
closed = 1;
nodes = (
"460 833 OFFCURVE",
"453 817 OFFCURVE",
"423 817 CURVE SMOOTH",
"393 817 OFFCURVE",
"385 834 OFFCURVE",
"383 842 CURVE SMOOTH",
"381 849 OFFCURVE",
"376 855 OFFCURVE",
"364 855 CURVE SMOOTH",
"265 855 LINE SMOOTH",
"253 855 OFFCURVE",
"246 849 OFFCURVE",
"246 842 CURVE SMOOTH",
"246 784 OFFCURVE",
"303 730 OFFCURVE",
"423 730 CURVE SMOOTH",
"544 730 OFFCURVE",
"601 784 OFFCURVE",
"601 842 CURVE SMOOTH",
"601 849 OFFCURVE",
"594 855 OFFCURVE",
"582 855 CURVE SMOOTH",
"483 855 LINE SMOOTH",
"471 855 OFFCURVE",
"467 848 OFFCURVE",
"464 842 CURVE SMOOTH"
);
}
);
width = 850;
}
);
unicode = 014E;
},
{
color = 4;
glyphname = Ocircumflex;
lastChange = "2016-09-08 17:15:01 +0000";
layers = (
{
layerId = UUID0;
paths = (
{
closed = 1;
nodes = (
"797 411 LINE SMOOTH",
"797 620 OFFCURVE",
"631 710 OFFCURVE",
"425 710 CURVE SMOOTH",
"219 710 OFFCURVE",
"53 621 OFFCURVE",
"53 409 CURVE SMOOTH",
"53 291 LINE SMOOTH",
"53 74 OFFCURVE",
"214 -10 OFFCURVE",
"425 -10 CURVE SMOOTH",
"636 -10 OFFCURVE",
"797 75 OFFCURVE",
"797 289 CURVE SMOOTH"
);
},
{
closed = 1;
nodes = (
"323 430 LINE SMOOTH",
"323 485 OFFCURVE",
"364 515 OFFCURVE",
"425 515 CURVE SMOOTH",
"486 515 OFFCURVE",
"527 485 OFFCURVE",
"527 429 CURVE SMOOTH",
"527 271 LINE SMOOTH",
"527 215 OFFCURVE",
"486 185 OFFCURVE",
"425 185 CURVE SMOOTH",
"364 185 OFFCURVE",
"323 215 OFFCURVE",
"323 270 CURVE SMOOTH"
);
},
{
closed = 1;
nodes = (
"426 760 LINE",
"483 738 LINE",
"499 733 OFFCURVE",
"510 731 OFFCURVE",
"523 731 CURVE SMOOTH",
"604 731 LINE SMOOTH",
"613 731 OFFCURVE",
"620 738 OFFCURVE",
"620 747 CURVE SMOOTH",
"620 755 OFFCURVE",
"615 759 OFFCURVE",
"612 761 CURVE SMOOTH",
"529 831 LINE",
"508 846 OFFCURVE",
"497 850 OFFCURVE",
"482 850 CURVE SMOOTH",
"370 850 LINE SMOOTH",
"355 850 OFFCURVE",
"344 846 OFFCURVE",
"323 831 CURVE",
"240 761 LINE SMOOTH",
"237 759 OFFCURVE",
"232 755 OFFCURVE",
"232 747 CURVE SMOOTH",
"232 738 OFFCURVE",
"239 731 OFFCURVE",
"248 731 CURVE SMOOTH",
"329 731 LINE SMOOTH",
"342 731 OFFCURVE",
"353 733 OFFCURVE",
"369 738 CURVE"
);
}
);
width = 850;
}
);
unicode = 00D4;
},
{
color = 4;
glyphname = Odieresis;
lastChange = "2016-09-08 17:15:01 +0000";
layers = (
{
layerId = UUID0;
paths = (
{
closed = 1;
nodes = (
"493 854 LINE SMOOTH",
"480 854 OFFCURVE",
"470 844 OFFCURVE",
"470 831 CURVE SMOOTH",
"470 758 LINE SMOOTH",
"470 745 OFFCURVE",
"480 735 OFFCURVE",
"493 735 CURVE SMOOTH",
"609 735 LINE SMOOTH",
"622 735 OFFCURVE",
"632 745 OFFCURVE",
"632 758 CURVE SMOOTH",
"632 831 LINE SMOOTH",
"632 844 OFFCURVE",
"622 854 OFFCURVE",
"609 854 CURVE SMOOTH"
);
},
{
closed = 1;
nodes = (
"242 854 LINE SMOOTH",
"229 854 OFFCURVE",
"219 844 OFFCURVE",
"219 831 CURVE SMOOTH",
"219 758 LINE SMOOTH",
"219 745 OFFCURVE",
"229 735 OFFCURVE",
"242 735 CURVE SMOOTH",
"358 735 LINE SMOOTH",
"371 735 OFFCURVE",
"381 745 OFFCURVE",
"381 758 CURVE SMOOTH",
"381 831 LINE SMOOTH",
"381 844 OFFCURVE",
"371 854 OFFCURVE",
"358 854 CURVE SMOOTH"
);
},
{
closed = 1;
nodes = (
"797 411 LINE SMOOTH",
"797 620 OFFCURVE",
"631 710 OFFCURVE",
"425 710 CURVE SMOOTH",
"219 710 OFFCURVE",
"53 621 OFFCURVE",
"53 409 CURVE SMOOTH",
"53 291 LINE SMOOTH",
"53 74 OFFCURVE",
"214 -10 OFFCURVE",
"425 -10 CURVE SMOOTH",
"636 -10 OFFCURVE",
"797 75 OFFCURVE",
"797 289 CURVE SMOOTH"
);
},
{
closed = 1;
nodes = (
"323 430 LINE SMOOTH",
"323 485 OFFCURVE",
"364 515 OFFCURVE",
"425 515 CURVE SMOOTH",
"486 515 OFFCURVE",
"527 485 OFFCURVE",
"527 429 CURVE SMOOTH",
"527 271 LINE SMOOTH",
"527 215 OFFCURVE",
"486 185 OFFCURVE",
"425 185 CURVE SMOOTH",
"364 185 OFFCURVE",
"323 215 OFFCURVE",
"323 270 CURVE SMOOTH"
);
}
);
width = 850;
}
);
unicode = 00D6;
},
{
color = 4;
glyphname = Ograve;
lastChange = "2016-09-08 17:15:01 +0000";
layers = (
{
layerId = UUID0;
paths = (
{
closed = 1;
nodes = (
"797 411 LINE SMOOTH",
"797 620 OFFCURVE",
"631 710 OFFCURVE",
"425 710 CURVE SMOOTH",
"219 710 OFFCURVE",
"53 621 OFFCURVE",
"53 409 CURVE SMOOTH",
"53 291 LINE SMOOTH",
"53 74 OFFCURVE",
"214 -10 OFFCURVE",
"425 -10 CURVE SMOOTH",
"636 -10 OFFCURVE",
"797 75 OFFCURVE",
"797 289 CURVE SMOOTH"
);
},
{
closed = 1;
nodes = (
"323 430 LINE SMOOTH",
"323 485 OFFCURVE",
"364 515 OFFCURVE",
"425 515 CURVE SMOOTH",
"486 515 OFFCURVE",
"527 485 OFFCURVE",
"527 429 CURVE SMOOTH",
"527 271 LINE SMOOTH",
"527 215 OFFCURVE",
"486 185 OFFCURVE",
"425 185 CURVE SMOOTH",
"364 185 OFFCURVE",
"323 215 OFFCURVE",
"323 270 CURVE SMOOTH"
);
},
{
closed = 1;
nodes = (
"459 831 LINE SMOOTH",
"445 848 OFFCURVE",
"437 849 OFFCURVE",
"422 850 CURVE",
"264 850 LINE SMOOTH",
"252 850 OFFCURVE",
"245 842 OFFCURVE",
"245 830 CURVE SMOOTH",
"245 825 OFFCURVE",
"247 821 OFFCURVE",
"250 818 CURVE SMOOTH",
"345 738 LINE SMOOTH",
"353 732 OFFCURVE",
"363 731 OFFCURVE",
"373 731 CURVE SMOOTH",
"377 731 OFFCURVE",
"381 731 OFFCURVE",
"385 731 CURVE SMOOTH",
"506 731 LINE SMOOTH",
"516 731 OFFCURVE",
"522 737 OFFCURVE",
"522 747 CURVE SMOOTH",
"522 752 OFFCURVE",
"520 757 OFFCURVE",
"517 760 CURVE SMOOTH"
);
}
);
width = 850;
}
);
unicode = 00D2;
},
{
color = 4;
glyphname = Ohungarumlaut;
lastChange = "2016-09-08 17:15:01 +0000";
layers = (
{
layerId = UUID0;
paths = (
{
closed = 1;
nodes = (
"797 411 LINE SMOOTH",
"797 620 OFFCURVE",
"631 710 OFFCURVE",
"425 710 CURVE SMOOTH",
"219 710 OFFCURVE",
"53 621 OFFCURVE",
"53 409 CURVE SMOOTH",
"53 291 LINE SMOOTH",
"53 74 OFFCURVE",
"214 -10 OFFCURVE",
"425 -10 CURVE SMOOTH",
"636 -10 OFFCURVE",
"797 75 OFFCURVE",
"797 289 CURVE SMOOTH"
);
},
{
closed = 1;
nodes = (
"323 430 LINE SMOOTH",
"323 485 OFFCURVE",
"364 515 OFFCURVE",
"425 515 CURVE SMOOTH",
"486 515 OFFCURVE",
"527 485 OFFCURVE",
"527 429 CURVE SMOOTH",
"527 271 LINE SMOOTH",
"527 215 OFFCURVE",
"486 185 OFFCURVE",
"425 185 CURVE SMOOTH",
"364 185 OFFCURVE",
"323 215 OFFCURVE",
"323 270 CURVE SMOOTH"
);
},
{
closed = 1;
nodes = (
"251 760 LINE SMOOTH",
"249 756 OFFCURVE",
"246 752 OFFCURVE",
"246 747 CURVE SMOOTH",
"246 737 OFFCURVE",
"252 731 OFFCURVE",
"262 731 CURVE SMOOTH",
"363 731 LINE SMOOTH",
"367 731 OFFCURVE",
"371 731 OFFCURVE",
"375 731 CURVE SMOOTH",
"385 731 OFFCURVE",
"395 732 OFFCURVE",
"403 738 CURVE",
"478 818 LINE SMOOTH",
"481 821 OFFCURVE",
"483 825 OFFCURVE",
"483 830 CURVE SMOOTH",
"483 842 OFFCURVE",
"476 850 OFFCURVE",
"464 850 CURVE SMOOTH",
"326 850 LINE",
"311 849 OFFCURVE",
"303 848 OFFCURVE",
"289 831 CURVE"
);
},
{
closed = 1;
nodes = (
"484 760 LINE SMOOTH",
"482 756 OFFCURVE",
"479 752 OFFCURVE",
"479 747 CURVE SMOOTH",
"479 737 OFFCURVE",
"485 731 OFFCURVE",
"495 731 CURVE SMOOTH",
"596 731 LINE SMOOTH",
"600 731 OFFCURVE",
"604 731 OFFCURVE",
"608 731 CURVE SMOOTH",
"618 731 OFFCURVE",
"628 732 OFFCURVE",
"636 738 CURVE",
"711 818 LINE SMOOTH",
"714 821 OFFCURVE",
"716 825 OFFCURVE",
"716 830 CURVE SMOOTH",
"716 842 OFFCURVE",
"709 850 OFFCURVE",
"697 850 CURVE SMOOTH",
"559 850 LINE",
"544 849 OFFCURVE",
"536 848 OFFCURVE",
"522 831 CURVE"
);
}
);
width = 850;
}
);
unicode = 0150;
},
{
color = 4;
glyphname = Omacron;
lastChange = "2016-09-08 17:15:01 +0000";
layers = (
{
layerId = UUID0;
paths = (
{
closed = 1;
nodes = (
"797 411 LINE SMOOTH",
"797 620 OFFCURVE",
"631 710 OFFCURVE",
"425 710 CURVE SMOOTH",
"219 710 OFFCURVE",
"53 621 OFFCURVE",
"53 409 CURVE SMOOTH",
"53 291 LINE SMOOTH",
"53 74 OFFCURVE",
"214 -10 OFFCURVE",
"425 -10 CURVE SMOOTH",
"636 -10 OFFCURVE",
"797 75 OFFCURVE",
"797 289 CURVE SMOOTH"
);
},
{
closed = 1;
nodes = (
"323 430 LINE SMOOTH",
"323 485 OFFCURVE",
"364 515 OFFCURVE",
"425 515 CURVE SMOOTH",
"486 515 OFFCURVE",
"527 485 OFFCURVE",
"527 429 CURVE SMOOTH",
"527 271 LINE SMOOTH",
"527 215 OFFCURVE",
"486 185 OFFCURVE",
"425 185 CURVE SMOOTH",
"364 185 OFFCURVE",
"323 215 OFFCURVE",
"323 270 CURVE SMOOTH"
);
},
{
closed = 1;
nodes = (
"242 850 LINE SMOOTH",
"229 850 OFFCURVE",
"219 840 OFFCURVE",
"219 827 CURVE SMOOTH",
"219 754 LINE SMOOTH",
"219 741 OFFCURVE",
"229 731 OFFCURVE",
"242 731 CURVE SMOOTH",
"609 731 LINE SMOOTH",
"622 731 OFFCURVE",
"632 741 OFFCURVE",
"632 754 CURVE SMOOTH",
"632 827 LINE SMOOTH",
"632 840 OFFCURVE",
"622 850 OFFCURVE",
"609 850 CURVE SMOOTH"
);
}
);
width = 850;
}
);
unicode = 014C;
},
{
color = 4;
glyphname = Oslash;
lastChange = "2016-09-08 17:15:01 +0000";
layers = (
{
layerId = UUID0;
paths = (
{
closed = 1;
nodes = (
"797 412 LINE",
"797 415 LINE",
"828 427 LINE SMOOTH",
"844 433 OFFCURVE",
"850 442 OFFCURVE",
"850 460 CURVE SMOOTH",
"850 568 LINE SMOOTH",
"850 580 OFFCURVE",
"841 589 OFFCURVE",
"829 589 CURVE SMOOTH",
"827 589 OFFCURVE",
"823 588 OFFCURVE",
"818 586 CURVE SMOOTH",
"759 563 LINE",
"698 665 OFFCURVE",
"572 711 OFFCURVE",
"425 711 CURVE SMOOTH",
"219 711 OFFCURVE",
"53 622 OFFCURVE",
"53 410 CURVE SMOOTH",
"53 291 LINE",
"53 287 LINE",
"22 275 LINE SMOOTH",
"6 269 OFFCURVE",
"0 260 OFFCURVE",
"0 242 CURVE SMOOTH",
"0 134 LINE SMOOTH",
"0 122 OFFCURVE",
"9 113 OFFCURVE",
"21 113 CURVE SMOOTH",
"23 113 OFFCURVE",
"27 114 OFFCURVE",
"32 116 CURVE SMOOTH",
"89 138 LINE",
"148 33 OFFCURVE",
"273 -10 OFFCURVE",
"425 -10 CURVE SMOOTH",
"636 -10 OFFCURVE",
"797 75 OFFCURVE",
"797 289 CURVE SMOOTH"
);
},
{
closed = 1;
nodes = (
"380 185 OFFCURVE",
"345 201 OFFCURVE",
"331 232 CURVE",
"527 309 LINE",
"527 271 LINE SMOOTH",
"527 215 OFFCURVE",
"486 185 OFFCURVE",
"425 185 CURVE SMOOTH"
);
},
{
closed = 1;
nodes = (
"323 431 LINE SMOOTH",
"323 486 OFFCURVE",
"364 516 OFFCURVE",
"425 516 CURVE SMOOTH",
"470 516 OFFCURVE",
"503 500 OFFCURVE",
"518 469 CURVE",
"323 392 LINE"
);
}
);
width = 850;
}
);
unicode = 00D8;
},
{
color = 4;
glyphname = Oslashacute;
lastChange = "2016-09-08 17:15:01 +0000";
layers = (
{
layerId = UUID0;
paths = (
{
closed = 1;
nodes = (
"797 412 LINE",
"797 415 LINE",
"828 427 LINE SMOOTH",
"844 433 OFFCURVE",
"850 442 OFFCURVE",
"850 460 CURVE SMOOTH",
"850 568 LINE SMOOTH",
"850 580 OFFCURVE",
"841 589 OFFCURVE",
"829 589 CURVE SMOOTH",
"827 589 OFFCURVE",
"823 588 OFFCURVE",
"818 586 CURVE SMOOTH",
"759 563 LINE",
"698 665 OFFCURVE",
"572 711 OFFCURVE",
"425 711 CURVE SMOOTH",
"219 711 OFFCURVE",
"53 622 OFFCURVE",
"53 410 CURVE SMOOTH",
"53 291 LINE",
"53 287 LINE",
"22 275 LINE SMOOTH",
"6 269 OFFCURVE",
"0 260 OFFCURVE",
"0 242 CURVE SMOOTH",
"0 134 LINE SMOOTH",
"0 122 OFFCURVE",
"9 113 OFFCURVE",
"21 113 CURVE SMOOTH",
"23 113 OFFCURVE",
"27 114 OFFCURVE",
"32 116 CURVE SMOOTH",
"89 138 LINE",
"148 33 OFFCURVE",
"273 -10 OFFCURVE",
"425 -10 CURVE SMOOTH",
"636 -10 OFFCURVE",
"797 75 OFFCURVE",
"797 289 CURVE SMOOTH"
);
},
{
closed = 1;
nodes = (
"380 185 OFFCURVE",
"345 201 OFFCURVE",
"331 232 CURVE",
"527 309 LINE",
"527 271 LINE SMOOTH",
"527 215 OFFCURVE",
"486 185 OFFCURVE",
"425 185 CURVE SMOOTH"
);
},
{
closed = 1;
nodes = (
"323 431 LINE SMOOTH",
"323 486 OFFCURVE",
"364 516 OFFCURVE",
"425 516 CURVE SMOOTH",
"470 516 OFFCURVE",
"503 500 OFFCURVE",
"518 469 CURVE",
"323 392 LINE"
);
},
{
closed = 1;
nodes = (
"331 760 LINE SMOOTH",
"328 757 OFFCURVE",
"326 752 OFFCURVE",
"326 747 CURVE SMOOTH",
"326 737 OFFCURVE",
"332 731 OFFCURVE",
"342 731 CURVE SMOOTH",
"463 731 LINE SMOOTH",
"467 731 OFFCURVE",
"471 731 OFFCURVE",
"475 731 CURVE SMOOTH",
"485 731 OFFCURVE",
"495 732 OFFCURVE",
"503 738 CURVE SMOOTH",
"598 818 LINE SMOOTH",
"601 821 OFFCURVE",
"603 825 OFFCURVE",
"603 830 CURVE SMOOTH",
"603 842 OFFCURVE",
"596 850 OFFCURVE",
"584 850 CURVE SMOOTH",
"426 850 LINE",
"411 849 OFFCURVE",
"403 848 OFFCURVE",
"389 831 CURVE SMOOTH"
);
}
);
width = 850;
}
);
unicode = 01FE;
},
{
color = 4;
glyphname = Otilde;
lastChange = "2016-09-08 17:15:01 +0000";
layers = (
{
layerId = UUID0;
paths = (
{
closed = 1;
nodes = (
"603 733 OFFCURVE",
"630 811 OFFCURVE",
"630 836 CURVE SMOOTH",
"630 846 OFFCURVE",
"623 855 OFFCURVE",
"611 855 CURVE SMOOTH",
"527 855 LINE SMOOTH",
"520 855 OFFCURVE",
"515 851 OFFCURVE",
"512 846 CURVE SMOOTH",
"506 837 OFFCURVE",
"493 834 OFFCURVE",
"477 834 CURVE SMOOTH",
"444 834 OFFCURVE",
"421 858 OFFCURVE",
"369 858 CURVE SMOOTH",
"259 858 OFFCURVE",
"233 779 OFFCURVE",
"233 754 CURVE SMOOTH",
"233 744 OFFCURVE",
"242 736 OFFCURVE",
"252 736 CURVE SMOOTH",
"336 736 LINE SMOOTH",
"343 736 OFFCURVE",
"348 740 OFFCURVE",
"351 745 CURVE SMOOTH",
"357 753 OFFCURVE",
"369 757 OFFCURVE",
"386 757 CURVE SMOOTH",
"419 757 OFFCURVE",
"442 733 OFFCURVE",
"494 733 CURVE SMOOTH"
);
},
{
closed = 1;
nodes = (
"797 411 LINE SMOOTH",
"797 620 OFFCURVE",
"631 710 OFFCURVE",
"425 710 CURVE SMOOTH",
"219 710 OFFCURVE",
"53 621 OFFCURVE",
"53 409 CURVE SMOOTH",
"53 291 LINE SMOOTH",
"53 74 OFFCURVE",
"214 -10 OFFCURVE",
"425 -10 CURVE SMOOTH",
"636 -10 OFFCURVE",
"797 75 OFFCURVE",
"797 289 CURVE SMOOTH"
);
},
{
closed = 1;
nodes = (
"323 430 LINE SMOOTH",
"323 485 OFFCURVE",
"364 515 OFFCURVE",
"425 515 CURVE SMOOTH",
"486 515 OFFCURVE",
"527 485 OFFCURVE",
"527 429 CURVE SMOOTH",
"527 271 LINE SMOOTH",
"527 215 OFFCURVE",
"486 185 OFFCURVE",
"425 185 CURVE SMOOTH",
"364 185 OFFCURVE",
"323 215 OFFCURVE",
"323 270 CURVE SMOOTH"
);
}
);
width = 850;
}
);
unicode = 00D5;
},
{
color = 4;
glyphname = OE;
lastChange = "2016-09-08 17:15:01 +0000";
layers = (
{
layerId = UUID0;
paths = (
{
closed = 1;
nodes = (
"778 0 LINE SMOOTH",
"793 0 OFFCURVE",
"805 12 OFFCURVE",
"805 27 CURVE SMOOTH",
"805 168 LINE SMOOTH",
"805 183 OFFCURVE",
"793 195 OFFCURVE",
"778 195 CURVE SMOOTH",
"636 195 LINE",
"636 258 LINE",
"744 258 LINE SMOOTH",
"759 258 OFFCURVE",
"771 270 OFFCURVE",
"771 285 CURVE SMOOTH",
"771 415 LINE SMOOTH",
"771 430 OFFCURVE",
"759 442 OFFCURVE",
"744 442 CURVE SMOOTH",
"636 442 LINE",
"636 505 LINE",
"768 505 LINE SMOOTH",
"783 505 OFFCURVE",
"795 517 OFFCURVE",
"795 532 CURVE SMOOTH",
"795 673 LINE SMOOTH",
"795 688 OFFCURVE",
"783 700 OFFCURVE",
"768 700 CURVE SMOOTH",
"396 700 LINE SMOOTH",
"190 700 OFFCURVE",
"54 611 OFFCURVE",
"54 399 CURVE SMOOTH",
"54 300 LINE SMOOTH",
"54 83 OFFCURVE",
"185 0 OFFCURVE",
"396 0 CURVE SMOOTH"
);
},
{
closed = 1;
nodes = (
"294 420 LINE SMOOTH",
"294 475 OFFCURVE",
"335 505 OFFCURVE",
"396 505 CURVE",
"396 195 LINE",
"335 195 OFFCURVE",
"294 224 OFFCURVE",
"294 279 CURVE SMOOTH"
);
}
);
width = 850;
}
);
unicode = 0152;
},
{
color = 4;
glyphname = P;
lastChange = "2016-09-08 17:15:01 +0000";
layers = (
{
layerId = UUID0;
paths = (
{
closed = 1;
nodes = (
"153 700 LINE SMOOTH",
"138 700 OFFCURVE",
"126 688 OFFCURVE",
"126 673 CURVE SMOOTH",
"126 27 LINE SMOOTH",
"126 12 OFFCURVE",
"138 0 OFFCURVE",
"153 0 CURVE SMOOTH",
"368 0 LINE SMOOTH",
"383 0 OFFCURVE",
"395 12 OFFCURVE",
"395 27 CURVE SMOOTH",
"395 219 LINE",
"527 219 LINE SMOOTH",
"767 219 OFFCURVE",
"835 323 OFFCURVE",
"835 458 CURVE SMOOTH",
"835 593 OFFCURVE",
"721 700 OFFCURVE",
"527 700 CURVE SMOOTH"
);
},
{
closed = 1;
nodes = (
"396 514 LINE",
"523 514 LINE SMOOTH",
"556 514 OFFCURVE",
"575 490 OFFCURVE",
"575 457 CURVE SMOOTH",
"575 424 OFFCURVE",
"554 404 OFFCURVE",
"523 404 CURVE SMOOTH",
"396 404 LINE"
);
}
);
width = 850;
}
);
unicode = 0050;
},
{
color = 4;
glyphname = Thorn;
lastChange = "2016-09-08 17:15:01 +0000";
layers = (
{
layerId = UUID0;
paths = (
{
closed = 1;
nodes = (
"108 701 LINE SMOOTH",
"93 701 OFFCURVE",
"81 689 OFFCURVE",
"81 674 CURVE SMOOTH",
"81 27 LINE SMOOTH",
"81 12 OFFCURVE",
"93 0 OFFCURVE",
"108 0 CURVE SMOOTH",
"323 0 LINE SMOOTH",
"338 0 OFFCURVE",
"350 12 OFFCURVE",
"350 27 CURVE SMOOTH",
"350 129 LINE",
"482 129 LINE SMOOTH",
"722 129 OFFCURVE",
"790 233 OFFCURVE",
"790 368 CURVE SMOOTH",
"790 503 OFFCURVE",
"676 610 OFFCURVE",
"482 610 CURVE SMOOTH",
"350 610 LINE",
"350 674 LINE SMOOTH",
"350 689 OFFCURVE",
"338 701 OFFCURVE",
"323 701 CURVE SMOOTH"
);
},
{
closed = 1;
nodes = (
"351 424 LINE",
"478 424 LINE SMOOTH",
"511 424 OFFCURVE",
"530 400 OFFCURVE",
"530 367 CURVE SMOOTH",
"530 334 OFFCURVE",
"509 314 OFFCURVE",
"478 314 CURVE SMOOTH",
"351 314 LINE"
);
}
);
width = 850;
}
);
unicode = 00DE;
},
{
color = 4;
glyphname = Q;
lastChange = "2016-09-08 17:15:01 +0000";
layers = (
{
layerId = UUID0;
paths = (
{
closed = 1;
nodes = (
"796 411 LINE SMOOTH",
"796 625 OFFCURVE",
"635 710 OFFCURVE",
"424 710 CURVE SMOOTH",
"213 710 OFFCURVE",
"52 626 OFFCURVE",
"52 409 CURVE SMOOTH",
"52 291 LINE SMOOTH",
"52 74 OFFCURVE",
"213 -10 OFFCURVE",
"424 -10 CURVE SMOOTH",
"447 -10 OFFCURVE",
"469 -9 OFFCURVE",
"490 -7 CURVE",
"516 -40 LINE SMOOTH",
"520 -46 OFFCURVE",
"538 -65 OFFCURVE",
"565 -65 CURVE SMOOTH",
"756 -65 LINE SMOOTH",
"768 -65 OFFCURVE",
"778 -55 OFFCURVE",
"776 -43 CURVE SMOOTH",
"776 -40 OFFCURVE",
"774 -36 OFFCURVE",
"773 -34 CURVE SMOOTH",
"699 66 LINE",
"760 114 OFFCURVE",
"796 187 OFFCURVE",
"796 289 CURVE SMOOTH"
);
},
{
closed = 1;
nodes = (
"322 430 LINE SMOOTH",
"322 485 OFFCURVE",
"363 515 OFFCURVE",
"424 515 CURVE SMOOTH",
"485 515 OFFCURVE",
"526 485 OFFCURVE",
"526 429 CURVE SMOOTH",
"526 271 LINE SMOOTH",
"526 215 OFFCURVE",
"485 185 OFFCURVE",
"424 185 CURVE SMOOTH",
"363 185 OFFCURVE",
"322 215 OFFCURVE",
"322 270 CURVE SMOOTH"
);
}
);
width = 850;
}
);
unicode = 0051;
},
{
color = 4;
glyphname = R;
lastChange = "2016-09-08 17:15:01 +0000";
layers = (
{
layerId = UUID0;
paths = (
{
closed = 1;
nodes = (
"699 261 LINE",
"768 301 OFFCURVE",
"804 367 OFFCURVE",
"804 458 CURVE SMOOTH",
"804 608 OFFCURVE",
"689 700 OFFCURVE",
"507 700 CURVE SMOOTH",
"118 700 LINE SMOOTH",
"103 700 OFFCURVE",
"91 688 OFFCURVE",
"91 673 CURVE SMOOTH",
"91 27 LINE SMOOTH",
"91 12 OFFCURVE",
"103 0 OFFCURVE",
"118 0 CURVE SMOOTH",
"334 0 LINE SMOOTH",
"349 0 OFFCURVE",
"361 12 OFFCURVE",
"361 27 CURVE SMOOTH",
"361 223 LINE",
"445 223 LINE",
"533 25 LINE SMOOTH",
"540 10 OFFCURVE",
"556 0 OFFCURVE",
"575 0 CURVE SMOOTH",
"802 0 LINE SMOOTH",
"814 0 OFFCURVE",
"824 10 OFFCURVE",
"824 22 CURVE SMOOTH",
"824 25 OFFCURVE",
"823 29 OFFCURVE",
"822 31 CURVE SMOOTH"
);
},
{
closed = 1;
nodes = (
"361 514 LINE",
"486 514 LINE SMOOTH",
"519 514 OFFCURVE",
"532 485 OFFCURVE",
"532 459 CURVE SMOOTH",
"532 432 OFFCURVE",
"517 408 OFFCURVE",
"486 408 CURVE SMOOTH",
"361 408 LINE"
);
}
);
width = 850;
}
);
unicode = 0052;
},
{
color = 4;
glyphname = Racute;
lastChange = "2016-09-08 17:15:01 +0000";
layers = (
{
layerId = UUID0;
paths = (
{
closed = 1;
nodes = (
"699 261 LINE",
"768 301 OFFCURVE",
"804 367 OFFCURVE",
"804 458 CURVE SMOOTH",
"804 608 OFFCURVE",
"689 700 OFFCURVE",
"507 700 CURVE SMOOTH",
"118 700 LINE SMOOTH",
"103 700 OFFCURVE",
"91 688 OFFCURVE",
"91 673 CURVE SMOOTH",
"91 27 LINE SMOOTH",
"91 12 OFFCURVE",
"103 0 OFFCURVE",
"118 0 CURVE SMOOTH",
"334 0 LINE SMOOTH",
"349 0 OFFCURVE",
"361 12 OFFCURVE",
"361 27 CURVE SMOOTH",
"361 223 LINE",
"445 223 LINE",
"533 25 LINE SMOOTH",
"540 10 OFFCURVE",
"556 0 OFFCURVE",
"575 0 CURVE SMOOTH",
"802 0 LINE SMOOTH",
"814 0 OFFCURVE",
"824 10 OFFCURVE",
"824 22 CURVE SMOOTH",
"824 25 OFFCURVE",
"823 29 OFFCURVE",
"822 31 CURVE SMOOTH"
);
},
{
closed = 1;
nodes = (
"361 514 LINE",
"486 514 LINE SMOOTH",
"519 514 OFFCURVE",
"532 485 OFFCURVE",
"532 459 CURVE SMOOTH",
"532 432 OFFCURVE",
"517 408 OFFCURVE",
"486 408 CURVE SMOOTH",
"361 408 LINE"
);
},
{
closed = 1;
nodes = (
"321 760 LINE SMOOTH",
"318 757 OFFCURVE",
"316 752 OFFCURVE",
"316 747 CURVE SMOOTH",
"316 737 OFFCURVE",
"322 731 OFFCURVE",
"332 731 CURVE SMOOTH",
"453 731 LINE SMOOTH",
"457 731 OFFCURVE",
"461 731 OFFCURVE",
"465 731 CURVE SMOOTH",
"475 731 OFFCURVE",
"485 732 OFFCURVE",
"493 738 CURVE SMOOTH",
"588 818 LINE SMOOTH",
"591 821 OFFCURVE",
"593 825 OFFCURVE",
"593 830 CURVE SMOOTH",
"593 842 OFFCURVE",
"586 850 OFFCURVE",
"574 850 CURVE SMOOTH",
"416 850 LINE",
"401 849 OFFCURVE",
"393 848 OFFCURVE",
"379 831 CURVE SMOOTH"
);
}
);
width = 850;
}
);
unicode = 0154;
},
{
color = 4;
glyphname = Rcaron;
lastChange = "2016-09-08 17:15:01 +0000";
layers = (
{
layerId = UUID0;
paths = (
{
closed = 1;
nodes = (
"699 261 LINE",
"768 301 OFFCURVE",
"804 367 OFFCURVE",
"804 458 CURVE SMOOTH",
"804 608 OFFCURVE",
"689 700 OFFCURVE",
"507 700 CURVE SMOOTH",
"118 700 LINE SMOOTH",
"103 700 OFFCURVE",
"91 688 OFFCURVE",
"91 673 CURVE SMOOTH",
"91 27 LINE SMOOTH",
"91 12 OFFCURVE",
"103 0 OFFCURVE",
"118 0 CURVE SMOOTH",
"334 0 LINE SMOOTH",
"349 0 OFFCURVE",
"361 12 OFFCURVE",
"361 27 CURVE SMOOTH",
"361 223 LINE",
"445 223 LINE",
"533 25 LINE SMOOTH",
"540 10 OFFCURVE",
"556 0 OFFCURVE",
"575 0 CURVE SMOOTH",
"802 0 LINE SMOOTH",
"814 0 OFFCURVE",
"824 10 OFFCURVE",
"824 22 CURVE SMOOTH",
"824 25 OFFCURVE",
"823 29 OFFCURVE",
"822 31 CURVE SMOOTH"
);
},
{
closed = 1;
nodes = (
"361 514 LINE",
"486 514 LINE SMOOTH",
"519 514 OFFCURVE",
"532 485 OFFCURVE",
"532 459 CURVE SMOOTH",
"532 432 OFFCURVE",
"517 408 OFFCURVE",
"486 408 CURVE SMOOTH",
"361 408 LINE"
);
},
{
closed = 1;
nodes = (
"415 821 LINE",
"358 843 LINE",
"342 848 OFFCURVE",
"331 850 OFFCURVE",
"318 850 CURVE SMOOTH",
"237 850 LINE SMOOTH",
"228 850 OFFCURVE",
"221 843 OFFCURVE",
"221 834 CURVE SMOOTH",
"221 826 OFFCURVE",
"226 822 OFFCURVE",
"229 820 CURVE SMOOTH",
"312 750 LINE",
"333 735 OFFCURVE",
"344 731 OFFCURVE",
"359 731 CURVE SMOOTH",
"471 731 LINE SMOOTH",
"486 731 OFFCURVE",
"497 735 OFFCURVE",
"518 750 CURVE",
"601 820 LINE SMOOTH",
"604 822 OFFCURVE",
"609 826 OFFCURVE",
"609 834 CURVE SMOOTH",
"609 843 OFFCURVE",
"602 850 OFFCURVE",
"593 850 CURVE SMOOTH",
"512 850 LINE SMOOTH",
"499 850 OFFCURVE",
"488 848 OFFCURVE",
"472 843 CURVE"
);
}
);
width = 850;
}
);
unicode = 0158;
},
{
color = 4;
glyphname = Rcommaaccent;
lastChange = "2016-09-08 17:15:01 +0000";
layers = (
{
layerId = UUID0;
paths = (
{
closed = 1;
nodes = (
"699 261 LINE",
"768 301 OFFCURVE",
"804 367 OFFCURVE",
"804 458 CURVE SMOOTH",
"804 608 OFFCURVE",
"689 700 OFFCURVE",
"507 700 CURVE SMOOTH",
"118 700 LINE SMOOTH",
"103 700 OFFCURVE",
"91 688 OFFCURVE",
"91 673 CURVE SMOOTH",
"91 27 LINE SMOOTH",
"91 12 OFFCURVE",
"103 0 OFFCURVE",
"118 0 CURVE SMOOTH",
"334 0 LINE SMOOTH",
"349 0 OFFCURVE",
"361 12 OFFCURVE",
"361 27 CURVE SMOOTH",
"361 223 LINE",
"445 223 LINE",
"533 25 LINE SMOOTH",
"540 10 OFFCURVE",
"556 0 OFFCURVE",
"575 0 CURVE SMOOTH",
"802 0 LINE SMOOTH",
"814 0 OFFCURVE",
"824 10 OFFCURVE",
"824 22 CURVE SMOOTH",
"824 25 OFFCURVE",
"823 29 OFFCURVE",
"822 31 CURVE SMOOTH"
);
},
{
closed = 1;
nodes = (
"361 514 LINE",
"486 514 LINE SMOOTH",
"519 514 OFFCURVE",
"532 485 OFFCURVE",
"532 459 CURVE SMOOTH",
"532 432 OFFCURVE",
"517 408 OFFCURVE",
"486 408 CURVE SMOOTH",
"361 408 LINE"
);
},
{
closed = 1;
nodes = (
"281 -121 LINE SMOOTH",
"278 -124 OFFCURVE",
"276 -129 OFFCURVE",
"276 -134 CURVE SMOOTH",
"276 -144 OFFCURVE",
"282 -150 OFFCURVE",
"292 -150 CURVE SMOOTH",
"413 -150 LINE SMOOTH",
"417 -150 OFFCURVE",
"421 -150 OFFCURVE",
"425 -150 CURVE SMOOTH",
"435 -150 OFFCURVE",
"445 -149 OFFCURVE",
"453 -143 CURVE SMOOTH",
"548 -63 LINE SMOOTH",
"551 -60 OFFCURVE",
"553 -56 OFFCURVE",
"553 -51 CURVE SMOOTH",
"553 -39 OFFCURVE",
"546 -31 OFFCURVE",
"534 -31 CURVE SMOOTH",
"376 -31 LINE",
"361 -32 OFFCURVE",
"353 -33 OFFCURVE",
"339 -50 CURVE SMOOTH"
);
}
);
width = 850;
}
);
unicode = 0156;
},
{
color = 4;
glyphname = S;
lastChange = "2016-09-08 17:15:01 +0000";
layers = (
{
layerId = UUID0;
paths = (
{
closed = 1;
nodes = (
"372 458 OFFCURVE",
"350 468 OFFCURVE",
"350 487 CURVE SMOOTH",
"350 504 OFFCURVE",
"368 515 OFFCURVE",
"417 515 CURVE SMOOTH",
"463 515 OFFCURVE",
"478 503 OFFCURVE",
"489 493 CURVE SMOOTH",
"498 485 OFFCURVE",
"506 481 OFFCURVE",
"520 481 CURVE SMOOTH",
"735 481 LINE SMOOTH",
"749 481 OFFCURVE",
"759 490 OFFCURVE",
"759 503 CURVE SMOOTH",
"759 590 OFFCURVE",
"638 710 OFFCURVE",
"417 710 CURVE SMOOTH",
"214 710 OFFCURVE",
"84 616 OFFCURVE",
"84 480 CURVE SMOOTH",
"84 348 OFFCURVE",
"192 284 OFFCURVE",
"367 263 CURVE SMOOTH",
"487 249 OFFCURVE",
"516 238 OFFCURVE",
"516 214 CURVE SMOOTH",
"516 192 OFFCURVE",
"474 185 OFFCURVE",
"421 185 CURVE SMOOTH",
"374 185 OFFCURVE",
"348 189 OFFCURVE",
"324 212 CURVE SMOOTH",
"316 220 OFFCURVE",
"307 225 OFFCURVE",
"290 225 CURVE SMOOTH",
"85 225 LINE SMOOTH",
"71 225 OFFCURVE",
"62 216 OFFCURVE",
"62 203 CURVE SMOOTH",
"62 92 OFFCURVE",
"176 -10 OFFCURVE",
"421 -10 CURVE SMOOTH",
"631 -10 OFFCURVE",
"783 80 OFFCURVE",
"783 226 CURVE SMOOTH",
"783 355 OFFCURVE",
"701 421 OFFCURVE",
"480 446 CURVE SMOOTH"
);
}
);
width = 850;
}
);
unicode = 0053;
},
{
color = 4;
glyphname = Sacute;
lastChange = "2016-09-08 17:15:01 +0000";
layers = (
{
layerId = UUID0;
paths = (
{
closed = 1;
nodes = (
"372 458 OFFCURVE",
"350 468 OFFCURVE",
"350 487 CURVE SMOOTH",
"350 504 OFFCURVE",
"368 515 OFFCURVE",
"417 515 CURVE SMOOTH",
"463 515 OFFCURVE",
"478 503 OFFCURVE",
"489 493 CURVE SMOOTH",
"498 485 OFFCURVE",
"506 481 OFFCURVE",
"520 481 CURVE SMOOTH",
"735 481 LINE SMOOTH",
"749 481 OFFCURVE",
"759 490 OFFCURVE",
"759 503 CURVE SMOOTH",
"759 590 OFFCURVE",
"638 710 OFFCURVE",
"417 710 CURVE SMOOTH",
"214 710 OFFCURVE",
"84 616 OFFCURVE",
"84 480 CURVE SMOOTH",
"84 348 OFFCURVE",
"192 284 OFFCURVE",
"367 263 CURVE SMOOTH",
"487 249 OFFCURVE",
"516 238 OFFCURVE",
"516 214 CURVE SMOOTH",
"516 192 OFFCURVE",
"474 185 OFFCURVE",
"421 185 CURVE SMOOTH",
"374 185 OFFCURVE",
"348 189 OFFCURVE",
"324 212 CURVE SMOOTH",
"316 220 OFFCURVE",
"307 225 OFFCURVE",
"290 225 CURVE SMOOTH",
"85 225 LINE SMOOTH",
"71 225 OFFCURVE",
"62 216 OFFCURVE",
"62 203 CURVE SMOOTH",
"62 92 OFFCURVE",
"176 -10 OFFCURVE",
"421 -10 CURVE SMOOTH",
"631 -10 OFFCURVE",
"783 80 OFFCURVE",
"783 226 CURVE SMOOTH",
"783 355 OFFCURVE",
"701 421 OFFCURVE",
"480 446 CURVE SMOOTH"
);
},
{
closed = 1;
nodes = (
"311 760 LINE SMOOTH",
"308 757 OFFCURVE",
"306 752 OFFCURVE",
"306 747 CURVE SMOOTH",
"306 737 OFFCURVE",
"312 731 OFFCURVE",
"322 731 CURVE SMOOTH",
"443 731 LINE SMOOTH",
"447 731 OFFCURVE",
"451 731 OFFCURVE",
"455 731 CURVE SMOOTH",
"465 731 OFFCURVE",
"475 732 OFFCURVE",
"483 738 CURVE SMOOTH",
"578 818 LINE SMOOTH",
"581 821 OFFCURVE",
"583 825 OFFCURVE",
"583 830 CURVE SMOOTH",
"583 842 OFFCURVE",
"576 850 OFFCURVE",
"564 850 CURVE SMOOTH",
"406 850 LINE",
"391 849 OFFCURVE",
"383 848 OFFCURVE",
"369 831 CURVE SMOOTH"
);
}
);
width = 850;
}
);
unicode = 015A;
},
{
color = 4;
glyphname = Scaron;
lastChange = "2016-09-08 17:15:01 +0000";
layers = (
{
layerId = UUID0;
paths = (
{
closed = 1;
nodes = (
"372 458 OFFCURVE",
"350 468 OFFCURVE",
"350 487 CURVE SMOOTH",
"350 504 OFFCURVE",
"368 515 OFFCURVE",
"417 515 CURVE SMOOTH",
"463 515 OFFCURVE",
"478 503 OFFCURVE",
"489 493 CURVE SMOOTH",
"498 485 OFFCURVE",
"506 481 OFFCURVE",
"520 481 CURVE SMOOTH",
"735 481 LINE SMOOTH",
"749 481 OFFCURVE",
"759 490 OFFCURVE",
"759 503 CURVE SMOOTH",
"759 590 OFFCURVE",
"638 710 OFFCURVE",
"417 710 CURVE SMOOTH",
"214 710 OFFCURVE",
"84 616 OFFCURVE",
"84 480 CURVE SMOOTH",
"84 348 OFFCURVE",
"192 284 OFFCURVE",
"367 263 CURVE SMOOTH",
"487 249 OFFCURVE",
"516 238 OFFCURVE",
"516 214 CURVE SMOOTH",
"516 192 OFFCURVE",
"474 185 OFFCURVE",
"421 185 CURVE SMOOTH",
"374 185 OFFCURVE",
"348 189 OFFCURVE",
"324 212 CURVE SMOOTH",
"316 220 OFFCURVE",
"307 225 OFFCURVE",
"290 225 CURVE SMOOTH",
"85 225 LINE SMOOTH",
"71 225 OFFCURVE",
"62 216 OFFCURVE",
"62 203 CURVE SMOOTH",
"62 92 OFFCURVE",
"176 -10 OFFCURVE",
"421 -10 CURVE SMOOTH",
"631 -10 OFFCURVE",
"783 80 OFFCURVE",
"783 226 CURVE SMOOTH",
"783 355 OFFCURVE",
"701 421 OFFCURVE",
"480 446 CURVE SMOOTH"
);
},
{
closed = 1;
nodes = (
"421 821 LINE",
"364 843 LINE",
"348 848 OFFCURVE",
"337 850 OFFCURVE",
"324 850 CURVE SMOOTH",
"243 850 LINE SMOOTH",
"234 850 OFFCURVE",
"227 843 OFFCURVE",
"227 834 CURVE SMOOTH",
"227 826 OFFCURVE",
"232 822 OFFCURVE",
"235 820 CURVE SMOOTH",
"318 750 LINE",
"339 735 OFFCURVE",
"350 731 OFFCURVE",
"365 731 CURVE SMOOTH",
"477 731 LINE SMOOTH",
"492 731 OFFCURVE",
"503 735 OFFCURVE",
"524 750 CURVE",
"607 820 LINE SMOOTH",
"610 822 OFFCURVE",
"615 826 OFFCURVE",
"615 834 CURVE SMOOTH",
"615 843 OFFCURVE",
"608 850 OFFCURVE",
"599 850 CURVE SMOOTH",
"518 850 LINE SMOOTH",
"505 850 OFFCURVE",
"494 848 OFFCURVE",
"478 843 CURVE"
);
}
);
width = 850;
}
);
unicode = 0160;
},
{
color = 4;
glyphname = Scedilla;
lastChange = "2016-09-08 17:15:01 +0000";
layers = (
{
layerId = UUID0;
paths = (
{
closed = 1;
nodes = (
"372 458 OFFCURVE",
"350 468 OFFCURVE",
"350 487 CURVE SMOOTH",
"350 504 OFFCURVE",
"368 515 OFFCURVE",
"417 515 CURVE SMOOTH",
"463 515 OFFCURVE",
"478 503 OFFCURVE",
"489 493 CURVE SMOOTH",
"498 485 OFFCURVE",
"506 481 OFFCURVE",
"520 481 CURVE SMOOTH",
"735 481 LINE SMOOTH",
"749 481 OFFCURVE",
"759 490 OFFCURVE",
"759 503 CURVE SMOOTH",
"759 590 OFFCURVE",
"638 710 OFFCURVE",
"417 710 CURVE SMOOTH",
"214 710 OFFCURVE",
"84 616 OFFCURVE",
"84 480 CURVE SMOOTH",
"84 348 OFFCURVE",
"192 284 OFFCURVE",
"367 263 CURVE SMOOTH",
"487 249 OFFCURVE",
"516 238 OFFCURVE",
"516 214 CURVE SMOOTH",
"516 192 OFFCURVE",
"474 185 OFFCURVE",
"421 185 CURVE SMOOTH",
"374 185 OFFCURVE",
"348 189 OFFCURVE",
"324 212 CURVE SMOOTH",
"316 220 OFFCURVE",
"307 225 OFFCURVE",
"290 225 CURVE SMOOTH",
"85 225 LINE SMOOTH",
"71 225 OFFCURVE",
"62 216 OFFCURVE",
"62 203 CURVE SMOOTH",
"62 101 OFFCURVE",
"158 7 OFFCURVE",
"362 -8 CURVE",
"348 -53 LINE SMOOTH",
"347 -56 OFFCURVE",
"346 -59 OFFCURVE",
"346 -62 CURVE SMOOTH",
"346 -70 OFFCURVE",
"351 -75 OFFCURVE",
"361 -75 CURVE SMOOTH",
"405 -75 LINE SMOOTH",
"424 -75 OFFCURVE",
"426 -66 OFFCURVE",
"453 -66 CURVE SMOOTH",
"473 -66 OFFCURVE",
"481 -73 OFFCURVE",
"481 -83 CURVE SMOOTH",
"481 -93 OFFCURVE",
"473 -102 OFFCURVE",
"452 -102 CURVE SMOOTH",
"417 -102 OFFCURVE",
"425 -89 OFFCURVE",
"400 -89 CURVE SMOOTH",
"339 -89 LINE SMOOTH",
"332 -89 OFFCURVE",
"326 -92 OFFCURVE",
"326 -100 CURVE SMOOTH",
"326 -134 OFFCURVE",
"392 -150 OFFCURVE",
"452 -150 CURVE SMOOTH",
"503 -150 OFFCURVE",
"568 -133 OFFCURVE",
"568 -83 CURVE SMOOTH",
"568 -43 OFFCURVE",
"528 -22 OFFCURVE",
"477 -22 CURVE SMOOTH",
"470 -22 OFFCURVE",
"449 -22 OFFCURVE",
"440 -26 CURVE",
"446 -9 LINE",
"643 -2 OFFCURVE",
"783 86 OFFCURVE",
"783 226 CURVE SMOOTH",
"783 355 OFFCURVE",
"701 421 OFFCURVE",
"480 446 CURVE SMOOTH"
);
}
);
width = 850;
}
);
unicode = 015E;
},
{
color = 4;
glyphname = Scircumflex;
lastChange = "2016-09-08 17:15:01 +0000";
layers = (
{
layerId = UUID0;
paths = (
{
closed = 1;
nodes = (
"372 458 OFFCURVE",
"350 468 OFFCURVE",
"350 487 CURVE SMOOTH",
"350 504 OFFCURVE",
"368 515 OFFCURVE",
"417 515 CURVE SMOOTH",
"463 515 OFFCURVE",
"478 503 OFFCURVE",
"489 493 CURVE SMOOTH",
"498 485 OFFCURVE",
"506 481 OFFCURVE",
"520 481 CURVE SMOOTH",
"735 481 LINE SMOOTH",
"749 481 OFFCURVE",
"759 490 OFFCURVE",
"759 503 CURVE SMOOTH",
"759 590 OFFCURVE",
"638 710 OFFCURVE",
"417 710 CURVE SMOOTH",
"214 710 OFFCURVE",
"84 616 OFFCURVE",
"84 480 CURVE SMOOTH",
"84 348 OFFCURVE",
"192 284 OFFCURVE",
"367 263 CURVE SMOOTH",
"487 249 OFFCURVE",
"516 238 OFFCURVE",
"516 214 CURVE SMOOTH",
"516 192 OFFCURVE",
"474 185 OFFCURVE",
"421 185 CURVE SMOOTH",
"374 185 OFFCURVE",
"348 189 OFFCURVE",
"324 212 CURVE SMOOTH",
"316 220 OFFCURVE",
"307 225 OFFCURVE",
"290 225 CURVE SMOOTH",
"85 225 LINE SMOOTH",
"71 225 OFFCURVE",
"62 216 OFFCURVE",
"62 203 CURVE SMOOTH",
"62 92 OFFCURVE",
"176 -10 OFFCURVE",
"421 -10 CURVE SMOOTH",
"631 -10 OFFCURVE",
"783 80 OFFCURVE",
"783 226 CURVE SMOOTH",
"783 355 OFFCURVE",
"701 421 OFFCURVE",
"480 446 CURVE SMOOTH"
);
},
{
closed = 1;
nodes = (
"421 760 LINE",
"478 738 LINE",
"494 733 OFFCURVE",
"505 731 OFFCURVE",
"518 731 CURVE SMOOTH",
"599 731 LINE SMOOTH",
"608 731 OFFCURVE",
"615 738 OFFCURVE",
"615 747 CURVE SMOOTH",
"615 755 OFFCURVE",
"610 759 OFFCURVE",
"607 761 CURVE SMOOTH",
"524 831 LINE",
"503 846 OFFCURVE",
"492 850 OFFCURVE",
"477 850 CURVE SMOOTH",
"365 850 LINE SMOOTH",
"350 850 OFFCURVE",
"339 846 OFFCURVE",
"318 831 CURVE",
"235 761 LINE SMOOTH",
"232 759 OFFCURVE",
"227 755 OFFCURVE",
"227 747 CURVE SMOOTH",
"227 738 OFFCURVE",
"234 731 OFFCURVE",
"243 731 CURVE SMOOTH",
"324 731 LINE SMOOTH",
"337 731 OFFCURVE",
"348 733 OFFCURVE",
"364 738 CURVE"
);
}
);
width = 850;
}
);
unicode = 015C;
},
{
color = 4;
glyphname = Scommaaccent;
lastChange = "2016-09-08 17:15:01 +0000";
layers = (
{
layerId = UUID0;
paths = (
{
closed = 1;
nodes = (
"372 458 OFFCURVE",
"350 468 OFFCURVE",
"350 487 CURVE SMOOTH",
"350 504 OFFCURVE",
"368 515 OFFCURVE",
"417 515 CURVE SMOOTH",
"463 515 OFFCURVE",
"478 503 OFFCURVE",
"489 493 CURVE SMOOTH",
"498 485 OFFCURVE",
"506 481 OFFCURVE",
"520 481 CURVE SMOOTH",
"735 481 LINE SMOOTH",
"749 481 OFFCURVE",
"759 490 OFFCURVE",
"759 503 CURVE SMOOTH",
"759 590 OFFCURVE",
"638 710 OFFCURVE",
"417 710 CURVE SMOOTH",
"214 710 OFFCURVE",
"84 616 OFFCURVE",
"84 480 CURVE SMOOTH",
"84 348 OFFCURVE",
"192 284 OFFCURVE",
"367 263 CURVE SMOOTH",
"487 249 OFFCURVE",
"516 238 OFFCURVE",
"516 214 CURVE SMOOTH",
"516 192 OFFCURVE",
"474 185 OFFCURVE",
"421 185 CURVE SMOOTH",
"374 185 OFFCURVE",
"348 189 OFFCURVE",
"324 212 CURVE SMOOTH",
"316 220 OFFCURVE",
"307 225 OFFCURVE",
"290 225 CURVE SMOOTH",
"85 225 LINE SMOOTH",
"71 225 OFFCURVE",
"62 216 OFFCURVE",
"62 203 CURVE SMOOTH",
"62 92 OFFCURVE",
"176 -10 OFFCURVE",
"421 -10 CURVE SMOOTH",
"631 -10 OFFCURVE",
"783 80 OFFCURVE",
"783 226 CURVE SMOOTH",
"783 355 OFFCURVE",
"701 421 OFFCURVE",
"480 446 CURVE SMOOTH"
);
},
{
closed = 1;
nodes = (
"253 -121 LINE SMOOTH",
"250 -124 OFFCURVE",
"248 -129 OFFCURVE",
"248 -134 CURVE SMOOTH",
"248 -144 OFFCURVE",
"254 -150 OFFCURVE",
"264 -150 CURVE SMOOTH",
"385 -150 LINE SMOOTH",
"389 -150 OFFCURVE",
"393 -150 OFFCURVE",
"397 -150 CURVE SMOOTH",
"407 -150 OFFCURVE",
"417 -149 OFFCURVE",
"425 -143 CURVE SMOOTH",
"520 -63 LINE SMOOTH",
"523 -60 OFFCURVE",
"525 -56 OFFCURVE",
"525 -51 CURVE SMOOTH",
"525 -39 OFFCURVE",
"518 -31 OFFCURVE",
"506 -31 CURVE SMOOTH",
"348 -31 LINE",
"333 -32 OFFCURVE",
"325 -33 OFFCURVE",
"311 -50 CURVE SMOOTH"
);
}
);
width = 850;
}
);
unicode = 0218;
},
{
color = 4;
glyphname = T;
lastChange = "2016-09-08 17:15:01 +0000";
layers = (
{
layerId = UUID0;
paths = (
{
closed = 1;
nodes = (
"80 700 LINE SMOOTH",
"65 700 OFFCURVE",
"53 688 OFFCURVE",
"53 673 CURVE SMOOTH",
"53 512 LINE SMOOTH",
"53 497 OFFCURVE",
"65 485 OFFCURVE",
"80 485 CURVE SMOOTH",
"295 485 LINE",
"295 27 LINE SMOOTH",
"295 12 OFFCURVE",
"307 0 OFFCURVE",
"322 0 CURVE SMOOTH",
"528 0 LINE SMOOTH",
"543 0 OFFCURVE",
"555 12 OFFCURVE",
"555 27 CURVE SMOOTH",
"555 485 LINE",
"770 485 LINE SMOOTH",
"785 485 OFFCURVE",
"797 497 OFFCURVE",
"797 512 CURVE SMOOTH",
"797 673 LINE SMOOTH",
"797 688 OFFCURVE",
"785 700 OFFCURVE",
"770 700 CURVE SMOOTH"
);
}
);
width = 850;
}
);
unicode = 0054;
},
{
color = 4;
glyphname = Tbar;
lastChange = "2016-09-08 17:15:01 +0000";
layers = (
{
layerId = UUID0;
paths = (
{
closed = 1;
nodes = (
"208 380 LINE SMOOTH",
"193 380 OFFCURVE",
"181 368 OFFCURVE",
"181 353 CURVE SMOOTH",
"181 282 LINE SMOOTH",
"181 267 OFFCURVE",
"193 255 OFFCURVE",
"208 255 CURVE SMOOTH",
"295 255 LINE",
"295 27 LINE SMOOTH",
"295 12 OFFCURVE",
"307 0 OFFCURVE",
"322 0 CURVE SMOOTH",
"528 0 LINE SMOOTH",
"543 0 OFFCURVE",
"555 12 OFFCURVE",
"555 27 CURVE SMOOTH",
"555 255 LINE",
"642 255 LINE SMOOTH",
"657 255 OFFCURVE",
"669 267 OFFCURVE",
"669 282 CURVE SMOOTH",
"669 353 LINE SMOOTH",
"669 368 OFFCURVE",
"657 380 OFFCURVE",
"642 380 CURVE SMOOTH",
"555 380 LINE",
"555 485 LINE",
"770 485 LINE SMOOTH",
"785 485 OFFCURVE",
"797 497 OFFCURVE",
"797 512 CURVE SMOOTH",
"797 673 LINE SMOOTH",
"797 688 OFFCURVE",
"785 700 OFFCURVE",
"770 700 CURVE SMOOTH",
"80 700 LINE SMOOTH",
"65 700 OFFCURVE",
"53 688 OFFCURVE",
"53 673 CURVE SMOOTH",
"53 512 LINE SMOOTH",
"53 497 OFFCURVE",
"65 485 OFFCURVE",
"80 485 CURVE SMOOTH",
"295 485 LINE",
"295 380 LINE"
);
}
);
width = 850;
}
);
unicode = 0166;
},
{
color = 4;
glyphname = Tcaron;
lastChange = "2016-09-08 17:15:01 +0000";
layers = (
{
layerId = UUID0;
paths = (
{
closed = 1;
nodes = (
"80 700 LINE SMOOTH",
"65 700 OFFCURVE",
"53 688 OFFCURVE",
"53 673 CURVE SMOOTH",
"53 512 LINE SMOOTH",
"53 497 OFFCURVE",
"65 485 OFFCURVE",
"80 485 CURVE SMOOTH",
"295 485 LINE",
"295 27 LINE SMOOTH",
"295 12 OFFCURVE",
"307 0 OFFCURVE",
"322 0 CURVE SMOOTH",
"528 0 LINE SMOOTH",
"543 0 OFFCURVE",
"555 12 OFFCURVE",
"555 27 CURVE SMOOTH",
"555 485 LINE",
"770 485 LINE SMOOTH",
"785 485 OFFCURVE",
"797 497 OFFCURVE",
"797 512 CURVE SMOOTH",
"797 673 LINE SMOOTH",
"797 688 OFFCURVE",
"785 700 OFFCURVE",
"770 700 CURVE SMOOTH"
);
},
{
closed = 1;
nodes = (
"425 821 LINE",
"368 843 LINE",
"352 848 OFFCURVE",
"341 850 OFFCURVE",
"328 850 CURVE SMOOTH",
"247 850 LINE SMOOTH",
"238 850 OFFCURVE",
"231 843 OFFCURVE",
"231 834 CURVE SMOOTH",
"231 826 OFFCURVE",
"236 822 OFFCURVE",
"239 820 CURVE SMOOTH",
"322 750 LINE",
"343 735 OFFCURVE",
"354 731 OFFCURVE",
"369 731 CURVE SMOOTH",
"481 731 LINE SMOOTH",
"496 731 OFFCURVE",
"507 735 OFFCURVE",
"528 750 CURVE",
"611 820 LINE SMOOTH",
"614 822 OFFCURVE",
"619 826 OFFCURVE",
"619 834 CURVE SMOOTH",
"619 843 OFFCURVE",
"612 850 OFFCURVE",
"603 850 CURVE SMOOTH",
"522 850 LINE SMOOTH",
"509 850 OFFCURVE",
"498 848 OFFCURVE",
"482 843 CURVE"
);
}
);
width = 850;
}
);
unicode = 0164;
},
{
color = 4;
glyphname = Tcommaaccent;
lastChange = "2016-09-08 17:15:01 +0000";
layers = (
{
layerId = UUID0;
paths = (
{
closed = 1;
nodes = (
"80 700 LINE SMOOTH",
"65 700 OFFCURVE",
"53 688 OFFCURVE",
"53 673 CURVE SMOOTH",
"53 512 LINE SMOOTH",
"53 497 OFFCURVE",
"65 485 OFFCURVE",
"80 485 CURVE SMOOTH",
"295 485 LINE",
"295 27 LINE SMOOTH",
"295 12 OFFCURVE",
"307 0 OFFCURVE",
"322 0 CURVE SMOOTH",
"528 0 LINE SMOOTH",
"543 0 OFFCURVE",
"555 12 OFFCURVE",
"555 27 CURVE SMOOTH",
"555 485 LINE",
"770 485 LINE SMOOTH",
"785 485 OFFCURVE",
"797 497 OFFCURVE",
"797 512 CURVE SMOOTH",
"797 673 LINE SMOOTH",
"797 688 OFFCURVE",
"785 700 OFFCURVE",
"770 700 CURVE SMOOTH"
);
},
{
closed = 1;
nodes = (
"251 -121 LINE SMOOTH",
"248 -124 OFFCURVE",
"246 -129 OFFCURVE",
"246 -134 CURVE SMOOTH",
"246 -144 OFFCURVE",
"252 -150 OFFCURVE",
"262 -150 CURVE SMOOTH",
"383 -150 LINE SMOOTH",
"387 -150 OFFCURVE",
"391 -150 OFFCURVE",
"395 -150 CURVE SMOOTH",
"405 -150 OFFCURVE",
"415 -149 OFFCURVE",
"423 -143 CURVE SMOOTH",
"518 -63 LINE SMOOTH",
"521 -60 OFFCURVE",
"523 -56 OFFCURVE",
"523 -51 CURVE SMOOTH",
"523 -39 OFFCURVE",
"516 -31 OFFCURVE",
"504 -31 CURVE SMOOTH",
"346 -31 LINE",
"331 -32 OFFCURVE",
"323 -33 OFFCURVE",
"309 -50 CURVE SMOOTH"
);
}
);
width = 850;
}
);
unicode = 021A;
},
{
color = 4;
glyphname = U;
lastChange = "2016-09-08 17:15:01 +0000";
layers = (
{
layerId = UUID0;
paths = (
{
closed = 1;
nodes = (
"636 -10 OFFCURVE",
"790 74 OFFCURVE",
"790 291 CURVE SMOOTH",
"790 673 LINE SMOOTH",
"790 688 OFFCURVE",
"778 700 OFFCURVE",
"763 700 CURVE SMOOTH",
"554 700 LINE SMOOTH",
"539 700 OFFCURVE",
"527 688 OFFCURVE",
"527 673 CURVE SMOOTH",
"527 275 LINE SMOOTH",
"527 220 OFFCURVE",
"486 190 OFFCURVE",
"425 190 CURVE SMOOTH",
"364 190 OFFCURVE",
"323 220 OFFCURVE",
"323 275 CURVE SMOOTH",
"323 673 LINE SMOOTH",
"323 688 OFFCURVE",
"311 700 OFFCURVE",
"296 700 CURVE SMOOTH",
"87 700 LINE SMOOTH",
"72 700 OFFCURVE",
"60 688 OFFCURVE",
"60 673 CURVE SMOOTH",
"60 291 LINE SMOOTH",
"60 74 OFFCURVE",
"214 -10 OFFCURVE",
"425 -10 CURVE SMOOTH"
);
}
);
width = 850;
}
);
unicode = 0055;
},
{
color = 4;
glyphname = Uacute;
lastChange = "2016-09-08 17:15:01 +0000";
layers = (
{
layerId = UUID0;
paths = (
{
closed = 1;
nodes = (
"214 -10 OFFCURVE",
"60 74 OFFCURVE",
"60 291 CURVE SMOOTH",
"60 673 LINE SMOOTH",
"60 688 OFFCURVE",
"72 700 OFFCURVE",
"87 700 CURVE SMOOTH",
"296 700 LINE SMOOTH",
"311 700 OFFCURVE",
"323 688 OFFCURVE",
"323 673 CURVE SMOOTH",
"323 275 LINE SMOOTH",
"323 220 OFFCURVE",
"364 190 OFFCURVE",
"425 190 CURVE SMOOTH",
"486 190 OFFCURVE",
"527 220 OFFCURVE",
"527 275 CURVE SMOOTH",
"527 673 LINE SMOOTH",
"527 688 OFFCURVE",
"539 700 OFFCURVE",
"554 700 CURVE SMOOTH",
"763 700 LINE SMOOTH",
"778 700 OFFCURVE",
"790 688 OFFCURVE",
"790 673 CURVE SMOOTH",
"790 291 LINE SMOOTH",
"790 74 OFFCURVE",
"636 -10 OFFCURVE",
"425 -10 CURVE SMOOTH"
);
},
{
closed = 1;
nodes = (
"339 760 LINE SMOOTH",
"336 757 OFFCURVE",
"334 752 OFFCURVE",
"334 747 CURVE SMOOTH",
"334 737 OFFCURVE",
"340 731 OFFCURVE",
"350 731 CURVE SMOOTH",
"471 731 LINE SMOOTH",
"475 731 OFFCURVE",
"479 731 OFFCURVE",
"483 731 CURVE SMOOTH",
"493 731 OFFCURVE",
"503 732 OFFCURVE",
"511 738 CURVE SMOOTH",
"606 818 LINE SMOOTH",
"609 821 OFFCURVE",
"611 825 OFFCURVE",
"611 830 CURVE SMOOTH",
"611 842 OFFCURVE",
"604 850 OFFCURVE",
"592 850 CURVE SMOOTH",
"434 850 LINE",
"419 849 OFFCURVE",
"411 848 OFFCURVE",
"397 831 CURVE SMOOTH"
);
}
);
width = 850;
}
);
unicode = 00DA;
},
{
color = 4;
glyphname = Ubreve;
lastChange = "2016-09-08 17:15:01 +0000";
layers = (
{
layerId = UUID0;
paths = (
{
closed = 1;
nodes = (
"636 -10 OFFCURVE",
"790 74 OFFCURVE",
"790 291 CURVE SMOOTH",
"790 673 LINE SMOOTH",
"790 688 OFFCURVE",
"778 700 OFFCURVE",
"763 700 CURVE SMOOTH",
"554 700 LINE SMOOTH",
"539 700 OFFCURVE",
"527 688 OFFCURVE",
"527 673 CURVE SMOOTH",
"527 275 LINE SMOOTH",
"527 220 OFFCURVE",
"486 190 OFFCURVE",
"425 190 CURVE SMOOTH",
"364 190 OFFCURVE",
"323 220 OFFCURVE",
"323 275 CURVE SMOOTH",
"323 673 LINE SMOOTH",
"323 688 OFFCURVE",
"311 700 OFFCURVE",
"296 700 CURVE SMOOTH",
"87 700 LINE SMOOTH",
"72 700 OFFCURVE",
"60 688 OFFCURVE",
"60 673 CURVE SMOOTH",
"60 291 LINE SMOOTH",
"60 74 OFFCURVE",
"214 -10 OFFCURVE",
"425 -10 CURVE SMOOTH"
);
},
{
closed = 1;
nodes = (
"461 833 OFFCURVE",
"454 817 OFFCURVE",
"424 817 CURVE SMOOTH",
"394 817 OFFCURVE",
"386 834 OFFCURVE",
"384 842 CURVE SMOOTH",
"382 849 OFFCURVE",
"377 855 OFFCURVE",
"365 855 CURVE SMOOTH",
"266 855 LINE SMOOTH",
"254 855 OFFCURVE",
"247 849 OFFCURVE",
"247 842 CURVE SMOOTH",
"247 784 OFFCURVE",
"304 730 OFFCURVE",
"424 730 CURVE SMOOTH",
"545 730 OFFCURVE",
"602 784 OFFCURVE",
"602 842 CURVE SMOOTH",
"602 849 OFFCURVE",
"595 855 OFFCURVE",
"583 855 CURVE SMOOTH",
"484 855 LINE SMOOTH",
"472 855 OFFCURVE",
"468 848 OFFCURVE",
"465 842 CURVE SMOOTH"
);
}
);
width = 850;
}
);
unicode = 016C;
},
{
color = 4;
glyphname = Ucircumflex;
lastChange = "2016-09-08 17:15:01 +0000";
layers = (
{
layerId = UUID0;
paths = (
{
closed = 1;
nodes = (
"214 -10 OFFCURVE",
"60 74 OFFCURVE",
"60 291 CURVE SMOOTH",
"60 673 LINE SMOOTH",
"60 688 OFFCURVE",
"72 700 OFFCURVE",
"87 700 CURVE SMOOTH",
"296 700 LINE SMOOTH",
"311 700 OFFCURVE",
"323 688 OFFCURVE",
"323 673 CURVE SMOOTH",
"323 275 LINE SMOOTH",
"323 220 OFFCURVE",
"364 190 OFFCURVE",
"425 190 CURVE SMOOTH",
"486 190 OFFCURVE",
"527 220 OFFCURVE",
"527 275 CURVE SMOOTH",
"527 673 LINE SMOOTH",
"527 688 OFFCURVE",
"539 700 OFFCURVE",
"554 700 CURVE SMOOTH",
"763 700 LINE SMOOTH",
"778 700 OFFCURVE",
"790 688 OFFCURVE",
"790 673 CURVE SMOOTH",
"790 291 LINE SMOOTH",
"790 74 OFFCURVE",
"636 -10 OFFCURVE",
"425 -10 CURVE SMOOTH"
);
},
{
closed = 1;
nodes = (
"425 760 LINE",
"482 738 LINE",
"498 733 OFFCURVE",
"509 731 OFFCURVE",
"522 731 CURVE SMOOTH",
"603 731 LINE SMOOTH",
"612 731 OFFCURVE",
"619 738 OFFCURVE",
"619 747 CURVE SMOOTH",
"619 755 OFFCURVE",
"614 759 OFFCURVE",
"611 761 CURVE SMOOTH",
"528 831 LINE",
"507 846 OFFCURVE",
"496 850 OFFCURVE",
"481 850 CURVE SMOOTH",
"369 850 LINE SMOOTH",
"354 850 OFFCURVE",
"343 846 OFFCURVE",
"322 831 CURVE",
"239 761 LINE SMOOTH",
"236 759 OFFCURVE",
"231 755 OFFCURVE",
"231 747 CURVE SMOOTH",
"231 738 OFFCURVE",
"238 731 OFFCURVE",
"247 731 CURVE SMOOTH",
"328 731 LINE SMOOTH",
"341 731 OFFCURVE",
"352 733 OFFCURVE",
"368 738 CURVE"
);
}
);
width = 850;
}
);
unicode = 00DB;
},
{
color = 4;
glyphname = Udieresis;
lastChange = "2016-09-08 17:15:01 +0000";
layers = (
{
layerId = UUID0;
paths = (
{
closed = 1;
nodes = (
"492 854 LINE SMOOTH",
"479 854 OFFCURVE",
"469 844 OFFCURVE",
"469 831 CURVE SMOOTH",
"469 758 LINE SMOOTH",
"469 745 OFFCURVE",
"479 735 OFFCURVE",
"492 735 CURVE SMOOTH",
"608 735 LINE SMOOTH",
"621 735 OFFCURVE",
"631 745 OFFCURVE",
"631 758 CURVE SMOOTH",
"631 831 LINE SMOOTH",
"631 844 OFFCURVE",
"621 854 OFFCURVE",
"608 854 CURVE SMOOTH"
);
},
{
closed = 1;
nodes = (
"241 854 LINE SMOOTH",
"228 854 OFFCURVE",
"218 844 OFFCURVE",
"218 831 CURVE SMOOTH",
"218 758 LINE SMOOTH",
"218 745 OFFCURVE",
"228 735 OFFCURVE",
"241 735 CURVE SMOOTH",
"357 735 LINE SMOOTH",
"370 735 OFFCURVE",
"380 745 OFFCURVE",
"380 758 CURVE SMOOTH",
"380 831 LINE SMOOTH",
"380 844 OFFCURVE",
"370 854 OFFCURVE",
"357 854 CURVE SMOOTH"
);
},
{
closed = 1;
nodes = (
"214 -10 OFFCURVE",
"60 74 OFFCURVE",
"60 291 CURVE SMOOTH",
"60 673 LINE SMOOTH",
"60 688 OFFCURVE",
"72 700 OFFCURVE",
"87 700 CURVE SMOOTH",
"296 700 LINE SMOOTH",
"311 700 OFFCURVE",
"323 688 OFFCURVE",
"323 673 CURVE SMOOTH",
"323 275 LINE SMOOTH",
"323 220 OFFCURVE",
"364 190 OFFCURVE",
"425 190 CURVE SMOOTH",
"486 190 OFFCURVE",
"527 220 OFFCURVE",
"527 275 CURVE SMOOTH",
"527 673 LINE SMOOTH",
"527 688 OFFCURVE",
"539 700 OFFCURVE",
"554 700 CURVE SMOOTH",
"763 700 LINE SMOOTH",
"778 700 OFFCURVE",
"790 688 OFFCURVE",
"790 673 CURVE SMOOTH",
"790 291 LINE SMOOTH",
"790 74 OFFCURVE",
"636 -10 OFFCURVE",
"425 -10 CURVE SMOOTH"
);
}
);
width = 850;
}
);
unicode = 00DC;
},
{
color = 4;
glyphname = Ugrave;
lastChange = "2016-09-08 17:15:01 +0000";
layers = (
{
layerId = UUID0;
paths = (
{
closed = 1;
nodes = (
"636 -10 OFFCURVE",
"790 74 OFFCURVE",
"790 291 CURVE SMOOTH",
"790 673 LINE SMOOTH",
"790 688 OFFCURVE",
"778 700 OFFCURVE",
"763 700 CURVE SMOOTH",
"554 700 LINE SMOOTH",
"539 700 OFFCURVE",
"527 688 OFFCURVE",
"527 673 CURVE SMOOTH",
"527 275 LINE SMOOTH",
"527 220 OFFCURVE",
"486 190 OFFCURVE",
"425 190 CURVE SMOOTH",
"364 190 OFFCURVE",
"323 220 OFFCURVE",
"323 275 CURVE SMOOTH",
"323 673 LINE SMOOTH",
"323 688 OFFCURVE",
"311 700 OFFCURVE",
"296 700 CURVE SMOOTH",
"87 700 LINE SMOOTH",
"72 700 OFFCURVE",
"60 688 OFFCURVE",
"60 673 CURVE SMOOTH",
"60 291 LINE SMOOTH",
"60 74 OFFCURVE",
"214 -10 OFFCURVE",
"425 -10 CURVE SMOOTH"
);
},
{
closed = 1;
nodes = (
"454 831 LINE SMOOTH",
"440 848 OFFCURVE",
"432 849 OFFCURVE",
"417 850 CURVE",
"259 850 LINE SMOOTH",
"247 850 OFFCURVE",
"240 842 OFFCURVE",
"240 830 CURVE SMOOTH",
"240 825 OFFCURVE",
"242 821 OFFCURVE",
"245 818 CURVE SMOOTH",
"340 738 LINE SMOOTH",
"348 732 OFFCURVE",
"358 731 OFFCURVE",
"368 731 CURVE SMOOTH",
"372 731 OFFCURVE",
"376 731 OFFCURVE",
"380 731 CURVE SMOOTH",
"501 731 LINE SMOOTH",
"511 731 OFFCURVE",
"517 737 OFFCURVE",
"517 747 CURVE SMOOTH",
"517 752 OFFCURVE",
"515 757 OFFCURVE",
"512 760 CURVE SMOOTH"
);
}
);
width = 850;
}
);
unicode = 00D9;
},
{
color = 4;
glyphname = Uhungarumlaut;
lastChange = "2016-09-08 17:15:01 +0000";
layers = (
{
layerId = UUID0;
paths = (
{
closed = 1;
nodes = (
"214 -10 OFFCURVE",
"60 74 OFFCURVE",
"60 291 CURVE SMOOTH",
"60 673 LINE SMOOTH",
"60 688 OFFCURVE",
"72 700 OFFCURVE",
"87 700 CURVE SMOOTH",
"296 700 LINE SMOOTH",
"311 700 OFFCURVE",
"323 688 OFFCURVE",
"323 673 CURVE SMOOTH",
"323 275 LINE SMOOTH",
"323 220 OFFCURVE",
"364 190 OFFCURVE",
"425 190 CURVE SMOOTH",
"486 190 OFFCURVE",
"527 220 OFFCURVE",
"527 275 CURVE SMOOTH",
"527 673 LINE SMOOTH",
"527 688 OFFCURVE",
"539 700 OFFCURVE",
"554 700 CURVE SMOOTH",
"763 700 LINE SMOOTH",
"778 700 OFFCURVE",
"790 688 OFFCURVE",
"790 673 CURVE SMOOTH",
"790 291 LINE SMOOTH",
"790 74 OFFCURVE",
"636 -10 OFFCURVE",
"425 -10 CURVE SMOOTH"
);
},
{
closed = 1;
nodes = (
"236 760 LINE SMOOTH",
"234 756 OFFCURVE",
"231 752 OFFCURVE",
"231 747 CURVE SMOOTH",
"231 737 OFFCURVE",
"237 731 OFFCURVE",
"247 731 CURVE SMOOTH",
"348 731 LINE SMOOTH",
"352 731 OFFCURVE",
"356 731 OFFCURVE",
"360 731 CURVE SMOOTH",
"370 731 OFFCURVE",
"380 732 OFFCURVE",
"388 738 CURVE",
"463 818 LINE SMOOTH",
"466 821 OFFCURVE",
"468 825 OFFCURVE",
"468 830 CURVE SMOOTH",
"468 842 OFFCURVE",
"461 850 OFFCURVE",
"449 850 CURVE SMOOTH",
"311 850 LINE",
"296 849 OFFCURVE",
"288 848 OFFCURVE",
"274 831 CURVE"
);
},
{
closed = 1;
nodes = (
"469 760 LINE SMOOTH",
"467 756 OFFCURVE",
"464 752 OFFCURVE",
"464 747 CURVE SMOOTH",
"464 737 OFFCURVE",
"470 731 OFFCURVE",
"480 731 CURVE SMOOTH",
"581 731 LINE SMOOTH",
"585 731 OFFCURVE",
"589 731 OFFCURVE",
"593 731 CURVE SMOOTH",
"603 731 OFFCURVE",
"613 732 OFFCURVE",
"621 738 CURVE",
"696 818 LINE SMOOTH",
"699 821 OFFCURVE",
"701 825 OFFCURVE",
"701 830 CURVE SMOOTH",
"701 842 OFFCURVE",
"694 850 OFFCURVE",
"682 850 CURVE SMOOTH",
"544 850 LINE",
"529 849 OFFCURVE",
"521 848 OFFCURVE",
"507 831 CURVE"
);
}
);
width = 850;
}
);
unicode = 0170;
},
{
color = 4;
glyphname = Umacron;
lastChange = "2016-09-08 17:15:01 +0000";
layers = (
{
layerId = UUID0;
paths = (
{
closed = 1;
nodes = (
"214 -10 OFFCURVE",
"60 74 OFFCURVE",
"60 291 CURVE SMOOTH",
"60 673 LINE SMOOTH",
"60 688 OFFCURVE",
"72 700 OFFCURVE",
"87 700 CURVE SMOOTH",
"296 700 LINE SMOOTH",
"311 700 OFFCURVE",
"323 688 OFFCURVE",
"323 673 CURVE SMOOTH",
"323 275 LINE SMOOTH",
"323 220 OFFCURVE",
"364 190 OFFCURVE",
"425 190 CURVE SMOOTH",
"486 190 OFFCURVE",
"527 220 OFFCURVE",
"527 275 CURVE SMOOTH",
"527 673 LINE SMOOTH",
"527 688 OFFCURVE",
"539 700 OFFCURVE",
"554 700 CURVE SMOOTH",
"763 700 LINE SMOOTH",
"778 700 OFFCURVE",
"790 688 OFFCURVE",
"790 673 CURVE SMOOTH",
"790 291 LINE SMOOTH",
"790 74 OFFCURVE",
"636 -10 OFFCURVE",
"425 -10 CURVE SMOOTH"
);
},
{
closed = 1;
nodes = (
"242 850 LINE SMOOTH",
"229 850 OFFCURVE",
"219 840 OFFCURVE",
"219 827 CURVE SMOOTH",
"219 754 LINE SMOOTH",
"219 741 OFFCURVE",
"229 731 OFFCURVE",
"242 731 CURVE SMOOTH",
"609 731 LINE SMOOTH",
"622 731 OFFCURVE",
"632 741 OFFCURVE",
"632 754 CURVE SMOOTH",
"632 827 LINE SMOOTH",
"632 840 OFFCURVE",
"622 850 OFFCURVE",
"609 850 CURVE SMOOTH"
);
}
);
width = 850;
}
);
unicode = 016A;
},
{
color = 4;
glyphname = Uogonek;
lastChange = "2016-09-08 17:15:01 +0000";
layers = (
{
layerId = UUID0;
paths = (
{
closed = 1;
nodes = (
"493 -60 LINE SMOOTH",
"459 -60 OFFCURVE",
"450 -49 OFFCURVE",
"450 -34 CURVE SMOOTH",
"450 -19 OFFCURVE",
"460 -14 OFFCURVE",
"493 -8 CURVE SMOOTH",
"511 -5 LINE",
"519 -3 LINE",
"680 19 OFFCURVE",
"790 108 OFFCURVE",
"790 291 CURVE SMOOTH",
"790 673 LINE SMOOTH",
"790 688 OFFCURVE",
"778 700 OFFCURVE",
"763 700 CURVE SMOOTH",
"554 700 LINE SMOOTH",
"539 700 OFFCURVE",
"527 688 OFFCURVE",
"527 673 CURVE SMOOTH",
"527 275 LINE SMOOTH",
"527 220 OFFCURVE",
"486 190 OFFCURVE",
"425 190 CURVE SMOOTH",
"364 190 OFFCURVE",
"323 220 OFFCURVE",
"323 275 CURVE SMOOTH",
"323 673 LINE SMOOTH",
"323 688 OFFCURVE",
"311 700 OFFCURVE",
"296 700 CURVE SMOOTH",
"87 700 LINE SMOOTH",
"72 700 OFFCURVE",
"60 688 OFFCURVE",
"60 673 CURVE SMOOTH",
"60 291 LINE SMOOTH",
"60 105 OFFCURVE",
"172 17 OFFCURVE",
"337 -4 CURVE",
"335 -13 OFFCURVE",
"334 -23 OFFCURVE",
"334 -34 CURVE SMOOTH",
"334 -106 OFFCURVE",
"375 -150 OFFCURVE",
"486 -150 CURVE SMOOTH",
"500 -150 LINE SMOOTH",
"515 -150 OFFCURVE",
"527 -141 OFFCURVE",
"527 -126 CURVE SMOOTH",
"527 -85 LINE SMOOTH",
"527 -69 OFFCURVE",
"515 -60 OFFCURVE",
"500 -60 CURVE SMOOTH"
);
}
);
width = 850;
}
);
unicode = 0172;
},
{
color = 4;
glyphname = Uring;
lastChange = "2016-09-08 17:15:01 +0000";
layers = (
{
layerId = UUID0;
paths = (
{
closed = 1;
nodes = (
"214 -10 OFFCURVE",
"60 74 OFFCURVE",
"60 291 CURVE SMOOTH",
"60 673 LINE SMOOTH",
"60 688 OFFCURVE",
"72 700 OFFCURVE",
"87 700 CURVE SMOOTH",
"296 700 LINE SMOOTH",
"311 700 OFFCURVE",
"323 688 OFFCURVE",
"323 673 CURVE SMOOTH",
"323 275 LINE SMOOTH",
"323 220 OFFCURVE",
"364 190 OFFCURVE",
"425 190 CURVE SMOOTH",
"486 190 OFFCURVE",
"527 220 OFFCURVE",
"527 275 CURVE SMOOTH",
"527 673 LINE SMOOTH",
"527 688 OFFCURVE",
"539 700 OFFCURVE",
"554 700 CURVE SMOOTH",
"763 700 LINE SMOOTH",
"778 700 OFFCURVE",
"790 688 OFFCURVE",
"790 673 CURVE SMOOTH",
"790 291 LINE SMOOTH",
"790 74 OFFCURVE",
"636 -10 OFFCURVE",
"425 -10 CURVE SMOOTH"
);
},
{
closed = 1;
nodes = (
"394 800 OFFCURVE",
"408 807 OFFCURVE",
"425 807 CURVE SMOOTH",
"442 807 OFFCURVE",
"455 800 OFFCURVE",
"455 787 CURVE SMOOTH",
"455 774 OFFCURVE",
"442 767 OFFCURVE",
"425 767 CURVE SMOOTH",
"408 767 OFFCURVE",
"394 774 OFFCURVE",
"394 787 CURVE SMOOTH"
);
},
{
closed = 1;
nodes = (
"324 744 OFFCURVE",
"369 719 OFFCURVE",
"425 719 CURVE SMOOTH",
"481 719 OFFCURVE",
"526 744 OFFCURVE",
"526 787 CURVE SMOOTH",
"526 830 OFFCURVE",
"481 855 OFFCURVE",
"425 855 CURVE SMOOTH",
"369 855 OFFCURVE",
"324 830 OFFCURVE",
"324 787 CURVE SMOOTH"
);
}
);
width = 850;
}
);
unicode = 016E;
},
{
color = 4;
glyphname = Utilde;
lastChange = "2016-09-08 17:15:01 +0000";
layers = (
{
layerId = UUID0;
paths = (
{
closed = 1;
nodes = (
"214 -10 OFFCURVE",
"60 74 OFFCURVE",
"60 291 CURVE SMOOTH",
"60 673 LINE SMOOTH",
"60 688 OFFCURVE",
"72 700 OFFCURVE",
"87 700 CURVE SMOOTH",
"296 700 LINE SMOOTH",
"311 700 OFFCURVE",
"323 688 OFFCURVE",
"323 673 CURVE SMOOTH",
"323 275 LINE SMOOTH",
"323 220 OFFCURVE",
"364 190 OFFCURVE",
"425 190 CURVE SMOOTH",
"486 190 OFFCURVE",
"527 220 OFFCURVE",
"527 275 CURVE SMOOTH",
"527 673 LINE SMOOTH",
"527 688 OFFCURVE",
"539 700 OFFCURVE",
"554 700 CURVE SMOOTH",
"763 700 LINE SMOOTH",
"778 700 OFFCURVE",
"790 688 OFFCURVE",
"790 673 CURVE SMOOTH",
"790 291 LINE SMOOTH",
"790 74 OFFCURVE",
"636 -10 OFFCURVE",
"425 -10 CURVE SMOOTH"
);
},
{
closed = 1;
nodes = (
"596 730 OFFCURVE",
"623 806 OFFCURVE",
"623 831 CURVE SMOOTH",
"623 841 OFFCURVE",
"616 850 OFFCURVE",
"604 850 CURVE SMOOTH",
"520 850 LINE SMOOTH",
"497 850 OFFCURVE",
"499 831 OFFCURVE",
"470 831 CURVE SMOOTH",
"437 831 OFFCURVE",
"414 855 OFFCURVE",
"362 855 CURVE SMOOTH",
"252 855 OFFCURVE",
"226 778 OFFCURVE",
"226 753 CURVE SMOOTH",
"226 743 OFFCURVE",
"235 735 OFFCURVE",
"245 735 CURVE SMOOTH",
"329 735 LINE SMOOTH",
"352 735 OFFCURVE",
"349 754 OFFCURVE",
"379 754 CURVE SMOOTH",
"412 754 OFFCURVE",
"435 730 OFFCURVE",
"487 730 CURVE SMOOTH"
);
}
);
width = 850;
}
);
unicode = 0168;
},
{
color = 4;
glyphname = V;
lastChange = "2016-09-08 17:15:01 +0000";
layers = (
{
layerId = UUID0;
paths = (
{
closed = 1;
nodes = (
"585 700 LINE SMOOTH",
"558 700 OFFCURVE",
"544 682 OFFCURVE",
"540 667 CURVE SMOOTH",
"425 284 LINE",
"310 667 LINE SMOOTH",
"306 680 OFFCURVE",
"292 700 OFFCURVE",
"265 700 CURVE SMOOTH",
"54 700 LINE SMOOTH",
"42 700 OFFCURVE",
"32 690 OFFCURVE",
"32 678 CURVE SMOOTH",
"32 676 OFFCURVE",
"32 675 OFFCURVE",
"33 671 CURVE SMOOTH",
"265 30 LINE SMOOTH",
"269 19 OFFCURVE",
"282 0 OFFCURVE",
"309 0 CURVE SMOOTH",
"542 0 LINE SMOOTH",
"569 0 OFFCURVE",
"582 18 OFFCURVE",
"587 33 CURVE SMOOTH",
"817 671 LINE SMOOTH",
"818 675 OFFCURVE",
"818 676 OFFCURVE",
"818 678 CURVE SMOOTH",
"818 690 OFFCURVE",
"808 700 OFFCURVE",
"796 700 CURVE SMOOTH"
);
}
);
width = 850;
}
);
unicode = 0056;
},
{
color = 4;
glyphname = W;
lastChange = "2016-09-08 17:15:01 +0000";
layers = (
{
layerId = UUID0;
paths = (
{
closed = 1;
nodes = (
"429 238 LINE",
"521 27 LINE SMOOTH",
"524 19 OFFCURVE",
"538 0 OFFCURVE",
"565 0 CURVE SMOOTH",
"705 0 LINE SMOOTH",
"732 0 OFFCURVE",
"749 20 OFFCURVE",
"751 38 CURVE SMOOTH",
"838 675 LINE",
"838 676 OFFCURVE",
"838 677 OFFCURVE",
"838 678 CURVE SMOOTH",
"838 690 OFFCURVE",
"828 700 OFFCURVE",
"816 700 CURVE SMOOTH",
"644 700 LINE SMOOTH",
"617 700 OFFCURVE",
"600 681 OFFCURVE",
"597 658 CURVE",
"565 352 LINE",
"507 511 LINE SMOOTH",
"504 521 OFFCURVE",
"490 540 OFFCURVE",
"463 540 CURVE SMOOTH",
"395 540 LINE SMOOTH",
"368 540 OFFCURVE",
"354 521 OFFCURVE",
"351 511 CURVE SMOOTH",
"293 352 LINE",
"261 658 LINE",
"258 681 OFFCURVE",
"241 700 OFFCURVE",
"214 700 CURVE SMOOTH",
"42 700 LINE SMOOTH",
"30 700 OFFCURVE",
"20 690 OFFCURVE",
"20 678 CURVE SMOOTH",
"20 677 OFFCURVE",
"20 676 OFFCURVE",
"20 675 CURVE",
"107 38 LINE SMOOTH",
"109 20 OFFCURVE",
"126 0 OFFCURVE",
"153 0 CURVE SMOOTH",
"293 0 LINE SMOOTH",
"320 0 OFFCURVE",
"334 19 OFFCURVE",
"337 27 CURVE SMOOTH"
);
}
);
width = 850;
}
);
unicode = 0057;
},
{
color = 4;
glyphname = Wacute;
lastChange = "2016-09-08 17:15:01 +0000";
layers = (
{
layerId = UUID0;
paths = (
{
closed = 1;
nodes = (
"429 238 LINE",
"521 27 LINE SMOOTH",
"524 19 OFFCURVE",
"538 0 OFFCURVE",
"565 0 CURVE SMOOTH",
"705 0 LINE SMOOTH",
"732 0 OFFCURVE",
"749 20 OFFCURVE",
"751 38 CURVE SMOOTH",
"838 675 LINE",
"838 676 OFFCURVE",
"838 677 OFFCURVE",
"838 678 CURVE SMOOTH",
"838 690 OFFCURVE",
"828 700 OFFCURVE",
"816 700 CURVE SMOOTH",
"644 700 LINE SMOOTH",
"617 700 OFFCURVE",
"600 681 OFFCURVE",
"597 658 CURVE",
"565 352 LINE",
"507 511 LINE SMOOTH",
"504 521 OFFCURVE",
"490 540 OFFCURVE",
"463 540 CURVE SMOOTH",
"395 540 LINE SMOOTH",
"368 540 OFFCURVE",
"354 521 OFFCURVE",
"351 511 CURVE SMOOTH",
"293 352 LINE",
"261 658 LINE",
"258 681 OFFCURVE",
"241 700 OFFCURVE",
"214 700 CURVE SMOOTH",
"42 700 LINE SMOOTH",
"30 700 OFFCURVE",
"20 690 OFFCURVE",
"20 678 CURVE SMOOTH",
"20 677 OFFCURVE",
"20 676 OFFCURVE",
"20 675 CURVE",
"107 38 LINE SMOOTH",
"109 20 OFFCURVE",
"126 0 OFFCURVE",
"153 0 CURVE SMOOTH",
"293 0 LINE SMOOTH",
"320 0 OFFCURVE",
"334 19 OFFCURVE",
"337 27 CURVE SMOOTH"
);
},
{
closed = 1;
nodes = (
"333 760 LINE SMOOTH",
"330 757 OFFCURVE",
"328 752 OFFCURVE",
"328 747 CURVE SMOOTH",
"328 737 OFFCURVE",
"334 731 OFFCURVE",
"344 731 CURVE SMOOTH",
"465 731 LINE SMOOTH",
"469 731 OFFCURVE",
"473 731 OFFCURVE",
"477 731 CURVE SMOOTH",
"487 731 OFFCURVE",
"497 732 OFFCURVE",
"505 738 CURVE SMOOTH",
"600 818 LINE SMOOTH",
"603 821 OFFCURVE",
"605 825 OFFCURVE",
"605 830 CURVE SMOOTH",
"605 842 OFFCURVE",
"598 850 OFFCURVE",
"586 850 CURVE SMOOTH",
"428 850 LINE",
"413 849 OFFCURVE",
"405 848 OFFCURVE",
"391 831 CURVE SMOOTH"
);
}
);
width = 850;
}
);
unicode = 1E82;
},
{
color = 4;
glyphname = Wcircumflex;
lastChange = "2016-09-08 17:15:01 +0000";
layers = (
{
layerId = UUID0;
paths = (
{
closed = 1;
nodes = (
"429 238 LINE",
"521 27 LINE SMOOTH",
"524 19 OFFCURVE",
"538 0 OFFCURVE",
"565 0 CURVE SMOOTH",
"705 0 LINE SMOOTH",
"732 0 OFFCURVE",
"749 20 OFFCURVE",
"751 38 CURVE SMOOTH",
"838 675 LINE",
"838 676 OFFCURVE",
"838 677 OFFCURVE",
"838 678 CURVE SMOOTH",
"838 690 OFFCURVE",
"828 700 OFFCURVE",
"816 700 CURVE SMOOTH",
"644 700 LINE SMOOTH",
"617 700 OFFCURVE",
"600 681 OFFCURVE",
"597 658 CURVE",
"565 352 LINE",
"507 511 LINE SMOOTH",
"504 521 OFFCURVE",
"490 540 OFFCURVE",
"463 540 CURVE SMOOTH",
"395 540 LINE SMOOTH",
"368 540 OFFCURVE",
"354 521 OFFCURVE",
"351 511 CURVE SMOOTH",
"293 352 LINE",
"261 658 LINE",
"258 681 OFFCURVE",
"241 700 OFFCURVE",
"214 700 CURVE SMOOTH",
"42 700 LINE SMOOTH",
"30 700 OFFCURVE",
"20 690 OFFCURVE",
"20 678 CURVE SMOOTH",
"20 677 OFFCURVE",
"20 676 OFFCURVE",
"20 675 CURVE",
"107 38 LINE SMOOTH",
"109 20 OFFCURVE",
"126 0 OFFCURVE",
"153 0 CURVE SMOOTH",
"293 0 LINE SMOOTH",
"320 0 OFFCURVE",
"334 19 OFFCURVE",
"337 27 CURVE SMOOTH"
);
},
{
closed = 1;
nodes = (
"427 760 LINE",
"484 738 LINE",
"500 733 OFFCURVE",
"511 731 OFFCURVE",
"524 731 CURVE SMOOTH",
"605 731 LINE SMOOTH",
"614 731 OFFCURVE",
"621 738 OFFCURVE",
"621 747 CURVE SMOOTH",
"621 755 OFFCURVE",
"616 759 OFFCURVE",
"613 761 CURVE SMOOTH",
"530 831 LINE",
"509 846 OFFCURVE",
"498 850 OFFCURVE",
"483 850 CURVE SMOOTH",
"371 850 LINE SMOOTH",
"356 850 OFFCURVE",
"345 846 OFFCURVE",
"324 831 CURVE",
"241 761 LINE SMOOTH",
"238 759 OFFCURVE",
"233 755 OFFCURVE",
"233 747 CURVE SMOOTH",
"233 738 OFFCURVE",
"240 731 OFFCURVE",
"249 731 CURVE SMOOTH",
"330 731 LINE SMOOTH",
"343 731 OFFCURVE",
"354 733 OFFCURVE",
"370 738 CURVE"
);
}
);
width = 850;
}
);
unicode = 0174;
},
{
color = 4;
glyphname = Wdieresis;
lastChange = "2016-09-08 17:15:01 +0000";
layers = (
{
layerId = UUID0;
paths = (
{
closed = 1;
nodes = (
"429 238 LINE",
"521 27 LINE SMOOTH",
"524 19 OFFCURVE",
"538 0 OFFCURVE",
"565 0 CURVE SMOOTH",
"705 0 LINE SMOOTH",
"732 0 OFFCURVE",
"749 20 OFFCURVE",
"751 38 CURVE SMOOTH",
"838 675 LINE",
"838 676 OFFCURVE",
"838 677 OFFCURVE",
"838 678 CURVE SMOOTH",
"838 690 OFFCURVE",
"828 700 OFFCURVE",
"816 700 CURVE SMOOTH",
"644 700 LINE SMOOTH",
"617 700 OFFCURVE",
"600 681 OFFCURVE",
"597 658 CURVE",
"565 352 LINE",
"507 511 LINE SMOOTH",
"504 521 OFFCURVE",
"490 540 OFFCURVE",
"463 540 CURVE SMOOTH",
"395 540 LINE SMOOTH",
"368 540 OFFCURVE",
"354 521 OFFCURVE",
"351 511 CURVE SMOOTH",
"293 352 LINE",
"261 658 LINE",
"258 681 OFFCURVE",
"241 700 OFFCURVE",
"214 700 CURVE SMOOTH",
"42 700 LINE SMOOTH",
"30 700 OFFCURVE",
"20 690 OFFCURVE",
"20 678 CURVE SMOOTH",
"20 677 OFFCURVE",
"20 676 OFFCURVE",
"20 675 CURVE",
"107 38 LINE SMOOTH",
"109 20 OFFCURVE",
"126 0 OFFCURVE",
"153 0 CURVE SMOOTH",
"293 0 LINE SMOOTH",
"320 0 OFFCURVE",
"334 19 OFFCURVE",
"337 27 CURVE SMOOTH"
);
},
{
closed = 1;
nodes = (
"495 850 LINE SMOOTH",
"482 850 OFFCURVE",
"472 840 OFFCURVE",
"472 827 CURVE SMOOTH",
"472 754 LINE SMOOTH",
"472 741 OFFCURVE",
"482 731 OFFCURVE",
"495 731 CURVE SMOOTH",
"611 731 LINE SMOOTH",
"624 731 OFFCURVE",
"634 741 OFFCURVE",
"634 754 CURVE SMOOTH",
"634 827 LINE SMOOTH",
"634 840 OFFCURVE",
"624 850 OFFCURVE",
"611 850 CURVE SMOOTH"
);
},
{
closed = 1;
nodes = (
"244 850 LINE SMOOTH",
"231 850 OFFCURVE",
"221 840 OFFCURVE",
"221 827 CURVE SMOOTH",
"221 754 LINE SMOOTH",
"221 741 OFFCURVE",
"231 731 OFFCURVE",
"244 731 CURVE SMOOTH",
"360 731 LINE SMOOTH",
"373 731 OFFCURVE",
"383 741 OFFCURVE",
"383 754 CURVE SMOOTH",
"383 827 LINE SMOOTH",
"383 840 OFFCURVE",
"373 850 OFFCURVE",
"360 850 CURVE SMOOTH"
);
}
);
width = 850;
}
);
unicode = 1E84;
},
{
color = 4;
glyphname = Wgrave;
lastChange = "2016-09-08 17:15:01 +0000";
layers = (
{
layerId = UUID0;
paths = (
{
closed = 1;
nodes = (
"429 238 LINE",
"521 27 LINE SMOOTH",
"524 19 OFFCURVE",
"538 0 OFFCURVE",
"565 0 CURVE SMOOTH",
"705 0 LINE SMOOTH",
"732 0 OFFCURVE",
"749 20 OFFCURVE",
"751 38 CURVE SMOOTH",
"838 675 LINE",
"838 676 OFFCURVE",
"838 677 OFFCURVE",
"838 678 CURVE SMOOTH",
"838 690 OFFCURVE",
"828 700 OFFCURVE",
"816 700 CURVE SMOOTH",
"644 700 LINE SMOOTH",
"617 700 OFFCURVE",
"600 681 OFFCURVE",
"597 658 CURVE",
"565 352 LINE",
"507 511 LINE SMOOTH",
"504 521 OFFCURVE",
"490 540 OFFCURVE",
"463 540 CURVE SMOOTH",
"395 540 LINE SMOOTH",
"368 540 OFFCURVE",
"354 521 OFFCURVE",
"351 511 CURVE SMOOTH",
"293 352 LINE",
"261 658 LINE",
"258 681 OFFCURVE",
"241 700 OFFCURVE",
"214 700 CURVE SMOOTH",
"42 700 LINE SMOOTH",
"30 700 OFFCURVE",
"20 690 OFFCURVE",
"20 678 CURVE SMOOTH",
"20 677 OFFCURVE",
"20 676 OFFCURVE",
"20 675 CURVE",
"107 38 LINE SMOOTH",
"109 20 OFFCURVE",
"126 0 OFFCURVE",
"153 0 CURVE SMOOTH",
"293 0 LINE SMOOTH",
"320 0 OFFCURVE",
"334 19 OFFCURVE",
"337 27 CURVE SMOOTH"
);
},
{
closed = 1;
nodes = (
"451 831 LINE SMOOTH",
"437 848 OFFCURVE",
"429 849 OFFCURVE",
"414 850 CURVE",
"256 850 LINE SMOOTH",
"244 850 OFFCURVE",
"237 842 OFFCURVE",
"237 830 CURVE SMOOTH",
"237 825 OFFCURVE",
"239 821 OFFCURVE",
"242 818 CURVE SMOOTH",
"337 738 LINE SMOOTH",
"345 732 OFFCURVE",
"355 731 OFFCURVE",
"365 731 CURVE SMOOTH",
"369 731 OFFCURVE",
"373 731 OFFCURVE",
"377 731 CURVE SMOOTH",
"498 731 LINE SMOOTH",
"508 731 OFFCURVE",
"514 737 OFFCURVE",
"514 747 CURVE SMOOTH",
"514 752 OFFCURVE",
"512 757 OFFCURVE",
"509 760 CURVE SMOOTH"
);
}
);
width = 850;
}
);
unicode = 1E80;
},
{
color = 4;
glyphname = X;
lastChange = "2016-09-08 17:15:01 +0000";
layers = (
{
layerId = UUID0;
paths = (
{
closed = 1;
nodes = (
"582 358 LINE",
"791 667 LINE SMOOTH",
"795 672 OFFCURVE",
"794 675 OFFCURVE",
"794 678 CURVE SMOOTH",
"794 690 OFFCURVE",
"784 700 OFFCURVE",
"772 700 CURVE SMOOTH",
"557 700 LINE SMOOTH",
"530 700 OFFCURVE",
"519 681 OFFCURVE",
"516 677 CURVE SMOOTH",
"432 547 LINE",
"354 675 LINE SMOOTH",
"349 683 OFFCURVE",
"338 700 OFFCURVE",
"312 700 CURVE SMOOTH",
"96 700 LINE SMOOTH",
"84 700 OFFCURVE",
"74 690 OFFCURVE",
"74 678 CURVE SMOOTH",
"74 673 OFFCURVE",
"74 671 OFFCURVE",
"77 667 CURVE SMOOTH",
"274 371 LINE",
"53 33 LINE SMOOTH",
"49 28 OFFCURVE",
"50 24 OFFCURVE",
"50 22 CURVE SMOOTH",
"50 10 OFFCURVE",
"60 0 OFFCURVE",
"72 0 CURVE SMOOTH",
"288 0 LINE SMOOTH",
"313 0 OFFCURVE",
"325 17 OFFCURVE",
"329 23 CURVE SMOOTH",
"424 172 LINE",
"521 23 LINE SMOOTH",
"524 18 OFFCURVE",
"536 0 OFFCURVE",
"562 0 CURVE SMOOTH",
"777 0 LINE SMOOTH",
"789 0 OFFCURVE",
"799 10 OFFCURVE",
"799 22 CURVE SMOOTH",
"799 24 OFFCURVE",
"800 28 OFFCURVE",
"796 33 CURVE SMOOTH"
);
}
);
width = 850;
}
);
unicode = 0058;
},
{
color = 4;
glyphname = Y;
lastChange = "2016-09-08 17:15:01 +0000";
layers = (
{
layerId = UUID0;
paths = (
{
closed = 1;
nodes = (
"582 700 LINE SMOOTH",
"560 700 OFFCURVE",
"548 688 OFFCURVE",
"540 675 CURVE SMOOTH",
"424 479 LINE",
"311 677 LINE SMOOTH",
"304 689 OFFCURVE",
"291 700 OFFCURVE",
"270 700 CURVE SMOOTH",
"59 700 LINE SMOOTH",
"47 700 OFFCURVE",
"37 690 OFFCURVE",
"37 678 CURVE SMOOTH",
"37 672 OFFCURVE",
"39 669 OFFCURVE",
"40 667 CURVE SMOOTH",
"291 250 LINE",
"291 27 LINE SMOOTH",
"291 12 OFFCURVE",
"303 0 OFFCURVE",
"318 0 CURVE SMOOTH",
"531 0 LINE SMOOTH",
"546 0 OFFCURVE",
"558 12 OFFCURVE",
"558 27 CURVE SMOOTH",
"558 250 LINE",
"810 667 LINE SMOOTH",
"811 669 OFFCURVE",
"813 672 OFFCURVE",
"813 679 CURVE SMOOTH",
"813 690 OFFCURVE",
"803 700 OFFCURVE",
"791 700 CURVE SMOOTH"
);
}
);
width = 850;
}
);
unicode = 0059;
},
{
color = 4;
glyphname = Yacute;
lastChange = "2016-09-08 17:15:01 +0000";
layers = (
{
layerId = UUID0;
paths = (
{
closed = 1;
nodes = (
"582 700 LINE SMOOTH",
"560 700 OFFCURVE",
"548 688 OFFCURVE",
"540 675 CURVE SMOOTH",
"424 479 LINE",
"311 677 LINE SMOOTH",
"304 689 OFFCURVE",
"291 700 OFFCURVE",
"270 700 CURVE SMOOTH",
"59 700 LINE SMOOTH",
"47 700 OFFCURVE",
"37 690 OFFCURVE",
"37 678 CURVE SMOOTH",
"37 672 OFFCURVE",
"39 669 OFFCURVE",
"40 667 CURVE SMOOTH",
"291 250 LINE",
"291 27 LINE SMOOTH",
"291 12 OFFCURVE",
"303 0 OFFCURVE",
"318 0 CURVE SMOOTH",
"531 0 LINE SMOOTH",
"546 0 OFFCURVE",
"558 12 OFFCURVE",
"558 27 CURVE SMOOTH",
"558 250 LINE",
"810 667 LINE SMOOTH",
"811 669 OFFCURVE",
"813 672 OFFCURVE",
"813 679 CURVE SMOOTH",
"813 690 OFFCURVE",
"803 700 OFFCURVE",
"791 700 CURVE SMOOTH"
);
},
{
closed = 1;
nodes = (
"331 760 LINE SMOOTH",
"328 757 OFFCURVE",
"326 752 OFFCURVE",
"326 747 CURVE SMOOTH",
"326 737 OFFCURVE",
"332 731 OFFCURVE",
"342 731 CURVE SMOOTH",
"463 731 LINE SMOOTH",
"467 731 OFFCURVE",
"471 731 OFFCURVE",
"475 731 CURVE SMOOTH",
"485 731 OFFCURVE",
"495 732 OFFCURVE",
"503 738 CURVE SMOOTH",
"598 818 LINE SMOOTH",
"601 821 OFFCURVE",
"603 825 OFFCURVE",
"603 830 CURVE SMOOTH",
"603 842 OFFCURVE",
"596 850 OFFCURVE",
"584 850 CURVE SMOOTH",
"426 850 LINE",
"411 849 OFFCURVE",
"403 848 OFFCURVE",
"389 831 CURVE SMOOTH"
);
}
);
width = 850;
}
);
unicode = 00DD;
},
{
color = 4;
glyphname = Ycircumflex;
lastChange = "2016-09-08 17:15:01 +0000";
layers = (
{
layerId = UUID0;
paths = (
{
closed = 1;
nodes = (
"582 700 LINE SMOOTH",
"560 700 OFFCURVE",
"548 688 OFFCURVE",
"540 675 CURVE SMOOTH",
"424 479 LINE",
"311 677 LINE SMOOTH",
"304 689 OFFCURVE",
"291 700 OFFCURVE",
"270 700 CURVE SMOOTH",
"59 700 LINE SMOOTH",
"47 700 OFFCURVE",
"37 690 OFFCURVE",
"37 678 CURVE SMOOTH",
"37 672 OFFCURVE",
"39 669 OFFCURVE",
"40 667 CURVE SMOOTH",
"291 250 LINE",
"291 27 LINE SMOOTH",
"291 12 OFFCURVE",
"303 0 OFFCURVE",
"318 0 CURVE SMOOTH",
"531 0 LINE SMOOTH",
"546 0 OFFCURVE",
"558 12 OFFCURVE",
"558 27 CURVE SMOOTH",
"558 250 LINE",
"810 667 LINE SMOOTH",
"811 669 OFFCURVE",
"813 672 OFFCURVE",
"813 679 CURVE SMOOTH",
"813 690 OFFCURVE",
"803 700 OFFCURVE",
"791 700 CURVE SMOOTH"
);
},
{
closed = 1;
nodes = (
"424 760 LINE",
"481 738 LINE",
"497 733 OFFCURVE",
"508 731 OFFCURVE",
"521 731 CURVE SMOOTH",
"602 731 LINE SMOOTH",
"611 731 OFFCURVE",
"618 738 OFFCURVE",
"618 747 CURVE SMOOTH",
"618 755 OFFCURVE",
"613 759 OFFCURVE",
"610 761 CURVE SMOOTH",
"527 831 LINE",
"506 846 OFFCURVE",
"495 850 OFFCURVE",
"480 850 CURVE SMOOTH",
"368 850 LINE SMOOTH",
"353 850 OFFCURVE",
"342 846 OFFCURVE",
"321 831 CURVE",
"238 761 LINE SMOOTH",
"235 759 OFFCURVE",
"230 755 OFFCURVE",
"230 747 CURVE SMOOTH",
"230 738 OFFCURVE",
"237 731 OFFCURVE",
"246 731 CURVE SMOOTH",
"327 731 LINE SMOOTH",
"340 731 OFFCURVE",
"351 733 OFFCURVE",
"367 738 CURVE"
);
}
);
width = 850;
}
);
unicode = 0176;
},
{
color = 4;
glyphname = Ydieresis;
lastChange = "2016-09-08 17:15:01 +0000";
layers = (
{
layerId = UUID0;
paths = (
{
closed = 1;
nodes = (
"492 855 LINE SMOOTH",
"479 855 OFFCURVE",
"469 845 OFFCURVE",
"469 832 CURVE SMOOTH",
"469 759 LINE SMOOTH",
"469 746 OFFCURVE",
"479 736 OFFCURVE",
"492 736 CURVE SMOOTH",
"608 736 LINE SMOOTH",
"621 736 OFFCURVE",
"631 746 OFFCURVE",
"631 759 CURVE SMOOTH",
"631 832 LINE SMOOTH",
"631 845 OFFCURVE",
"621 855 OFFCURVE",
"608 855 CURVE SMOOTH"
);
},
{
closed = 1;
nodes = (
"241 855 LINE SMOOTH",
"228 855 OFFCURVE",
"218 845 OFFCURVE",
"218 832 CURVE SMOOTH",
"218 759 LINE SMOOTH",
"218 746 OFFCURVE",
"228 736 OFFCURVE",
"241 736 CURVE SMOOTH",
"357 736 LINE SMOOTH",
"370 736 OFFCURVE",
"380 746 OFFCURVE",
"380 759 CURVE SMOOTH",
"380 832 LINE SMOOTH",
"380 845 OFFCURVE",
"370 855 OFFCURVE",
"357 855 CURVE SMOOTH"
);
},
{
closed = 1;
nodes = (
"582 700 LINE SMOOTH",
"560 700 OFFCURVE",
"548 688 OFFCURVE",
"540 675 CURVE SMOOTH",
"424 479 LINE",
"311 677 LINE SMOOTH",
"304 689 OFFCURVE",
"291 700 OFFCURVE",
"270 700 CURVE SMOOTH",
"59 700 LINE SMOOTH",
"47 700 OFFCURVE",
"37 690 OFFCURVE",
"37 678 CURVE SMOOTH",
"37 672 OFFCURVE",
"39 669 OFFCURVE",
"40 667 CURVE SMOOTH",
"291 250 LINE",
"291 27 LINE SMOOTH",
"291 12 OFFCURVE",
"303 0 OFFCURVE",
"318 0 CURVE SMOOTH",
"531 0 LINE SMOOTH",
"546 0 OFFCURVE",
"558 12 OFFCURVE",
"558 27 CURVE SMOOTH",
"558 250 LINE",
"810 667 LINE SMOOTH",
"811 669 OFFCURVE",
"813 672 OFFCURVE",
"813 679 CURVE SMOOTH",
"813 690 OFFCURVE",
"803 700 OFFCURVE",
"791 700 CURVE SMOOTH"
);
}
);
width = 850;
}
);
unicode = 0178;
},
{
color = 4;
glyphname = Ygrave;
lastChange = "2016-09-08 17:15:01 +0000";
layers = (
{
layerId = UUID0;
paths = (
{
closed = 1;
nodes = (
"582 700 LINE SMOOTH",
"560 700 OFFCURVE",
"548 688 OFFCURVE",
"540 675 CURVE SMOOTH",
"424 479 LINE",
"311 677 LINE SMOOTH",
"304 689 OFFCURVE",
"291 700 OFFCURVE",
"270 700 CURVE SMOOTH",
"59 700 LINE SMOOTH",
"47 700 OFFCURVE",
"37 690 OFFCURVE",
"37 678 CURVE SMOOTH",
"37 672 OFFCURVE",
"39 669 OFFCURVE",
"40 667 CURVE SMOOTH",
"291 250 LINE",
"291 27 LINE SMOOTH",
"291 12 OFFCURVE",
"303 0 OFFCURVE",
"318 0 CURVE SMOOTH",
"531 0 LINE SMOOTH",
"546 0 OFFCURVE",
"558 12 OFFCURVE",
"558 27 CURVE SMOOTH",
"558 250 LINE",
"810 667 LINE SMOOTH",
"811 669 OFFCURVE",
"813 672 OFFCURVE",
"813 679 CURVE SMOOTH",
"813 690 OFFCURVE",
"803 700 OFFCURVE",
"791 700 CURVE SMOOTH"
);
},
{
closed = 1;
nodes = (
"449 831 LINE SMOOTH",
"435 848 OFFCURVE",
"427 849 OFFCURVE",
"412 850 CURVE",
"254 850 LINE SMOOTH",
"242 850 OFFCURVE",
"235 842 OFFCURVE",
"235 830 CURVE SMOOTH",
"235 825 OFFCURVE",
"237 821 OFFCURVE",
"240 818 CURVE SMOOTH",
"335 738 LINE SMOOTH",
"343 732 OFFCURVE",
"353 731 OFFCURVE",
"363 731 CURVE SMOOTH",
"367 731 OFFCURVE",
"371 731 OFFCURVE",
"375 731 CURVE SMOOTH",
"496 731 LINE SMOOTH",
"506 731 OFFCURVE",
"512 737 OFFCURVE",
"512 747 CURVE SMOOTH",
"512 752 OFFCURVE",
"510 757 OFFCURVE",
"507 760 CURVE SMOOTH"
);
}
);
width = 850;
}
);
unicode = 1EF2;
},
{
color = 4;
glyphname = Z;
lastChange = "2016-09-08 17:15:01 +0000";
layers = (
{
layerId = UUID0;
paths = (
{
closed = 1;
nodes = (
"428 205 LINE",
"740 497 LINE SMOOTH",
"749 505 OFFCURVE",
"753 516 OFFCURVE",
"753 530 CURVE SMOOTH",
"753 673 LINE SMOOTH",
"753 688 OFFCURVE",
"741 700 OFFCURVE",
"726 700 CURVE SMOOTH",
"126 700 LINE SMOOTH",
"111 700 OFFCURVE",
"99 688 OFFCURVE",
"99 673 CURVE SMOOTH",
"99 522 LINE SMOOTH",
"99 507 OFFCURVE",
"111 495 OFFCURVE",
"126 495 CURVE SMOOTH",
"409 495 LINE",
"93 206 LINE SMOOTH",
"88 202 OFFCURVE",
"78 190 OFFCURVE",
"78 171 CURVE SMOOTH",
"78 27 LINE SMOOTH",
"78 12 OFFCURVE",
"90 0 OFFCURVE",
"105 0 CURVE SMOOTH",
"747 0 LINE SMOOTH",
"762 0 OFFCURVE",
"774 12 OFFCURVE",
"774 27 CURVE SMOOTH",
"774 178 LINE SMOOTH",
"774 193 OFFCURVE",
"762 205 OFFCURVE",
"747 205 CURVE SMOOTH"
);
}
);
width = 850;
}
);
unicode = 005A;
},
{
color = 4;
glyphname = Zacute;
lastChange = "2016-09-08 17:15:01 +0000";
layers = (
{
layerId = UUID0;
paths = (
{
closed = 1;
nodes = (
"428 205 LINE",
"740 497 LINE SMOOTH",
"749 505 OFFCURVE",
"753 516 OFFCURVE",
"753 530 CURVE SMOOTH",
"753 673 LINE SMOOTH",
"753 688 OFFCURVE",
"741 700 OFFCURVE",
"726 700 CURVE SMOOTH",
"126 700 LINE SMOOTH",
"111 700 OFFCURVE",
"99 688 OFFCURVE",
"99 673 CURVE SMOOTH",
"99 522 LINE SMOOTH",
"99 507 OFFCURVE",
"111 495 OFFCURVE",
"126 495 CURVE SMOOTH",
"409 495 LINE",
"93 206 LINE SMOOTH",
"88 202 OFFCURVE",
"78 190 OFFCURVE",
"78 171 CURVE SMOOTH",
"78 27 LINE SMOOTH",
"78 12 OFFCURVE",
"90 0 OFFCURVE",
"105 0 CURVE SMOOTH",
"747 0 LINE SMOOTH",
"762 0 OFFCURVE",
"774 12 OFFCURVE",
"774 27 CURVE SMOOTH",
"774 178 LINE SMOOTH",
"774 193 OFFCURVE",
"762 205 OFFCURVE",
"747 205 CURVE SMOOTH"
);
},
{
closed = 1;
nodes = (
"322 760 LINE SMOOTH",
"319 757 OFFCURVE",
"317 752 OFFCURVE",
"317 747 CURVE SMOOTH",
"317 737 OFFCURVE",
"323 731 OFFCURVE",
"333 731 CURVE SMOOTH",
"454 731 LINE SMOOTH",
"458 731 OFFCURVE",
"462 731 OFFCURVE",
"466 731 CURVE SMOOTH",
"476 731 OFFCURVE",
"486 732 OFFCURVE",
"494 738 CURVE SMOOTH",
"589 818 LINE SMOOTH",
"592 821 OFFCURVE",
"594 825 OFFCURVE",
"594 830 CURVE SMOOTH",
"594 842 OFFCURVE",
"587 850 OFFCURVE",
"575 850 CURVE SMOOTH",
"417 850 LINE",
"402 849 OFFCURVE",
"394 848 OFFCURVE",
"380 831 CURVE SMOOTH"
);
}
);
width = 850;
}
);
unicode = 0179;
},
{
color = 4;
glyphname = Zcaron;
lastChange = "2016-09-08 17:15:01 +0000";
layers = (
{
layerId = UUID0;
paths = (
{
closed = 1;
nodes = (
"428 205 LINE",
"740 497 LINE SMOOTH",
"749 505 OFFCURVE",
"753 516 OFFCURVE",
"753 530 CURVE SMOOTH",
"753 673 LINE SMOOTH",
"753 688 OFFCURVE",
"741 700 OFFCURVE",
"726 700 CURVE SMOOTH",
"126 700 LINE SMOOTH",
"111 700 OFFCURVE",
"99 688 OFFCURVE",
"99 673 CURVE SMOOTH",
"99 522 LINE SMOOTH",
"99 507 OFFCURVE",
"111 495 OFFCURVE",
"126 495 CURVE SMOOTH",
"409 495 LINE",
"93 206 LINE SMOOTH",
"88 202 OFFCURVE",
"78 190 OFFCURVE",
"78 171 CURVE SMOOTH",
"78 27 LINE SMOOTH",
"78 12 OFFCURVE",
"90 0 OFFCURVE",
"105 0 CURVE SMOOTH",
"747 0 LINE SMOOTH",
"762 0 OFFCURVE",
"774 12 OFFCURVE",
"774 27 CURVE SMOOTH",
"774 178 LINE SMOOTH",
"774 193 OFFCURVE",
"762 205 OFFCURVE",
"747 205 CURVE SMOOTH"
);
},
{
closed = 1;
nodes = (
"430 821 LINE",
"373 843 LINE",
"357 848 OFFCURVE",
"346 850 OFFCURVE",
"333 850 CURVE SMOOTH",
"252 850 LINE SMOOTH",
"243 850 OFFCURVE",
"236 843 OFFCURVE",
"236 834 CURVE SMOOTH",
"236 826 OFFCURVE",
"241 822 OFFCURVE",
"244 820 CURVE SMOOTH",
"327 750 LINE",
"348 735 OFFCURVE",
"359 731 OFFCURVE",
"374 731 CURVE SMOOTH",
"486 731 LINE SMOOTH",
"501 731 OFFCURVE",
"512 735 OFFCURVE",
"533 750 CURVE",
"616 820 LINE SMOOTH",
"619 822 OFFCURVE",
"624 826 OFFCURVE",
"624 834 CURVE SMOOTH",
"624 843 OFFCURVE",
"617 850 OFFCURVE",
"608 850 CURVE SMOOTH",
"527 850 LINE SMOOTH",
"514 850 OFFCURVE",
"503 848 OFFCURVE",
"487 843 CURVE"
);
}
);
width = 850;
}
);
unicode = 017D;
},
{
color = 4;
glyphname = Zdotaccent;
lastChange = "2016-09-08 17:15:01 +0000";
layers = (
{
layerId = UUID0;
paths = (
{
closed = 1;
nodes = (
"428 205 LINE",
"740 497 LINE SMOOTH",
"749 505 OFFCURVE",
"753 516 OFFCURVE",
"753 530 CURVE SMOOTH",
"753 673 LINE SMOOTH",
"753 688 OFFCURVE",
"741 700 OFFCURVE",
"726 700 CURVE SMOOTH",
"126 700 LINE SMOOTH",
"111 700 OFFCURVE",
"99 688 OFFCURVE",
"99 673 CURVE SMOOTH",
"99 522 LINE SMOOTH",
"99 507 OFFCURVE",
"111 495 OFFCURVE",
"126 495 CURVE SMOOTH",
"409 495 LINE",
"93 206 LINE SMOOTH",
"88 202 OFFCURVE",
"78 190 OFFCURVE",
"78 171 CURVE SMOOTH",
"78 27 LINE SMOOTH",
"78 12 OFFCURVE",
"90 0 OFFCURVE",
"105 0 CURVE SMOOTH",
"747 0 LINE SMOOTH",
"762 0 OFFCURVE",
"774 12 OFFCURVE",
"774 27 CURVE SMOOTH",
"774 178 LINE SMOOTH",
"774 193 OFFCURVE",
"762 205 OFFCURVE",
"747 205 CURVE SMOOTH"
);
},
{
closed = 1;
nodes = (
"357 850 LINE SMOOTH",
"344 850 OFFCURVE",
"334 840 OFFCURVE",
"334 827 CURVE SMOOTH",
"334 754 LINE SMOOTH",
"334 741 OFFCURVE",
"344 731 OFFCURVE",
"357 731 CURVE SMOOTH",
"493 731 LINE SMOOTH",
"506 731 OFFCURVE",
"516 741 OFFCURVE",
"516 754 CURVE SMOOTH",
"516 827 LINE SMOOTH",
"516 840 OFFCURVE",
"506 850 OFFCURVE",
"493 850 CURVE SMOOTH"
);
}
);
width = 850;
}
);
unicode = 017B;
},
{
color = 4;
glyphname = a;
lastChange = "2016-09-08 17:15:01 +0000";
layers = (
{
layerId = UUID0;
paths = (
{
closed = 1;
nodes = (
"550 104 LINE",
"575 34 LINE SMOOTH",
"581 18 OFFCURVE",
"593 0 OFFCURVE",
"620 0 CURVE SMOOTH",
"809 0 LINE SMOOTH",
"821 0 OFFCURVE",
"831 10 OFFCURVE",
"831 22 CURVE SMOOTH",
"831 23 OFFCURVE",
"831 25 OFFCURVE",
"830 28 CURVE SMOOTH",
"612 667 LINE",
"608 682 OFFCURVE",
"594 700 OFFCURVE",
"567 700 CURVE SMOOTH",
"289 700 LINE SMOOTH",
"262 700 OFFCURVE",
"248 682 OFFCURVE",
"244 667 CURVE",
"26 28 LINE SMOOTH",
"25 25 OFFCURVE",
"25 23 OFFCURVE",
"25 22 CURVE SMOOTH",
"25 10 OFFCURVE",
"35 0 OFFCURVE",
"47 0 CURVE SMOOTH",
"236 0 LINE SMOOTH",
"263 0 OFFCURVE",
"275 18 OFFCURVE",
"281 34 CURVE SMOOTH",
"306 104 LINE"
);
},
{
closed = 1;
nodes = (
"499 299 LINE",
"357 299 LINE",
"428 507 LINE"
);
}
);
width = 850;
}
);
unicode = 0061;
},
{
color = 4;
glyphname = aacute;
lastChange = "2016-09-08 17:15:01 +0000";
layers = (
{
layerId = UUID0;
paths = (
{
closed = 1;
nodes = (
"306 104 LINE",
"281 34 LINE SMOOTH",
"275 18 OFFCURVE",
"263 0 OFFCURVE",
"236 0 CURVE SMOOTH",
"47 0 LINE SMOOTH",
"35 0 OFFCURVE",
"25 10 OFFCURVE",
"25 22 CURVE SMOOTH",
"25 23 OFFCURVE",
"25 25 OFFCURVE",
"26 28 CURVE SMOOTH",
"244 667 LINE",
"248 682 OFFCURVE",
"262 700 OFFCURVE",
"289 700 CURVE SMOOTH",
"567 700 LINE SMOOTH",
"594 700 OFFCURVE",
"608 682 OFFCURVE",
"612 667 CURVE",
"830 28 LINE SMOOTH",
"831 25 OFFCURVE",
"831 23 OFFCURVE",
"831 22 CURVE SMOOTH",
"831 10 OFFCURVE",
"821 0 OFFCURVE",
"809 0 CURVE SMOOTH",
"620 0 LINE SMOOTH",
"593 0 OFFCURVE",
"581 18 OFFCURVE",
"575 34 CURVE SMOOTH",
"550 104 LINE"
);
},
{
closed = 1;
nodes = (
"428 507 LINE",
"357 299 LINE",
"499 299 LINE"
);
},
{
closed = 1;
nodes = (
"349 760 LINE SMOOTH",
"346 757 OFFCURVE",
"344 752 OFFCURVE",
"344 747 CURVE SMOOTH",
"344 737 OFFCURVE",
"350 731 OFFCURVE",
"360 731 CURVE SMOOTH",
"481 731 LINE SMOOTH",
"485 731 OFFCURVE",
"489 731 OFFCURVE",
"493 731 CURVE SMOOTH",
"503 731 OFFCURVE",
"513 732 OFFCURVE",
"521 738 CURVE SMOOTH",
"616 818 LINE SMOOTH",
"619 821 OFFCURVE",
"621 825 OFFCURVE",
"621 830 CURVE SMOOTH",
"621 842 OFFCURVE",
"614 850 OFFCURVE",
"602 850 CURVE SMOOTH",
"444 850 LINE",
"429 849 OFFCURVE",
"421 848 OFFCURVE",
"407 831 CURVE SMOOTH"
);
}
);
width = 850;
}
);
unicode = 00E1;
},
{
color = 4;
glyphname = abreve;
lastChange = "2016-09-08 17:15:01 +0000";
layers = (
{
layerId = UUID0;
paths = (
{
closed = 1;
nodes = (
"550 104 LINE",
"575 34 LINE SMOOTH",
"581 18 OFFCURVE",
"593 0 OFFCURVE",
"620 0 CURVE SMOOTH",
"809 0 LINE SMOOTH",
"821 0 OFFCURVE",
"831 10 OFFCURVE",
"831 22 CURVE SMOOTH",
"831 23 OFFCURVE",
"831 25 OFFCURVE",
"830 28 CURVE SMOOTH",
"612 667 LINE",
"608 682 OFFCURVE",
"594 700 OFFCURVE",
"567 700 CURVE SMOOTH",
"289 700 LINE SMOOTH",
"262 700 OFFCURVE",
"248 682 OFFCURVE",
"244 667 CURVE",
"26 28 LINE SMOOTH",
"25 25 OFFCURVE",
"25 23 OFFCURVE",
"25 22 CURVE SMOOTH",
"25 10 OFFCURVE",
"35 0 OFFCURVE",
"47 0 CURVE SMOOTH",
"236 0 LINE SMOOTH",
"263 0 OFFCURVE",
"275 18 OFFCURVE",
"281 34 CURVE SMOOTH",
"306 104 LINE"
);
},
{
closed = 1;
nodes = (
"499 299 LINE",
"357 299 LINE",
"428 507 LINE"
);
},
{
closed = 1;
nodes = (
"465 833 OFFCURVE",
"458 817 OFFCURVE",
"428 817 CURVE SMOOTH",
"398 817 OFFCURVE",
"390 834 OFFCURVE",
"388 842 CURVE SMOOTH",
"386 849 OFFCURVE",
"381 855 OFFCURVE",
"369 855 CURVE SMOOTH",
"270 855 LINE SMOOTH",
"258 855 OFFCURVE",
"251 849 OFFCURVE",
"251 842 CURVE SMOOTH",
"251 784 OFFCURVE",
"308 730 OFFCURVE",
"428 730 CURVE SMOOTH",
"549 730 OFFCURVE",
"606 784 OFFCURVE",
"606 842 CURVE SMOOTH",
"606 849 OFFCURVE",
"599 855 OFFCURVE",
"587 855 CURVE SMOOTH",
"488 855 LINE SMOOTH",
"476 855 OFFCURVE",
"472 848 OFFCURVE",
"469 842 CURVE SMOOTH"
);
}
);
width = 850;
}
);
unicode = 0103;
},
{
color = 4;
glyphname = acircumflex;
lastChange = "2016-09-08 17:15:01 +0000";
layers = (
{
layerId = UUID0;
paths = (
{
closed = 1;
nodes = (
"306 104 LINE",
"281 34 LINE SMOOTH",
"275 18 OFFCURVE",
"263 0 OFFCURVE",
"236 0 CURVE SMOOTH",
"47 0 LINE SMOOTH",
"35 0 OFFCURVE",
"25 10 OFFCURVE",
"25 22 CURVE SMOOTH",
"25 23 OFFCURVE",
"25 25 OFFCURVE",
"26 28 CURVE SMOOTH",
"244 667 LINE",
"248 682 OFFCURVE",
"262 700 OFFCURVE",
"289 700 CURVE SMOOTH",
"567 700 LINE SMOOTH",
"594 700 OFFCURVE",
"608 682 OFFCURVE",
"612 667 CURVE",
"830 28 LINE SMOOTH",
"831 25 OFFCURVE",
"831 23 OFFCURVE",
"831 22 CURVE SMOOTH",
"831 10 OFFCURVE",
"821 0 OFFCURVE",
"809 0 CURVE SMOOTH",
"620 0 LINE SMOOTH",
"593 0 OFFCURVE",
"581 18 OFFCURVE",
"575 34 CURVE SMOOTH",
"550 104 LINE"
);
},
{
closed = 1;
nodes = (
"428 507 LINE",
"357 299 LINE",
"499 299 LINE"
);
},
{
closed = 1;
nodes = (
"427 760 LINE",
"484 738 LINE",
"500 733 OFFCURVE",
"511 731 OFFCURVE",
"524 731 CURVE SMOOTH",
"605 731 LINE SMOOTH",
"614 731 OFFCURVE",
"621 738 OFFCURVE",
"621 747 CURVE SMOOTH",
"621 755 OFFCURVE",
"616 759 OFFCURVE",
"613 761 CURVE SMOOTH",
"530 831 LINE",
"509 846 OFFCURVE",
"498 850 OFFCURVE",
"483 850 CURVE SMOOTH",
"371 850 LINE SMOOTH",
"356 850 OFFCURVE",
"345 846 OFFCURVE",
"324 831 CURVE",
"241 761 LINE SMOOTH",
"238 759 OFFCURVE",
"233 755 OFFCURVE",
"233 747 CURVE SMOOTH",
"233 738 OFFCURVE",
"240 731 OFFCURVE",
"249 731 CURVE SMOOTH",
"330 731 LINE SMOOTH",
"343 731 OFFCURVE",
"354 733 OFFCURVE",
"370 738 CURVE"
);
}
);
width = 850;
}
);
unicode = 00E2;
},
{
color = 4;
glyphname = adieresis;
lastChange = "2016-09-08 17:15:01 +0000";
layers = (
{
layerId = UUID0;
paths = (
{
closed = 1;
nodes = (
"306 104 LINE",
"281 34 LINE SMOOTH",
"275 18 OFFCURVE",
"263 0 OFFCURVE",
"236 0 CURVE SMOOTH",
"47 0 LINE SMOOTH",
"35 0 OFFCURVE",
"25 10 OFFCURVE",
"25 22 CURVE SMOOTH",
"25 23 OFFCURVE",
"25 25 OFFCURVE",
"26 28 CURVE SMOOTH",
"244 667 LINE",
"248 682 OFFCURVE",
"262 700 OFFCURVE",
"289 700 CURVE SMOOTH",
"567 700 LINE SMOOTH",
"594 700 OFFCURVE",
"608 682 OFFCURVE",
"612 667 CURVE",
"830 28 LINE SMOOTH",
"831 25 OFFCURVE",
"831 23 OFFCURVE",
"831 22 CURVE SMOOTH",
"831 10 OFFCURVE",
"821 0 OFFCURVE",
"809 0 CURVE SMOOTH",
"620 0 LINE SMOOTH",
"593 0 OFFCURVE",
"581 18 OFFCURVE",
"575 34 CURVE SMOOTH",
"550 104 LINE"
);
},
{
closed = 1;
nodes = (
"428 507 LINE",
"357 299 LINE",
"499 299 LINE"
);
},
{
closed = 1;
nodes = (
"496 850 LINE SMOOTH",
"483 850 OFFCURVE",
"473 840 OFFCURVE",
"473 827 CURVE SMOOTH",
"473 754 LINE SMOOTH",
"473 741 OFFCURVE",
"483 731 OFFCURVE",
"496 731 CURVE SMOOTH",
"612 731 LINE SMOOTH",
"625 731 OFFCURVE",
"635 741 OFFCURVE",
"635 754 CURVE SMOOTH",
"635 827 LINE SMOOTH",
"635 840 OFFCURVE",
"625 850 OFFCURVE",
"612 850 CURVE SMOOTH"
);
},
{
closed = 1;
nodes = (
"245 850 LINE SMOOTH",
"232 850 OFFCURVE",
"222 840 OFFCURVE",
"222 827 CURVE SMOOTH",
"222 754 LINE SMOOTH",
"222 741 OFFCURVE",
"232 731 OFFCURVE",
"245 731 CURVE SMOOTH",
"361 731 LINE SMOOTH",
"374 731 OFFCURVE",
"384 741 OFFCURVE",
"384 754 CURVE SMOOTH",
"384 827 LINE SMOOTH",
"384 840 OFFCURVE",
"374 850 OFFCURVE",
"361 850 CURVE SMOOTH"
);
}
);
width = 850;
}
);
unicode = 00E4;
},
{
color = 4;
glyphname = agrave;
lastChange = "2016-09-08 17:15:01 +0000";
layers = (
{
layerId = UUID0;
paths = (
{
closed = 1;
nodes = (
"550 104 LINE",
"575 34 LINE SMOOTH",
"581 18 OFFCURVE",
"593 0 OFFCURVE",
"620 0 CURVE SMOOTH",
"809 0 LINE SMOOTH",
"821 0 OFFCURVE",
"831 10 OFFCURVE",
"831 22 CURVE SMOOTH",
"831 23 OFFCURVE",
"831 25 OFFCURVE",
"830 28 CURVE SMOOTH",
"612 667 LINE",
"608 682 OFFCURVE",
"594 700 OFFCURVE",
"567 700 CURVE SMOOTH",
"289 700 LINE SMOOTH",
"262 700 OFFCURVE",
"248 682 OFFCURVE",
"244 667 CURVE",
"26 28 LINE SMOOTH",
"25 25 OFFCURVE",
"25 23 OFFCURVE",
"25 22 CURVE SMOOTH",
"25 10 OFFCURVE",
"35 0 OFFCURVE",
"47 0 CURVE SMOOTH",
"236 0 LINE SMOOTH",
"263 0 OFFCURVE",
"275 18 OFFCURVE",
"281 34 CURVE SMOOTH",
"306 104 LINE"
);
},
{
closed = 1;
nodes = (
"499 299 LINE",
"357 299 LINE",
"428 507 LINE"
);
},
{
closed = 1;
nodes = (
"445 831 LINE SMOOTH",
"431 848 OFFCURVE",
"423 849 OFFCURVE",
"408 850 CURVE",
"250 850 LINE SMOOTH",
"238 850 OFFCURVE",
"231 842 OFFCURVE",
"231 830 CURVE SMOOTH",
"231 825 OFFCURVE",
"233 821 OFFCURVE",
"236 818 CURVE SMOOTH",
"331 738 LINE SMOOTH",
"339 732 OFFCURVE",
"349 731 OFFCURVE",
"359 731 CURVE SMOOTH",
"363 731 OFFCURVE",
"367 731 OFFCURVE",
"371 731 CURVE SMOOTH",
"492 731 LINE SMOOTH",
"502 731 OFFCURVE",
"508 737 OFFCURVE",
"508 747 CURVE SMOOTH",
"508 752 OFFCURVE",
"506 757 OFFCURVE",
"503 760 CURVE SMOOTH"
);
}
);
width = 850;
}
);
unicode = 00E0;
},
{
color = 4;
glyphname = amacron;
lastChange = "2016-09-08 17:15:01 +0000";
layers = (
{
layerId = UUID0;
paths = (
{
closed = 1;
nodes = (
"306 104 LINE",
"281 34 LINE SMOOTH",
"275 18 OFFCURVE",
"263 0 OFFCURVE",
"236 0 CURVE SMOOTH",
"47 0 LINE SMOOTH",
"35 0 OFFCURVE",
"25 10 OFFCURVE",
"25 22 CURVE SMOOTH",
"25 23 OFFCURVE",
"25 25 OFFCURVE",
"26 28 CURVE SMOOTH",
"244 667 LINE",
"248 682 OFFCURVE",
"262 700 OFFCURVE",
"289 700 CURVE SMOOTH",
"567 700 LINE SMOOTH",
"594 700 OFFCURVE",
"608 682 OFFCURVE",
"612 667 CURVE",
"830 28 LINE SMOOTH",
"831 25 OFFCURVE",
"831 23 OFFCURVE",
"831 22 CURVE SMOOTH",
"831 10 OFFCURVE",
"821 0 OFFCURVE",
"809 0 CURVE SMOOTH",
"620 0 LINE SMOOTH",
"593 0 OFFCURVE",
"581 18 OFFCURVE",
"575 34 CURVE SMOOTH",
"550 104 LINE"
);
},
{
closed = 1;
nodes = (
"428 507 LINE",
"357 299 LINE",
"499 299 LINE"
);
},
{
closed = 1;
nodes = (
"242 850 LINE SMOOTH",
"229 850 OFFCURVE",
"219 840 OFFCURVE",
"219 827 CURVE SMOOTH",
"219 754 LINE SMOOTH",
"219 741 OFFCURVE",
"229 731 OFFCURVE",
"242 731 CURVE SMOOTH",
"609 731 LINE SMOOTH",
"622 731 OFFCURVE",
"632 741 OFFCURVE",
"632 754 CURVE SMOOTH",
"632 827 LINE SMOOTH",
"632 840 OFFCURVE",
"622 850 OFFCURVE",
"609 850 CURVE SMOOTH"
);
}
);
width = 850;
}
);
unicode = 0101;
},
{
color = 4;
glyphname = aogonek;
lastChange = "2016-09-08 17:15:01 +0000";
layers = (
{
layerId = UUID0;
paths = (
{
closed = 1;
nodes = (
"550 104 LINE",
"575 34 LINE SMOOTH",
"581 18 OFFCURVE",
"593 0 OFFCURVE",
"620 0 CURVE SMOOTH",
"645 0 LINE",
"643 -8 OFFCURVE",
"643 -17 OFFCURVE",
"643 -26 CURVE SMOOTH",
"643 -98 OFFCURVE",
"684 -142 OFFCURVE",
"795 -142 CURVE SMOOTH",
"809 -142 LINE SMOOTH",
"824 -142 OFFCURVE",
"836 -133 OFFCURVE",
"836 -118 CURVE SMOOTH",
"836 -77 LINE SMOOTH",
"836 -61 OFFCURVE",
"824 -52 OFFCURVE",
"809 -52 CURVE SMOOTH",
"802 -52 LINE SMOOTH",
"768 -52 OFFCURVE",
"759 -41 OFFCURVE",
"759 -26 CURVE SMOOTH",
"759 -12 OFFCURVE",
"767 -1 OFFCURVE",
"795 0 CURVE SMOOTH",
"809 0 LINE SMOOTH",
"821 0 OFFCURVE",
"831 10 OFFCURVE",
"831 22 CURVE SMOOTH",
"831 23 OFFCURVE",
"831 25 OFFCURVE",
"830 28 CURVE SMOOTH",
"612 667 LINE",
"608 682 OFFCURVE",
"594 700 OFFCURVE",
"567 700 CURVE SMOOTH",
"289 700 LINE SMOOTH",
"262 700 OFFCURVE",
"248 682 OFFCURVE",
"244 667 CURVE",
"26 28 LINE SMOOTH",
"25 25 OFFCURVE",
"25 23 OFFCURVE",
"25 22 CURVE SMOOTH",
"25 10 OFFCURVE",
"35 0 OFFCURVE",
"47 0 CURVE SMOOTH",
"236 0 LINE SMOOTH",
"263 0 OFFCURVE",
"275 18 OFFCURVE",
"281 34 CURVE SMOOTH",
"306 104 LINE"
);
},
{
closed = 1;
nodes = (
"499 299 LINE",
"357 299 LINE",
"428 507 LINE"
);
}
);
width = 850;
}
);
unicode = 0105;
},
{
color = 4;
glyphname = aring;
lastChange = "2016-09-08 17:15:01 +0000";
layers = (
{
layerId = UUID0;
paths = (
{
closed = 1;
nodes = (
"306 104 LINE",
"281 34 LINE SMOOTH",
"275 18 OFFCURVE",
"263 0 OFFCURVE",
"236 0 CURVE SMOOTH",
"47 0 LINE SMOOTH",
"35 0 OFFCURVE",
"25 10 OFFCURVE",
"25 22 CURVE SMOOTH",
"25 23 OFFCURVE",
"25 25 OFFCURVE",
"26 28 CURVE SMOOTH",
"244 667 LINE",
"248 682 OFFCURVE",
"262 700 OFFCURVE",
"289 700 CURVE SMOOTH",
"567 700 LINE SMOOTH",
"594 700 OFFCURVE",
"608 682 OFFCURVE",
"612 667 CURVE",
"830 28 LINE SMOOTH",
"831 25 OFFCURVE",
"831 23 OFFCURVE",
"831 22 CURVE SMOOTH",
"831 10 OFFCURVE",
"821 0 OFFCURVE",
"809 0 CURVE SMOOTH",
"620 0 LINE SMOOTH",
"593 0 OFFCURVE",
"581 18 OFFCURVE",
"575 34 CURVE SMOOTH",
"550 104 LINE"
);
},
{
closed = 1;
nodes = (
"428 507 LINE",
"357 299 LINE",
"499 299 LINE"
);
},
{
closed = 1;
nodes = (
"393 800 OFFCURVE",
"407 807 OFFCURVE",
"424 807 CURVE SMOOTH",
"441 807 OFFCURVE",
"454 800 OFFCURVE",
"454 787 CURVE SMOOTH",
"454 774 OFFCURVE",
"441 767 OFFCURVE",
"424 767 CURVE SMOOTH",
"407 767 OFFCURVE",
"393 774 OFFCURVE",
"393 787 CURVE SMOOTH"
);
},
{
closed = 1;
nodes = (
"323 744 OFFCURVE",
"368 719 OFFCURVE",
"424 719 CURVE SMOOTH",
"480 719 OFFCURVE",
"525 744 OFFCURVE",
"525 787 CURVE SMOOTH",
"525 830 OFFCURVE",
"480 855 OFFCURVE",
"424 855 CURVE SMOOTH",
"368 855 OFFCURVE",
"323 830 OFFCURVE",
"323 787 CURVE SMOOTH"
);
}
);
width = 850;
}
);
unicode = 00E5;
},
{
color = 4;
glyphname = atilde;
lastChange = "2016-09-08 17:15:01 +0000";
layers = (
{
layerId = UUID0;
paths = (
{
closed = 1;
nodes = (
"306 104 LINE",
"281 34 LINE SMOOTH",
"275 18 OFFCURVE",
"263 0 OFFCURVE",
"236 0 CURVE SMOOTH",
"47 0 LINE SMOOTH",
"35 0 OFFCURVE",
"25 10 OFFCURVE",
"25 22 CURVE SMOOTH",
"25 23 OFFCURVE",
"25 25 OFFCURVE",
"26 28 CURVE SMOOTH",
"244 667 LINE",
"248 682 OFFCURVE",
"262 700 OFFCURVE",
"289 700 CURVE SMOOTH",
"567 700 LINE SMOOTH",
"594 700 OFFCURVE",
"608 682 OFFCURVE",
"612 667 CURVE",
"830 28 LINE SMOOTH",
"831 25 OFFCURVE",
"831 23 OFFCURVE",
"831 22 CURVE SMOOTH",
"831 10 OFFCURVE",
"821 0 OFFCURVE",
"809 0 CURVE SMOOTH",
"620 0 LINE SMOOTH",
"593 0 OFFCURVE",
"581 18 OFFCURVE",
"575 34 CURVE SMOOTH",
"550 104 LINE"
);
},
{
closed = 1;
nodes = (
"428 507 LINE",
"357 299 LINE",
"499 299 LINE"
);
},
{
closed = 1;
nodes = (
"596 730 OFFCURVE",
"623 806 OFFCURVE",
"623 831 CURVE SMOOTH",
"623 841 OFFCURVE",
"616 850 OFFCURVE",
"604 850 CURVE SMOOTH",
"520 850 LINE SMOOTH",
"497 850 OFFCURVE",
"499 831 OFFCURVE",
"470 831 CURVE SMOOTH",
"437 831 OFFCURVE",
"414 855 OFFCURVE",
"362 855 CURVE SMOOTH",
"252 855 OFFCURVE",
"226 778 OFFCURVE",
"226 753 CURVE SMOOTH",
"226 743 OFFCURVE",
"235 735 OFFCURVE",
"245 735 CURVE SMOOTH",
"329 735 LINE SMOOTH",
"352 735 OFFCURVE",
"349 754 OFFCURVE",
"379 754 CURVE SMOOTH",
"412 754 OFFCURVE",
"435 730 OFFCURVE",
"487 730 CURVE SMOOTH"
);
}
);
width = 850;
}
);
unicode = 00E3;
},
{
color = 4;
glyphname = ae;
lastChange = "2016-09-08 17:15:01 +0000";
layers = (
{
layerId = UUID0;
paths = (
{
closed = 1;
nodes = (
"280 104 LINE",
"422 104 LINE",
"422 27 LINE SMOOTH",
"422 12 OFFCURVE",
"434 0 OFFCURVE",
"449 0 CURVE SMOOTH",
"814 0 LINE SMOOTH",
"829 0 OFFCURVE",
"841 12 OFFCURVE",
"841 27 CURVE SMOOTH",
"841 168 LINE SMOOTH",
"841 183 OFFCURVE",
"829 195 OFFCURVE",
"814 195 CURVE SMOOTH",
"672 195 LINE",
"672 258 LINE",
"780 258 LINE SMOOTH",
"795 258 OFFCURVE",
"807 270 OFFCURVE",
"807 285 CURVE SMOOTH",
"807 415 LINE SMOOTH",
"807 430 OFFCURVE",
"795 442 OFFCURVE",
"780 442 CURVE SMOOTH",
"672 442 LINE",
"672 505 LINE",
"804 505 LINE SMOOTH",
"819 505 OFFCURVE",
"831 517 OFFCURVE",
"831 532 CURVE SMOOTH",
"831 673 LINE SMOOTH",
"831 688 OFFCURVE",
"819 700 OFFCURVE",
"804 700 CURVE SMOOTH",
"283 700 LINE SMOOTH",
"256 700 OFFCURVE",
"243 682 OFFCURVE",
"238 667 CURVE SMOOTH",
"10 28 LINE SMOOTH",
"9 25 OFFCURVE",
"9 23 OFFCURVE",
"9 22 CURVE SMOOTH",
"9 10 OFFCURVE",
"19 0 OFFCURVE",
"31 0 CURVE SMOOTH",
"210 0 LINE SMOOTH",
"237 0 OFFCURVE",
"249 18 OFFCURVE",
"255 34 CURVE SMOOTH"
);
},
{
closed = 1;
nodes = (
"422 299 LINE",
"331 299 LINE",
"402 507 LINE",
"422 507 LINE"
);
}
);
width = 850;
}
);
unicode = 00E6;
},
{
color = 4;
glyphname = aeacute;
lastChange = "2016-09-08 17:15:01 +0000";
layers = (
{
layerId = UUID0;
paths = (
{
closed = 1;
nodes = (
"280 104 LINE",
"422 104 LINE",
"422 27 LINE SMOOTH",
"422 12 OFFCURVE",
"434 0 OFFCURVE",
"449 0 CURVE SMOOTH",
"814 0 LINE SMOOTH",
"829 0 OFFCURVE",
"841 12 OFFCURVE",
"841 27 CURVE SMOOTH",
"841 168 LINE SMOOTH",
"841 183 OFFCURVE",
"829 195 OFFCURVE",
"814 195 CURVE SMOOTH",
"672 195 LINE",
"672 258 LINE",
"780 258 LINE SMOOTH",
"795 258 OFFCURVE",
"807 270 OFFCURVE",
"807 285 CURVE SMOOTH",
"807 415 LINE SMOOTH",
"807 430 OFFCURVE",
"795 442 OFFCURVE",
"780 442 CURVE SMOOTH",
"672 442 LINE",
"672 505 LINE",
"804 505 LINE SMOOTH",
"819 505 OFFCURVE",
"831 517 OFFCURVE",
"831 532 CURVE SMOOTH",
"831 673 LINE SMOOTH",
"831 688 OFFCURVE",
"819 700 OFFCURVE",
"804 700 CURVE SMOOTH",
"283 700 LINE SMOOTH",
"256 700 OFFCURVE",
"243 682 OFFCURVE",
"238 667 CURVE SMOOTH",
"10 28 LINE SMOOTH",
"9 25 OFFCURVE",
"9 23 OFFCURVE",
"9 22 CURVE SMOOTH",
"9 10 OFFCURVE",
"19 0 OFFCURVE",
"31 0 CURVE SMOOTH",
"210 0 LINE SMOOTH",
"237 0 OFFCURVE",
"249 18 OFFCURVE",
"255 34 CURVE SMOOTH"
);
},
{
closed = 1;
nodes = (
"422 299 LINE",
"331 299 LINE",
"402 507 LINE",
"422 507 LINE"
);
},
{
closed = 1;
nodes = (
"401 760 LINE SMOOTH",
"398 757 OFFCURVE",
"396 752 OFFCURVE",
"396 747 CURVE SMOOTH",
"396 737 OFFCURVE",
"402 731 OFFCURVE",
"412 731 CURVE SMOOTH",
"533 731 LINE SMOOTH",
"537 731 OFFCURVE",
"541 731 OFFCURVE",
"545 731 CURVE SMOOTH",
"555 731 OFFCURVE",
"565 732 OFFCURVE",
"573 738 CURVE SMOOTH",
"668 818 LINE SMOOTH",
"671 821 OFFCURVE",
"673 825 OFFCURVE",
"673 830 CURVE SMOOTH",
"673 842 OFFCURVE",
"666 850 OFFCURVE",
"654 850 CURVE SMOOTH",
"496 850 LINE",
"481 849 OFFCURVE",
"473 848 OFFCURVE",
"459 831 CURVE SMOOTH"
);
}
);
width = 850;
}
);
unicode = 01FD;
},
{
color = 4;
glyphname = b;
lastChange = "2016-09-08 17:15:01 +0000";
layers = (
{
layerId = UUID0;
paths = (
{
closed = 1;
nodes = (
"740 375 OFFCURVE",
"791 419 OFFCURVE",
"791 490 CURVE SMOOTH",
"791 493 LINE SMOOTH",
"791 630 OFFCURVE",
"705 700 OFFCURVE",
"514 700 CURVE SMOOTH",
"112 700 LINE SMOOTH",
"97 700 OFFCURVE",
"85 688 OFFCURVE",
"85 673 CURVE SMOOTH",
"85 27 LINE SMOOTH",
"85 12 OFFCURVE",
"97 0 OFFCURVE",
"112 0 CURVE SMOOTH",
"524 0 LINE SMOOTH",
"705 0 OFFCURVE",
"806 70 OFFCURVE",
"806 220 CURVE",
"806 220 LINE",
"806 291 OFFCURVE",
"762 350 OFFCURVE",
"711 365 CURVE"
);
},
{
closed = 1;
nodes = (
"345 270 LINE",
"490 270 LINE SMOOTH",
"520 270 OFFCURVE",
"536 247 OFFCURVE",
"536 223 CURVE",
"536 222 LINE",
"536 201 OFFCURVE",
"523 172 OFFCURVE",
"490 172 CURVE SMOOTH",
"345 172 LINE"
);
},
{
closed = 1;
nodes = (
"520 463 OFFCURVE",
"508 437 OFFCURVE",
"479 437 CURVE SMOOTH",
"345 437 LINE",
"345 528 LINE",
"479 528 LINE SMOOTH",
"508 528 OFFCURVE",
"520 505 OFFCURVE",
"520 484 CURVE SMOOTH"
);
}
);
width = 850;
}
);
unicode = 0062;
},
{
color = 4;
glyphname = c;
lastChange = "2016-09-08 17:15:01 +0000";
layers = (
{
layerId = UUID0;
paths = (
{
closed = 1;
nodes = (
"333 430 LINE SMOOTH",
"333 485 OFFCURVE",
"374 515 OFFCURVE",
"435 515 CURVE SMOOTH",
"496 515 OFFCURVE",
"515 490 OFFCURVE",
"531 459 CURVE SMOOTH",
"539 443 OFFCURVE",
"549 433 OFFCURVE",
"566 433 CURVE SMOOTH",
"782 433 LINE SMOOTH",
"794 433 OFFCURVE",
"804 443 OFFCURVE",
"804 455 CURVE SMOOTH",
"804 569 OFFCURVE",
"689 710 OFFCURVE",
"435 710 CURVE SMOOTH",
"229 710 OFFCURVE",
"63 619 OFFCURVE",
"63 409 CURVE SMOOTH",
"63 291 LINE SMOOTH",
"63 81 OFFCURVE",
"229 -10 OFFCURVE",
"435 -10 CURVE SMOOTH",
"689 -10 OFFCURVE",
"804 131 OFFCURVE",
"804 245 CURVE SMOOTH",
"804 257 OFFCURVE",
"794 267 OFFCURVE",
"782 267 CURVE SMOOTH",
"566 267 LINE SMOOTH",
"549 267 OFFCURVE",
"539 257 OFFCURVE",
"531 241 CURVE SMOOTH",
"515 210 OFFCURVE",
"496 185 OFFCURVE",
"435 185 CURVE SMOOTH",
"374 185 OFFCURVE",
"333 215 OFFCURVE",
"333 270 CURVE SMOOTH"
);
}
);
width = 850;
}
);
unicode = 0063;
},
{
color = 4;
glyphname = cacute;
lastChange = "2016-09-08 17:15:01 +0000";
layers = (
{
layerId = UUID0;
paths = (
{
closed = 1;
nodes = (
"333 430 LINE SMOOTH",
"333 485 OFFCURVE",
"374 515 OFFCURVE",
"435 515 CURVE SMOOTH",
"496 515 OFFCURVE",
"515 490 OFFCURVE",
"531 459 CURVE SMOOTH",
"539 443 OFFCURVE",
"549 433 OFFCURVE",
"566 433 CURVE SMOOTH",
"782 433 LINE SMOOTH",
"794 433 OFFCURVE",
"804 443 OFFCURVE",
"804 455 CURVE SMOOTH",
"804 569 OFFCURVE",
"689 710 OFFCURVE",
"435 710 CURVE SMOOTH",
"229 710 OFFCURVE",
"63 619 OFFCURVE",
"63 409 CURVE SMOOTH",
"63 291 LINE SMOOTH",
"63 81 OFFCURVE",
"229 -10 OFFCURVE",
"435 -10 CURVE SMOOTH",
"689 -10 OFFCURVE",
"804 131 OFFCURVE",
"804 245 CURVE SMOOTH",
"804 257 OFFCURVE",
"794 267 OFFCURVE",
"782 267 CURVE SMOOTH",
"566 267 LINE SMOOTH",
"549 267 OFFCURVE",
"539 257 OFFCURVE",
"531 241 CURVE SMOOTH",
"515 210 OFFCURVE",
"496 185 OFFCURVE",
"435 185 CURVE SMOOTH",
"374 185 OFFCURVE",
"333 215 OFFCURVE",
"333 270 CURVE SMOOTH"
);
},
{
closed = 1;
nodes = (
"339 760 LINE SMOOTH",
"336 757 OFFCURVE",
"334 752 OFFCURVE",
"334 747 CURVE SMOOTH",
"334 737 OFFCURVE",
"340 731 OFFCURVE",
"350 731 CURVE SMOOTH",
"471 731 LINE SMOOTH",
"475 731 OFFCURVE",
"479 731 OFFCURVE",
"483 731 CURVE SMOOTH",
"493 731 OFFCURVE",
"503 732 OFFCURVE",
"511 738 CURVE SMOOTH",
"606 818 LINE SMOOTH",
"609 821 OFFCURVE",
"611 825 OFFCURVE",
"611 830 CURVE SMOOTH",
"611 842 OFFCURVE",
"604 850 OFFCURVE",
"592 850 CURVE SMOOTH",
"434 850 LINE",
"419 849 OFFCURVE",
"411 848 OFFCURVE",
"397 831 CURVE SMOOTH"
);
}
);
width = 850;
}
);
unicode = 0107;
},
{
color = 4;
glyphname = ccaron;
lastChange = "2016-09-08 17:15:01 +0000";
layers = (
{
layerId = UUID0;
paths = (
{
closed = 1;
nodes = (
"333 430 LINE SMOOTH",
"333 485 OFFCURVE",
"374 515 OFFCURVE",
"435 515 CURVE SMOOTH",
"496 515 OFFCURVE",
"515 490 OFFCURVE",
"531 459 CURVE SMOOTH",
"539 443 OFFCURVE",
"549 433 OFFCURVE",
"566 433 CURVE SMOOTH",
"782 433 LINE SMOOTH",
"794 433 OFFCURVE",
"804 443 OFFCURVE",
"804 455 CURVE SMOOTH",
"804 569 OFFCURVE",
"689 710 OFFCURVE",
"435 710 CURVE SMOOTH",
"229 710 OFFCURVE",
"63 619 OFFCURVE",
"63 409 CURVE SMOOTH",
"63 291 LINE SMOOTH",
"63 81 OFFCURVE",
"229 -10 OFFCURVE",
"435 -10 CURVE SMOOTH",
"689 -10 OFFCURVE",
"804 131 OFFCURVE",
"804 245 CURVE SMOOTH",
"804 257 OFFCURVE",
"794 267 OFFCURVE",
"782 267 CURVE SMOOTH",
"566 267 LINE SMOOTH",
"549 267 OFFCURVE",
"539 257 OFFCURVE",
"531 241 CURVE SMOOTH",
"515 210 OFFCURVE",
"496 185 OFFCURVE",
"435 185 CURVE SMOOTH",
"374 185 OFFCURVE",
"333 215 OFFCURVE",
"333 270 CURVE SMOOTH"
);
},
{
closed = 1;
nodes = (
"429 821 LINE",
"372 843 LINE",
"356 848 OFFCURVE",
"345 850 OFFCURVE",
"332 850 CURVE SMOOTH",
"251 850 LINE SMOOTH",
"242 850 OFFCURVE",
"235 843 OFFCURVE",
"235 834 CURVE SMOOTH",
"235 826 OFFCURVE",
"240 822 OFFCURVE",
"243 820 CURVE SMOOTH",
"326 750 LINE",
"347 735 OFFCURVE",
"358 731 OFFCURVE",
"373 731 CURVE SMOOTH",
"485 731 LINE SMOOTH",
"500 731 OFFCURVE",
"511 735 OFFCURVE",
"532 750 CURVE",
"615 820 LINE SMOOTH",
"618 822 OFFCURVE",
"623 826 OFFCURVE",
"623 834 CURVE SMOOTH",
"623 843 OFFCURVE",
"616 850 OFFCURVE",
"607 850 CURVE SMOOTH",
"526 850 LINE SMOOTH",
"513 850 OFFCURVE",
"502 848 OFFCURVE",
"486 843 CURVE"
);
}
);
width = 850;
}
);
unicode = 010D;
},
{
color = 4;
glyphname = ccedilla;
lastChange = "2016-09-08 17:15:01 +0000";
layers = (
{
layerId = UUID0;
paths = (
{
closed = 1;
nodes = (
"333 430 LINE SMOOTH",
"333 485 OFFCURVE",
"374 515 OFFCURVE",
"435 515 CURVE SMOOTH",
"496 515 OFFCURVE",
"515 490 OFFCURVE",
"531 459 CURVE SMOOTH",
"539 443 OFFCURVE",
"549 433 OFFCURVE",
"566 433 CURVE SMOOTH",
"782 433 LINE SMOOTH",
"794 433 OFFCURVE",
"804 443 OFFCURVE",
"804 455 CURVE SMOOTH",
"804 569 OFFCURVE",
"689 710 OFFCURVE",
"435 710 CURVE SMOOTH",
"229 710 OFFCURVE",
"63 619 OFFCURVE",
"63 409 CURVE SMOOTH",
"63 291 LINE SMOOTH",
"63 101 OFFCURVE",
"199 8 OFFCURVE",
"378 -7 CURVE",
"363 -53 LINE SMOOTH",
"362 -56 OFFCURVE",
"361 -59 OFFCURVE",
"361 -62 CURVE SMOOTH",
"361 -70 OFFCURVE",
"366 -75 OFFCURVE",
"376 -75 CURVE SMOOTH",
"420 -75 LINE SMOOTH",
"439 -75 OFFCURVE",
"441 -66 OFFCURVE",
"468 -66 CURVE SMOOTH",
"488 -66 OFFCURVE",
"496 -73 OFFCURVE",
"496 -83 CURVE SMOOTH",
"496 -93 OFFCURVE",
"488 -102 OFFCURVE",
"467 -102 CURVE SMOOTH",
"432 -102 OFFCURVE",
"440 -89 OFFCURVE",
"415 -89 CURVE SMOOTH",
"354 -89 LINE SMOOTH",
"347 -89 OFFCURVE",
"341 -92 OFFCURVE",
"341 -100 CURVE SMOOTH",
"341 -134 OFFCURVE",
"407 -150 OFFCURVE",
"467 -150 CURVE SMOOTH",
"518 -150 OFFCURVE",
"583 -133 OFFCURVE",
"583 -83 CURVE SMOOTH",
"583 -43 OFFCURVE",
"543 -22 OFFCURVE",
"492 -22 CURVE SMOOTH",
"485 -22 OFFCURVE",
"464 -22 OFFCURVE",
"455 -26 CURVE",
"461 -9 LINE",
"697 0 OFFCURVE",
"804 135 OFFCURVE",
"804 245 CURVE SMOOTH",
"804 257 OFFCURVE",
"794 267 OFFCURVE",
"782 267 CURVE SMOOTH",
"566 267 LINE SMOOTH",
"549 267 OFFCURVE",
"539 257 OFFCURVE",
"531 241 CURVE SMOOTH",
"515 210 OFFCURVE",
"496 185 OFFCURVE",
"435 185 CURVE SMOOTH",
"374 185 OFFCURVE",
"333 215 OFFCURVE",
"333 270 CURVE SMOOTH"
);
}
);
width = 850;
}
);
unicode = 00E7;
},
{
color = 4;
glyphname = ccircumflex;
lastChange = "2016-09-08 17:15:01 +0000";
layers = (
{
layerId = UUID0;
paths = (
{
closed = 1;
nodes = (
"333 430 LINE SMOOTH",
"333 485 OFFCURVE",
"374 515 OFFCURVE",
"435 515 CURVE SMOOTH",
"496 515 OFFCURVE",
"515 490 OFFCURVE",
"531 459 CURVE SMOOTH",
"539 443 OFFCURVE",
"549 433 OFFCURVE",
"566 433 CURVE SMOOTH",
"782 433 LINE SMOOTH",
"794 433 OFFCURVE",
"804 443 OFFCURVE",
"804 455 CURVE SMOOTH",
"804 569 OFFCURVE",
"689 710 OFFCURVE",
"435 710 CURVE SMOOTH",
"229 710 OFFCURVE",
"63 619 OFFCURVE",
"63 409 CURVE SMOOTH",
"63 291 LINE SMOOTH",
"63 81 OFFCURVE",
"229 -10 OFFCURVE",
"435 -10 CURVE SMOOTH",
"689 -10 OFFCURVE",
"804 131 OFFCURVE",
"804 245 CURVE SMOOTH",
"804 257 OFFCURVE",
"794 267 OFFCURVE",
"782 267 CURVE SMOOTH",
"566 267 LINE SMOOTH",
"549 267 OFFCURVE",
"539 257 OFFCURVE",
"531 241 CURVE SMOOTH",
"515 210 OFFCURVE",
"496 185 OFFCURVE",
"435 185 CURVE SMOOTH",
"374 185 OFFCURVE",
"333 215 OFFCURVE",
"333 270 CURVE SMOOTH"
);
},
{
closed = 1;
nodes = (
"432 760 LINE",
"489 738 LINE",
"505 733 OFFCURVE",
"516 731 OFFCURVE",
"529 731 CURVE SMOOTH",
"610 731 LINE SMOOTH",
"619 731 OFFCURVE",
"626 738 OFFCURVE",
"626 747 CURVE SMOOTH",
"626 755 OFFCURVE",
"621 759 OFFCURVE",
"618 761 CURVE SMOOTH",
"535 831 LINE",
"514 846 OFFCURVE",
"503 850 OFFCURVE",
"488 850 CURVE SMOOTH",
"376 850 LINE SMOOTH",
"361 850 OFFCURVE",
"350 846 OFFCURVE",
"329 831 CURVE",
"246 761 LINE SMOOTH",
"243 759 OFFCURVE",
"238 755 OFFCURVE",
"238 747 CURVE SMOOTH",
"238 738 OFFCURVE",
"245 731 OFFCURVE",
"254 731 CURVE SMOOTH",
"335 731 LINE SMOOTH",
"348 731 OFFCURVE",
"359 733 OFFCURVE",
"375 738 CURVE"
);
}
);
width = 850;
}
);
unicode = 0109;
},
